<svg width="252" height="291" viewBox="0 0 252 291" fill="none" xmlns="http://www.w3.org/2000/svg">
<g filter="url(#filter0_d_5115_11580)">
<rect x="73.0977" y="0.714844" width="178.088" height="216.803" rx="30.9719" fill="white"/>
<path d="M116.801 51.3976V48.3826L114.386 44.1976H115.236L117.171 47.5426L119.096 44.1976H119.946L117.541 48.3826V51.3976H116.801ZM122.097 51.5476C121.561 51.5476 121.102 51.4259 120.722 51.1826C120.342 50.9392 120.051 50.6026 119.847 50.1726C119.644 49.7426 119.542 49.2492 119.542 48.6926C119.542 48.1259 119.646 47.6292 119.852 47.2026C120.059 46.7759 120.352 46.4442 120.732 46.2076C121.116 45.9676 121.571 45.8476 122.097 45.8476C122.637 45.8476 123.097 45.9692 123.477 46.2126C123.861 46.4526 124.152 46.7876 124.352 47.2176C124.556 47.6442 124.657 48.1359 124.657 48.6926C124.657 49.2592 124.556 49.7576 124.352 50.1876C124.149 50.6142 123.856 50.9476 123.472 51.1876C123.089 51.4276 122.631 51.5476 122.097 51.5476ZM122.097 50.8426C122.697 50.8426 123.144 50.6442 123.437 50.2476C123.731 49.8476 123.877 49.3292 123.877 48.6926C123.877 48.0392 123.729 47.5192 123.432 47.1326C123.139 46.7459 122.694 46.5526 122.097 46.5526C121.694 46.5526 121.361 46.6442 121.097 46.8276C120.837 47.0076 120.642 47.2592 120.512 47.5826C120.386 47.9026 120.322 48.2726 120.322 48.6926C120.322 49.3426 120.472 49.8642 120.772 50.2576C121.072 50.6476 121.514 50.8426 122.097 50.8426ZM127.825 51.5326C127.502 51.5326 127.219 51.4826 126.975 51.3826C126.735 51.2826 126.53 51.1476 126.36 50.9776C126.194 50.8076 126.059 50.6142 125.955 50.3976C125.852 50.1776 125.777 49.9459 125.73 49.7026C125.684 49.4559 125.66 49.2109 125.66 48.9676V45.9976H126.4V48.7526C126.4 49.0492 126.429 49.3242 126.485 49.5776C126.542 49.8309 126.632 50.0526 126.755 50.2426C126.882 50.4292 127.044 50.5742 127.24 50.6776C127.44 50.7809 127.682 50.8326 127.965 50.8326C128.225 50.8326 128.454 50.7876 128.65 50.6976C128.85 50.6076 129.017 50.4792 129.15 50.3126C129.287 50.1426 129.39 49.9376 129.46 49.6976C129.53 49.4542 129.565 49.1809 129.565 48.8776L130.085 48.9926C130.085 49.5459 129.989 50.0109 129.795 50.3876C129.602 50.7642 129.335 51.0492 128.995 51.2426C128.655 51.4359 128.265 51.5326 127.825 51.5326ZM129.64 51.3976V50.0676H129.565V45.9976H130.3V51.3976H129.64ZM131.698 51.3976V45.9976H132.358V47.2976L132.228 47.1276C132.288 46.9676 132.366 46.8209 132.463 46.6876C132.559 46.5509 132.664 46.4392 132.778 46.3526C132.918 46.2292 133.081 46.1359 133.268 46.0726C133.454 46.0059 133.643 45.9676 133.833 45.9576C134.023 45.9442 134.196 45.9576 134.353 45.9976V46.6876C134.156 46.6376 133.941 46.6259 133.708 46.6526C133.474 46.6792 133.259 46.7726 133.063 46.9326C132.883 47.0726 132.748 47.2409 132.658 47.4376C132.568 47.6309 132.508 47.8376 132.478 48.0576C132.448 48.2742 132.433 48.4892 132.433 48.7026V51.3976H131.698ZM139.318 51.5426C138.685 51.5426 138.163 51.4059 137.753 51.1326C137.346 50.8592 137.096 50.4792 137.003 49.9926L137.753 49.8676C137.833 50.1742 138.015 50.4192 138.298 50.6026C138.585 50.7826 138.938 50.8726 139.358 50.8726C139.768 50.8726 140.091 50.7876 140.328 50.6176C140.565 50.4442 140.683 50.2092 140.683 49.9126C140.683 49.7459 140.645 49.6109 140.568 49.5076C140.495 49.4009 140.343 49.3026 140.113 49.2126C139.883 49.1226 139.54 49.0159 139.083 48.8926C138.593 48.7592 138.21 48.6259 137.933 48.4926C137.656 48.3592 137.46 48.2059 137.343 48.0326C137.226 47.8559 137.168 47.6409 137.168 47.3876C137.168 47.0809 137.255 46.8126 137.428 46.5826C137.601 46.3492 137.841 46.1692 138.148 46.0426C138.455 45.9126 138.811 45.8476 139.218 45.8476C139.625 45.8476 139.988 45.9142 140.308 46.0476C140.631 46.1776 140.891 46.3609 141.088 46.5976C141.285 46.8342 141.401 47.1092 141.438 47.4226L140.688 47.5576C140.638 47.2409 140.48 46.9909 140.213 46.8076C139.95 46.6209 139.615 46.5242 139.208 46.5176C138.825 46.5076 138.513 46.5809 138.273 46.7376C138.033 46.8909 137.913 47.0959 137.913 47.3526C137.913 47.4959 137.956 47.6192 138.043 47.7226C138.13 47.8226 138.286 47.9176 138.513 48.0076C138.743 48.0976 139.07 48.1959 139.493 48.3026C139.99 48.4292 140.38 48.5626 140.663 48.7026C140.946 48.8426 141.148 49.0076 141.268 49.1976C141.388 49.3876 141.448 49.6226 141.448 49.9026C141.448 50.4126 141.258 50.8142 140.878 51.1076C140.501 51.3976 139.981 51.5426 139.318 51.5426ZM144.797 51.5476C144.254 51.5476 143.794 51.4259 143.417 51.1826C143.04 50.9392 142.754 50.6042 142.557 50.1776C142.364 49.7476 142.264 49.2542 142.257 48.6976C142.264 48.1309 142.367 47.6342 142.567 47.2076C142.767 46.7776 143.055 46.4442 143.432 46.2076C143.809 45.9676 144.265 45.8476 144.802 45.8476C145.349 45.8476 145.824 45.9809 146.227 46.2476C146.634 46.5142 146.912 46.8792 147.062 47.3426L146.342 47.5726C146.215 47.2492 146.014 46.9992 145.737 46.8226C145.464 46.6426 145.15 46.5526 144.797 46.5526C144.4 46.5526 144.072 46.6442 143.812 46.8276C143.552 47.0076 143.359 47.2592 143.232 47.5826C143.105 47.9059 143.04 48.2776 143.037 48.6976C143.044 49.3442 143.194 49.8642 143.487 50.2576C143.78 50.6476 144.217 50.8426 144.797 50.8426C145.164 50.8426 145.475 50.7592 145.732 50.5926C145.992 50.4226 146.189 50.1759 146.322 49.8526L147.062 50.0726C146.862 50.5526 146.569 50.9192 146.182 51.1726C145.795 51.4226 145.334 51.5476 144.797 51.5476ZM150.203 51.5476C149.666 51.5476 149.208 51.4259 148.828 51.1826C148.448 50.9392 148.156 50.6026 147.953 50.1726C147.749 49.7426 147.648 49.2492 147.648 48.6926C147.648 48.1259 147.751 47.6292 147.958 47.2026C148.164 46.7759 148.458 46.4442 148.838 46.2076C149.221 45.9676 149.676 45.8476 150.203 45.8476C150.743 45.8476 151.203 45.9692 151.583 46.2126C151.966 46.4526 152.258 46.7876 152.458 47.2176C152.661 47.6442 152.763 48.1359 152.763 48.6926C152.763 49.2592 152.661 49.7576 152.458 50.1876C152.254 50.6142 151.961 50.9476 151.578 51.1876C151.194 51.4276 150.736 51.5476 150.203 51.5476ZM150.203 50.8426C150.803 50.8426 151.249 50.6442 151.543 50.2476C151.836 49.8476 151.983 49.3292 151.983 48.6926C151.983 48.0392 151.834 47.5192 151.538 47.1326C151.244 46.7459 150.799 46.5526 150.203 46.5526C149.799 46.5526 149.466 46.6442 149.203 46.8276C148.943 47.0076 148.748 47.2592 148.618 47.5826C148.491 47.9026 148.428 48.2726 148.428 48.6926C148.428 49.3426 148.578 49.8642 148.878 50.2576C149.178 50.6476 149.619 50.8426 150.203 50.8426ZM156.121 51.5476C155.584 51.5476 155.126 51.4259 154.746 51.1826C154.366 50.9392 154.074 50.6026 153.871 50.1726C153.667 49.7426 153.566 49.2492 153.566 48.6926C153.566 48.1259 153.669 47.6292 153.876 47.2026C154.082 46.7759 154.376 46.4442 154.756 46.2076C155.139 45.9676 155.594 45.8476 156.121 45.8476C156.661 45.8476 157.121 45.9692 157.501 46.2126C157.884 46.4526 158.176 46.7876 158.376 47.2176C158.579 47.6442 158.681 48.1359 158.681 48.6926C158.681 49.2592 158.579 49.7576 158.376 50.1876C158.172 50.6142 157.879 50.9476 157.496 51.1876C157.112 51.4276 156.654 51.5476 156.121 51.5476ZM156.121 50.8426C156.721 50.8426 157.167 50.6442 157.461 50.2476C157.754 49.8476 157.901 49.3292 157.901 48.6926C157.901 48.0392 157.752 47.5192 157.456 47.1326C157.162 46.7459 156.717 46.5526 156.121 46.5526C155.717 46.5526 155.384 46.6442 155.121 46.8276C154.861 47.0076 154.666 47.2592 154.536 47.5826C154.409 47.9026 154.346 48.2726 154.346 48.6926C154.346 49.3426 154.496 49.8642 154.796 50.2576C155.096 50.6476 155.537 50.8426 156.121 50.8426ZM162.724 51.3976C162.42 51.4609 162.12 51.4859 161.824 51.4726C161.53 51.4592 161.267 51.3959 161.034 51.2826C160.804 51.1692 160.629 50.9926 160.509 50.7526C160.412 50.5526 160.359 50.3509 160.349 50.1476C160.342 49.9409 160.339 49.7059 160.339 49.4426V44.4976H161.069V49.4126C161.069 49.6392 161.07 49.8292 161.074 49.9826C161.08 50.1326 161.115 50.2659 161.179 50.3826C161.299 50.6059 161.489 50.7392 161.749 50.7826C162.012 50.8259 162.337 50.8159 162.724 50.7526V51.3976ZM159.184 46.6276V45.9976H162.724V46.6276H159.184ZM165.877 51.5476C165.351 51.5476 164.894 51.4309 164.507 51.1976C164.124 50.9642 163.826 50.6359 163.612 50.2126C163.399 49.7892 163.292 49.2926 163.292 48.7226C163.292 48.1326 163.397 47.6226 163.607 47.1926C163.817 46.7626 164.112 46.4309 164.492 46.1976C164.876 45.9642 165.327 45.8476 165.847 45.8476C166.381 45.8476 166.836 45.9709 167.212 46.2176C167.589 46.4609 167.874 46.8109 168.067 47.2676C168.261 47.7242 168.349 48.2692 168.332 48.9026H167.582V48.6426C167.569 47.9426 167.417 47.4142 167.127 47.0576C166.841 46.7009 166.421 46.5226 165.867 46.5226C165.287 46.5226 164.842 46.7109 164.532 47.0876C164.226 47.4642 164.072 48.0009 164.072 48.6976C164.072 49.3776 164.226 49.9059 164.532 50.2826C164.842 50.6559 165.281 50.8426 165.847 50.8426C166.234 50.8426 166.571 50.7542 166.857 50.5776C167.147 50.3976 167.376 50.1392 167.542 49.8026L168.227 50.0676C168.014 50.5376 167.699 50.9026 167.282 51.1626C166.869 51.4192 166.401 51.5476 165.877 51.5476ZM163.812 48.9026V48.2876H167.937V48.9026H163.812ZM169.442 51.3976V45.9976H170.102V47.2976L169.972 47.1276C170.032 46.9676 170.11 46.8209 170.207 46.6876C170.303 46.5509 170.408 46.4392 170.522 46.3526C170.662 46.2292 170.825 46.1359 171.012 46.0726C171.198 46.0059 171.387 45.9676 171.577 45.9576C171.767 45.9442 171.94 45.9576 172.097 45.9976V46.6876C171.9 46.6376 171.685 46.6259 171.452 46.6526C171.218 46.6792 171.003 46.7726 170.807 46.9326C170.627 47.0726 170.492 47.2409 170.402 47.4376C170.312 47.6309 170.252 47.8376 170.222 48.0576C170.192 48.2742 170.177 48.4892 170.177 48.7026V51.3976H169.442ZM175.147 44.9726V44.1476H175.882V44.9726H175.147ZM175.147 51.3976V45.9976H175.882V51.3976H175.147ZM179.396 51.5426C178.763 51.5426 178.241 51.4059 177.831 51.1326C177.425 50.8592 177.175 50.4792 177.081 49.9926L177.831 49.8676C177.911 50.1742 178.093 50.4192 178.376 50.6026C178.663 50.7826 179.016 50.8726 179.436 50.8726C179.846 50.8726 180.17 50.7876 180.406 50.6176C180.643 50.4442 180.761 50.2092 180.761 49.9126C180.761 49.7459 180.723 49.6109 180.646 49.5076C180.573 49.4009 180.421 49.3026 180.191 49.2126C179.961 49.1226 179.618 49.0159 179.161 48.8926C178.671 48.7592 178.288 48.6259 178.011 48.4926C177.735 48.3592 177.538 48.2059 177.421 48.0326C177.305 47.8559 177.246 47.6409 177.246 47.3876C177.246 47.0809 177.333 46.8126 177.506 46.5826C177.68 46.3492 177.92 46.1692 178.226 46.0426C178.533 45.9126 178.89 45.8476 179.296 45.8476C179.703 45.8476 180.066 45.9142 180.386 46.0476C180.71 46.1776 180.97 46.3609 181.166 46.5976C181.363 46.8342 181.48 47.1092 181.516 47.4226L180.766 47.5576C180.716 47.2409 180.558 46.9909 180.291 46.8076C180.028 46.6209 179.693 46.5242 179.286 46.5176C178.903 46.5076 178.591 46.5809 178.351 46.7376C178.111 46.8909 177.991 47.0959 177.991 47.3526C177.991 47.4959 178.035 47.6192 178.121 47.7226C178.208 47.8226 178.365 47.9176 178.591 48.0076C178.821 48.0976 179.148 48.1959 179.571 48.3026C180.068 48.4292 180.458 48.5626 180.741 48.7026C181.025 48.8426 181.226 49.0076 181.346 49.1976C181.466 49.3876 181.526 49.6226 181.526 49.9026C181.526 50.4126 181.336 50.8142 180.956 51.1076C180.58 51.3976 180.06 51.5426 179.396 51.5426ZM187.062 51.5476C186.565 51.5476 186.145 51.4226 185.802 51.1726C185.459 50.9192 185.199 50.5776 185.022 50.1476C184.845 49.7142 184.757 49.2292 184.757 48.6926C184.757 48.1459 184.845 47.6592 185.022 47.2326C185.202 46.8026 185.465 46.4642 185.812 46.2176C186.159 45.9709 186.585 45.8476 187.092 45.8476C187.585 45.8476 188.009 45.9726 188.362 46.2226C188.715 46.4726 188.985 46.8126 189.172 47.2426C189.362 47.6726 189.457 48.1559 189.457 48.6926C189.457 49.2326 189.362 49.7176 189.172 50.1476C188.982 50.5776 188.709 50.9192 188.352 51.1726C187.995 51.4226 187.565 51.5476 187.062 51.5476ZM184.632 51.3976V44.1976H185.372V47.3326H185.292V51.3976H184.632ZM186.987 50.8626C187.364 50.8626 187.677 50.7676 187.927 50.5776C188.177 50.3876 188.364 50.1292 188.487 49.8026C188.614 49.4726 188.677 49.1026 188.677 48.6926C188.677 48.2859 188.615 47.9192 188.492 47.5926C188.369 47.2659 188.18 47.0076 187.927 46.8176C187.677 46.6276 187.359 46.5326 186.972 46.5326C186.595 46.5326 186.282 46.6242 186.032 46.8076C185.785 46.9909 185.6 47.2459 185.477 47.5726C185.354 47.8959 185.292 48.2692 185.292 48.6926C185.292 49.1092 185.354 49.4826 185.477 49.8126C185.6 50.1392 185.787 50.3959 186.037 50.5826C186.287 50.7692 186.604 50.8626 186.987 50.8626ZM192.84 51.5476C192.313 51.5476 191.857 51.4309 191.47 51.1976C191.087 50.9642 190.788 50.6359 190.575 50.2126C190.362 49.7892 190.255 49.2926 190.255 48.7226C190.255 48.1326 190.36 47.6226 190.57 47.1926C190.78 46.7626 191.075 46.4309 191.455 46.1976C191.838 45.9642 192.29 45.8476 192.81 45.8476C193.343 45.8476 193.798 45.9709 194.175 46.2176C194.552 46.4609 194.837 46.8109 195.03 47.2676C195.223 47.7242 195.312 48.2692 195.295 48.9026H194.545V48.6426C194.532 47.9426 194.38 47.4142 194.09 47.0576C193.803 46.7009 193.383 46.5226 192.83 46.5226C192.25 46.5226 191.805 46.7109 191.495 47.0876C191.188 47.4642 191.035 48.0009 191.035 48.6976C191.035 49.3776 191.188 49.9059 191.495 50.2826C191.805 50.6559 192.243 50.8426 192.81 50.8426C193.197 50.8426 193.533 50.7542 193.82 50.5776C194.11 50.3976 194.338 50.1392 194.505 49.8026L195.19 50.0676C194.977 50.5376 194.662 50.9026 194.245 51.1626C193.832 51.4192 193.363 51.5476 192.84 51.5476ZM190.775 48.9026V48.2876H194.9V48.9026H190.775ZM196.505 44.9726V44.1476H197.24V44.9726H196.505ZM196.505 51.3976V45.9976H197.24V51.3976H196.505ZM202.639 51.3976V48.6426C202.639 48.3426 202.61 48.0676 202.554 47.8176C202.497 47.5642 202.405 47.3442 202.279 47.1576C202.155 46.9676 201.994 46.8209 201.794 46.7176C201.597 46.6142 201.357 46.5626 201.074 46.5626C200.814 46.5626 200.584 46.6076 200.384 46.6976C200.187 46.7876 200.02 46.9176 199.884 47.0876C199.75 47.2542 199.649 47.4576 199.579 47.6976C199.509 47.9376 199.474 48.2109 199.474 48.5176L198.954 48.4026C198.954 47.8492 199.05 47.3842 199.244 47.0076C199.437 46.6309 199.704 46.3459 200.044 46.1526C200.384 45.9592 200.774 45.8626 201.214 45.8626C201.537 45.8626 201.819 45.9126 202.059 46.0126C202.302 46.1126 202.507 46.2476 202.674 46.4176C202.844 46.5876 202.98 46.7826 203.084 47.0026C203.187 47.2192 203.262 47.4509 203.309 47.6976C203.355 47.9409 203.379 48.1842 203.379 48.4276V51.3976H202.639ZM198.734 51.3976V45.9976H199.399V47.3276H199.474V51.3976H198.734ZM206.821 53.9476C206.545 53.9476 206.271 53.9059 206.001 53.8226C205.735 53.7426 205.488 53.6142 205.261 53.4376C205.035 53.2642 204.845 53.0376 204.691 52.7576L205.356 52.3876C205.506 52.6876 205.716 52.9026 205.986 53.0326C206.26 53.1659 206.538 53.2326 206.821 53.2326C207.211 53.2326 207.526 53.1592 207.766 53.0126C208.01 52.8692 208.186 52.6559 208.296 52.3726C208.406 52.0892 208.46 51.7359 208.456 51.3126V49.8726H208.541V45.9976H209.196V51.3226C209.196 51.4759 209.191 51.6226 209.181 51.7626C209.175 51.9059 209.16 52.0459 209.136 52.1826C209.073 52.5859 208.941 52.9176 208.741 53.1776C208.545 53.4376 208.285 53.6309 207.961 53.7576C207.641 53.8842 207.261 53.9476 206.821 53.9476ZM206.771 51.5476C206.268 51.5476 205.838 51.4226 205.481 51.1726C205.125 50.9192 204.851 50.5776 204.661 50.1476C204.471 49.7176 204.376 49.2326 204.376 48.6926C204.376 48.1559 204.47 47.6726 204.656 47.2426C204.846 46.8126 205.118 46.4726 205.471 46.2226C205.825 45.9726 206.248 45.8476 206.741 45.8476C207.248 45.8476 207.675 45.9709 208.021 46.2176C208.368 46.4642 208.63 46.8026 208.806 47.2326C208.986 47.6592 209.076 48.1459 209.076 48.6926C209.076 49.2292 208.988 49.7142 208.811 50.1476C208.635 50.5776 208.375 50.9192 208.031 51.1726C207.688 51.4226 207.268 51.5476 206.771 51.5476ZM206.846 50.8626C207.23 50.8626 207.546 50.7692 207.796 50.5826C208.046 50.3959 208.233 50.1392 208.356 49.8126C208.48 49.4826 208.541 49.1092 208.541 48.6926C208.541 48.2692 208.48 47.8959 208.356 47.5726C208.233 47.2459 208.046 46.9909 207.796 46.8076C207.55 46.6242 207.238 46.5326 206.861 46.5326C206.475 46.5326 206.155 46.6276 205.901 46.8176C205.648 47.0076 205.46 47.2659 205.336 47.5926C205.216 47.9192 205.156 48.2859 205.156 48.6926C205.156 49.1026 205.218 49.4726 205.341 49.8026C205.468 50.1292 205.656 50.3876 205.906 50.5776C206.156 50.7676 206.47 50.8626 206.846 50.8626ZM142.71 64.5476C142.304 64.5476 141.962 64.4742 141.685 64.3276C141.412 64.1809 141.207 63.9859 141.07 63.7426C140.934 63.4992 140.865 63.2342 140.865 62.9476C140.865 62.6542 140.924 62.4042 141.04 62.1976C141.16 61.9876 141.322 61.8159 141.525 61.6826C141.732 61.5492 141.97 61.4476 142.24 61.3776C142.514 61.3109 142.815 61.2526 143.145 61.2026C143.479 61.1492 143.804 61.1042 144.12 61.0676C144.44 61.0276 144.72 60.9892 144.96 60.9526L144.7 61.1126C144.71 60.5792 144.607 60.1842 144.39 59.9276C144.174 59.6709 143.797 59.5426 143.26 59.5426C142.89 59.5426 142.577 59.6259 142.32 59.7926C142.067 59.9592 141.889 60.2226 141.785 60.5826L141.07 60.3726C141.194 59.8892 141.442 59.5142 141.815 59.2476C142.189 58.9809 142.674 58.8476 143.27 58.8476C143.764 58.8476 144.182 58.9409 144.525 59.1276C144.872 59.3109 145.117 59.5776 145.26 59.9276C145.327 60.0842 145.37 60.2592 145.39 60.4526C145.41 60.6459 145.42 60.8426 145.42 61.0426V64.3976H144.765V63.0426L144.955 63.1226C144.772 63.5859 144.487 63.9392 144.1 64.1826C143.714 64.4259 143.25 64.5476 142.71 64.5476ZM142.795 63.9126C143.139 63.9126 143.439 63.8509 143.695 63.7276C143.952 63.6042 144.159 63.4359 144.315 63.2226C144.472 63.0059 144.574 62.7626 144.62 62.4926C144.66 62.3192 144.682 62.1292 144.685 61.9226C144.689 61.7126 144.69 61.5559 144.69 61.4526L144.97 61.5976C144.72 61.6309 144.449 61.6642 144.155 61.6976C143.865 61.7309 143.579 61.7692 143.295 61.8126C143.015 61.8559 142.762 61.9076 142.535 61.9676C142.382 62.0109 142.234 62.0726 142.09 62.1526C141.947 62.2292 141.829 62.3326 141.735 62.4626C141.645 62.5926 141.6 62.7542 141.6 62.9476C141.6 63.1042 141.639 63.2559 141.715 63.4026C141.795 63.5492 141.922 63.6709 142.095 63.7676C142.272 63.8642 142.505 63.9126 142.795 63.9126ZM148.962 64.5476C148.419 64.5476 147.959 64.4259 147.582 64.1826C147.205 63.9392 146.919 63.6042 146.722 63.1776C146.529 62.7476 146.429 62.2542 146.422 61.6976C146.429 61.1309 146.532 60.6342 146.732 60.2076C146.932 59.7776 147.22 59.4442 147.597 59.2076C147.974 58.9676 148.43 58.8476 148.967 58.8476C149.514 58.8476 149.989 58.9809 150.392 59.2476C150.799 59.5142 151.077 59.8792 151.227 60.3426L150.507 60.5726C150.38 60.2492 150.179 59.9992 149.902 59.8226C149.629 59.6426 149.315 59.5526 148.962 59.5526C148.565 59.5526 148.237 59.6442 147.977 59.8276C147.717 60.0076 147.524 60.2592 147.397 60.5826C147.27 60.9059 147.205 61.2776 147.202 61.6976C147.209 62.3442 147.359 62.8642 147.652 63.2576C147.945 63.6476 148.382 63.8426 148.962 63.8426C149.329 63.8426 149.64 63.7592 149.897 63.5926C150.157 63.4226 150.354 63.1759 150.487 62.8526L151.227 63.0726C151.027 63.5526 150.734 63.9192 150.347 64.1726C149.96 64.4226 149.499 64.5476 148.962 64.5476ZM155.199 64.3976C154.896 64.4609 154.596 64.4859 154.299 64.4726C154.006 64.4592 153.743 64.3959 153.509 64.2826C153.279 64.1692 153.104 63.9926 152.984 63.7526C152.888 63.5526 152.834 63.3509 152.824 63.1476C152.818 62.9409 152.814 62.7059 152.814 62.4426V57.4976H153.544V62.4126C153.544 62.6392 153.546 62.8292 153.549 62.9826C153.556 63.1326 153.591 63.2659 153.654 63.3826C153.774 63.6059 153.964 63.7392 154.224 63.7826C154.488 63.8259 154.813 63.8159 155.199 63.7526V64.3976ZM151.659 59.6276V58.9976H155.199V59.6276H151.659ZM156.363 57.9726V57.1476H157.098V57.9726H156.363ZM156.363 64.3976V58.9976H157.098V64.3976H156.363ZM160.057 64.3976L158.097 58.9976H158.842L160.437 63.4376L162.022 58.9976H162.777L160.817 64.3976H160.057ZM164.917 64.5476C164.511 64.5476 164.169 64.4742 163.892 64.3276C163.619 64.1809 163.414 63.9859 163.277 63.7426C163.141 63.4992 163.072 63.2342 163.072 62.9476C163.072 62.6542 163.131 62.4042 163.247 62.1976C163.367 61.9876 163.529 61.8159 163.732 61.6826C163.939 61.5492 164.177 61.4476 164.447 61.3776C164.721 61.3109 165.022 61.2526 165.352 61.2026C165.686 61.1492 166.011 61.1042 166.327 61.0676C166.647 61.0276 166.927 60.9892 167.167 60.9526L166.907 61.1126C166.917 60.5792 166.814 60.1842 166.597 59.9276C166.381 59.6709 166.004 59.5426 165.467 59.5426C165.097 59.5426 164.784 59.6259 164.527 59.7926C164.274 59.9592 164.096 60.2226 163.992 60.5826L163.277 60.3726C163.401 59.8892 163.649 59.5142 164.022 59.2476C164.396 58.9809 164.881 58.8476 165.477 58.8476C165.971 58.8476 166.389 58.9409 166.732 59.1276C167.079 59.3109 167.324 59.5776 167.467 59.9276C167.534 60.0842 167.577 60.2592 167.597 60.4526C167.617 60.6459 167.627 60.8426 167.627 61.0426V64.3976H166.972V63.0426L167.162 63.1226C166.979 63.5859 166.694 63.9392 166.307 64.1826C165.921 64.4259 165.457 64.5476 164.917 64.5476ZM165.002 63.9126C165.346 63.9126 165.646 63.8509 165.902 63.7276C166.159 63.6042 166.366 63.4359 166.522 63.2226C166.679 63.0059 166.781 62.7626 166.827 62.4926C166.867 62.3192 166.889 62.1292 166.892 61.9226C166.896 61.7126 166.897 61.5559 166.897 61.4526L167.177 61.5976C166.927 61.6309 166.656 61.6642 166.362 61.6976C166.072 61.7309 165.786 61.7692 165.502 61.8126C165.222 61.8559 164.969 61.9076 164.742 61.9676C164.589 62.0109 164.441 62.0726 164.297 62.1526C164.154 62.2292 164.036 62.3326 163.942 62.4626C163.852 62.5926 163.807 62.7542 163.807 62.9476C163.807 63.1042 163.846 63.2559 163.922 63.4026C164.002 63.5492 164.129 63.6709 164.302 63.7676C164.479 63.8642 164.712 63.9126 165.002 63.9126ZM171.869 64.3976C171.566 64.4609 171.266 64.4859 170.969 64.4726C170.676 64.4592 170.412 64.3959 170.179 64.2826C169.949 64.1692 169.774 63.9926 169.654 63.7526C169.557 63.5526 169.504 63.3509 169.494 63.1476C169.487 62.9409 169.484 62.7059 169.484 62.4426V57.4976H170.214V62.4126C170.214 62.6392 170.216 62.8292 170.219 62.9826C170.226 63.1326 170.261 63.2659 170.324 63.3826C170.444 63.6059 170.634 63.7392 170.894 63.7826C171.157 63.8259 171.482 63.8159 171.869 63.7526V64.3976ZM168.329 59.6276V58.9976H171.869V59.6276H168.329ZM175.023 64.5476C174.496 64.5476 174.039 64.4309 173.653 64.1976C173.269 63.9642 172.971 63.6359 172.758 63.2126C172.544 62.7892 172.438 62.2926 172.438 61.7226C172.438 61.1326 172.543 60.6226 172.753 60.1926C172.963 59.7626 173.258 59.4309 173.638 59.1976C174.021 58.9642 174.473 58.8476 174.993 58.8476C175.526 58.8476 175.981 58.9709 176.358 59.2176C176.734 59.4609 177.019 59.8109 177.213 60.2676C177.406 60.7242 177.494 61.2692 177.478 61.9026H176.728V61.6426C176.714 60.9426 176.563 60.4142 176.273 60.0576C175.986 59.7009 175.566 59.5226 175.013 59.5226C174.433 59.5226 173.988 59.7109 173.678 60.0876C173.371 60.4642 173.218 61.0009 173.218 61.6976C173.218 62.3776 173.371 62.9059 173.678 63.2826C173.988 63.6559 174.426 63.8426 174.993 63.8426C175.379 63.8426 175.716 63.7542 176.003 63.5776C176.293 63.3976 176.521 63.1392 176.688 62.8026L177.373 63.0676C177.159 63.5376 176.844 63.9026 176.428 64.1626C176.014 64.4192 175.546 64.5476 175.023 64.5476ZM172.958 61.9026V61.2876H177.083V61.9026H172.958ZM180.682 64.5476C180.179 64.5476 179.749 64.4226 179.392 64.1726C179.036 63.9192 178.762 63.5776 178.572 63.1476C178.382 62.7176 178.287 62.2326 178.287 61.6926C178.287 61.1559 178.381 60.6726 178.567 60.2426C178.757 59.8126 179.029 59.4726 179.382 59.2226C179.736 58.9726 180.159 58.8476 180.652 58.8476C181.159 58.8476 181.586 58.9709 181.932 59.2176C182.279 59.4642 182.541 59.8026 182.717 60.2326C182.897 60.6592 182.987 61.1459 182.987 61.6926C182.987 62.2292 182.899 62.7142 182.722 63.1476C182.546 63.5776 182.286 63.9192 181.942 64.1726C181.599 64.4226 181.179 64.5476 180.682 64.5476ZM180.757 63.8626C181.141 63.8626 181.457 63.7692 181.707 63.5826C181.957 63.3959 182.144 63.1392 182.267 62.8126C182.391 62.4826 182.452 62.1092 182.452 61.6926C182.452 61.2692 182.391 60.8959 182.267 60.5726C182.144 60.2459 181.957 59.9909 181.707 59.8076C181.461 59.6242 181.149 59.5326 180.772 59.5326C180.386 59.5326 180.066 59.6276 179.812 59.8176C179.559 60.0076 179.371 60.2659 179.247 60.5926C179.127 60.9192 179.067 61.2859 179.067 61.6926C179.067 62.1026 179.129 62.4726 179.252 62.8026C179.379 63.1292 179.567 63.3876 179.817 63.5776C180.067 63.7676 180.381 63.8626 180.757 63.8626ZM182.452 64.3976V60.3326H182.372V57.1976H183.112V64.3976H182.452Z" fill="#0B0F19"/>
<path d="M89.9444 28.2329V19.5929H93.3104C93.8264 19.5929 94.2664 19.6989 94.6304 19.9109C94.9984 20.1229 95.2784 20.4029 95.4704 20.7509C95.6664 21.0949 95.7644 21.4669 95.7644 21.8669C95.7644 22.3349 95.6444 22.7449 95.4044 23.0969C95.1644 23.4489 94.8404 23.6909 94.4324 23.8229L94.4204 23.5289C94.9764 23.6769 95.4084 23.9489 95.7164 24.3449C96.0244 24.7409 96.1784 25.2129 96.1784 25.7609C96.1784 26.2649 96.0744 26.7009 95.8664 27.0689C95.6624 27.4369 95.3664 27.7229 94.9784 27.9269C94.5944 28.1309 94.1384 28.2329 93.6104 28.2329H89.9444ZM91.0244 27.2129H93.4064C93.7264 27.2129 94.0124 27.1549 94.2644 27.0389C94.5164 26.9189 94.7144 26.7509 94.8584 26.5349C95.0064 26.3189 95.0804 26.0589 95.0804 25.7549C95.0804 25.4629 95.0144 25.2009 94.8824 24.9689C94.7544 24.7369 94.5724 24.5529 94.3364 24.4169C94.1044 24.2769 93.8344 24.2069 93.5264 24.2069H91.0244V27.2129ZM91.0244 23.1989H93.2984C93.5544 23.1989 93.7844 23.1449 93.9884 23.0369C94.1964 22.9249 94.3604 22.7689 94.4804 22.5689C94.6044 22.3689 94.6664 22.1349 94.6664 21.8669C94.6664 21.4949 94.5404 21.1909 94.2884 20.9549C94.0364 20.7189 93.7064 20.6009 93.2984 20.6009H91.0244V23.1989ZM99.2161 28.4129C98.7321 28.4129 98.3261 28.3249 97.9981 28.1489C97.6741 27.9689 97.4281 27.7329 97.2601 27.4409C97.0961 27.1489 97.0141 26.8289 97.0141 26.4809C97.0141 26.1409 97.0781 25.8469 97.2061 25.5989C97.3381 25.3469 97.5221 25.1389 97.7581 24.9749C97.9941 24.8069 98.2761 24.6749 98.6041 24.5789C98.9121 24.4949 99.2561 24.4229 99.6361 24.3629C100.02 24.2989 100.408 24.2409 100.8 24.1889C101.192 24.1369 101.558 24.0869 101.898 24.0389L101.514 24.2609C101.526 23.6849 101.41 23.2589 101.166 22.9829C100.926 22.7069 100.51 22.5689 99.9181 22.5689C99.5261 22.5689 99.1821 22.6589 98.8861 22.8389C98.5941 23.0149 98.3881 23.3029 98.2681 23.7029L97.2541 23.3969C97.4101 22.8289 97.7121 22.3829 98.1601 22.0589C98.6081 21.7349 99.1981 21.5729 99.9301 21.5729C100.518 21.5729 101.022 21.6789 101.442 21.8909C101.866 22.0989 102.17 22.4149 102.354 22.8389C102.446 23.0389 102.504 23.2569 102.528 23.4929C102.552 23.7249 102.564 23.9689 102.564 24.2249V28.2329H101.616V26.6789L101.838 26.8229C101.594 27.3469 101.252 27.7429 100.812 28.0109C100.376 28.2789 99.8441 28.4129 99.2161 28.4129ZM99.3781 27.5189C99.7621 27.5189 100.094 27.4509 100.374 27.3149C100.658 27.1749 100.886 26.9929 101.058 26.7689C101.23 26.5409 101.342 26.2929 101.394 26.0249C101.454 25.8249 101.486 25.6029 101.49 25.3589C101.498 25.1109 101.502 24.9209 101.502 24.7889L101.874 24.9509C101.526 24.9989 101.184 25.0449 100.848 25.0889C100.512 25.1329 100.194 25.1809 99.8941 25.2329C99.5941 25.2809 99.3241 25.3389 99.0841 25.4069C98.9081 25.4629 98.7421 25.5349 98.5861 25.6229C98.4341 25.7109 98.3101 25.8249 98.2141 25.9649C98.1221 26.1009 98.0761 26.2709 98.0761 26.4749C98.0761 26.6509 98.1201 26.8189 98.2081 26.9789C98.3001 27.1389 98.4401 27.2689 98.6281 27.3689C98.8201 27.4689 99.0701 27.5189 99.3781 27.5189ZM106.854 28.4129C106.198 28.4129 105.64 28.2669 105.18 27.9749C104.724 27.6789 104.376 27.2729 104.136 26.7569C103.896 26.2409 103.772 25.6529 103.764 24.9929C103.772 24.3169 103.898 23.7229 104.142 23.2109C104.39 22.6949 104.744 22.2929 105.204 22.0049C105.664 21.7169 106.218 21.5729 106.866 21.5729C107.55 21.5729 108.138 21.7409 108.63 22.0769C109.126 22.4129 109.458 22.8729 109.626 23.4569L108.57 23.7749C108.434 23.3989 108.212 23.1069 107.904 22.8989C107.6 22.6909 107.25 22.5869 106.854 22.5869C106.41 22.5869 106.044 22.6909 105.756 22.8989C105.468 23.1029 105.254 23.3869 105.114 23.7509C104.974 24.1109 104.902 24.5249 104.898 24.9929C104.906 25.7129 105.072 26.2949 105.396 26.7389C105.724 27.1789 106.21 27.3989 106.854 27.3989C107.278 27.3989 107.63 27.3029 107.91 27.1109C108.19 26.9149 108.402 26.6329 108.546 26.2649L109.626 26.5469C109.402 27.1509 109.052 27.6129 108.576 27.9329C108.1 28.2529 107.526 28.4129 106.854 28.4129ZM110.845 28.2329L110.851 19.5929H111.931V24.8729L114.649 21.7529H116.035L113.173 24.9929L116.371 28.2329H114.877L111.931 25.1129V28.2329H110.845Z" fill="#4F556D"/>
<path fill-rule="evenodd" clip-rule="evenodd" d="M162.141 144.54C145.784 144.54 132.524 131.281 132.524 114.924C132.524 98.5667 145.784 85.3068 162.141 85.3068C178.498 85.3068 191.758 98.5667 191.758 114.924C191.758 131.281 178.498 144.54 162.141 144.54ZM162.141 147.831C143.967 147.831 129.234 133.098 129.234 114.924C129.234 96.7492 143.967 82.016 162.141 82.016C180.316 82.016 195.049 96.7492 195.049 114.924C195.049 133.098 180.316 147.831 162.141 147.831Z" fill="#E2E5F1"/>
<path d="M162.141 144.54C145.784 144.54 132.524 131.281 132.524 114.924C132.524 98.5667 145.784 85.3068 162.141 85.3068V82.016C143.966 82.016 129.233 96.7492 129.233 114.924C129.233 133.098 143.966 147.831 162.141 147.831C179.063 147.831 193.003 135.057 194.842 118.626L191.577 118.214C189.94 133.023 177.385 144.54 162.141 144.54Z" fill="url(#paint0_linear_5115_11580)"/>
<path d="M149.894 120.628C149.104 120.628 148.413 120.463 147.82 120.132C147.228 119.801 146.766 119.34 146.436 118.747C146.105 118.155 145.94 117.464 145.94 116.674V113.476C145.94 112.686 146.105 111.995 146.436 111.402C146.766 110.81 147.228 110.349 147.82 110.018C148.413 109.687 149.104 109.522 149.894 109.522C150.683 109.522 151.374 109.687 151.967 110.018C152.559 110.349 153.021 110.81 153.351 111.402C153.682 111.995 153.847 112.686 153.847 113.476V116.674C153.847 117.464 153.682 118.155 153.351 118.747C153.021 119.34 152.559 119.801 151.967 120.132C151.374 120.463 150.683 120.628 149.894 120.628ZM149.894 118.718C150.249 118.718 150.57 118.634 150.856 118.466C151.142 118.298 151.369 118.071 151.537 117.785C151.705 117.499 151.789 117.178 151.789 116.822V113.313C151.789 112.957 151.705 112.637 151.537 112.35C151.369 112.064 151.142 111.837 150.856 111.669C150.57 111.501 150.249 111.417 149.894 111.417C149.538 111.417 149.217 111.501 148.931 111.669C148.645 111.837 148.418 112.064 148.25 112.35C148.082 112.637 147.998 112.957 147.998 113.313V116.822C147.998 117.178 148.082 117.499 148.25 117.785C148.418 118.071 148.645 118.298 148.931 118.466C149.217 118.634 149.538 118.718 149.894 118.718ZM156.51 119.517V117.504H158.524V119.517H156.51ZM156.525 115.312V113.298H158.539V115.312H156.525ZM165.165 120.628C164.375 120.628 163.684 120.463 163.092 120.132C162.499 119.801 162.038 119.34 161.707 118.747C161.376 118.155 161.211 117.464 161.211 116.674V113.476C161.211 112.686 161.376 111.995 161.707 111.402C162.038 110.81 162.499 110.349 163.092 110.018C163.684 109.687 164.375 109.522 165.165 109.522C165.955 109.522 166.646 109.687 167.238 110.018C167.83 110.349 168.292 110.81 168.622 111.402C168.953 111.995 169.119 112.686 169.119 113.476V116.674C169.119 117.464 168.953 118.155 168.622 118.747C168.292 119.34 167.83 119.801 167.238 120.132C166.646 120.463 165.955 120.628 165.165 120.628ZM165.165 118.718C165.52 118.718 165.841 118.634 166.127 118.466C166.414 118.298 166.641 118.071 166.808 117.785C166.976 117.499 167.06 117.178 167.06 116.822V113.313C167.06 112.957 166.976 112.637 166.808 112.35C166.641 112.064 166.414 111.837 166.127 111.669C165.841 111.501 165.52 111.417 165.165 111.417C164.809 111.417 164.488 111.501 164.202 111.669C163.916 111.837 163.689 112.064 163.521 112.35C163.353 112.637 163.269 112.957 163.269 113.313V116.822C163.269 117.178 163.353 117.499 163.521 117.785C163.689 118.071 163.916 118.298 164.202 118.466C164.488 118.634 164.809 118.718 165.165 118.718ZM174.758 120.628C174.037 120.628 173.396 120.483 172.833 120.191C172.275 119.895 171.836 119.49 171.515 118.977C171.199 118.459 171.041 117.869 171.041 117.207C171.041 116.645 171.167 116.114 171.419 115.615C171.675 115.117 172.043 114.71 172.522 114.394L172.478 115.016C172.117 114.665 171.833 114.295 171.626 113.905C171.424 113.515 171.322 113.076 171.322 112.587C171.322 111.97 171.468 111.432 171.759 110.973C172.056 110.514 172.46 110.159 172.974 109.907C173.492 109.65 174.087 109.522 174.758 109.522C175.429 109.522 176.022 109.65 176.535 109.907C177.053 110.159 177.458 110.514 177.749 110.973C178.046 111.432 178.194 111.97 178.194 112.587C178.194 113.076 178.097 113.515 177.905 113.905C177.712 114.29 177.419 114.665 177.024 115.031V114.409C177.493 114.705 177.853 115.105 178.105 115.608C178.361 116.112 178.49 116.645 178.49 117.207C178.49 117.869 178.329 118.459 178.008 118.977C177.688 119.49 177.246 119.895 176.683 120.191C176.12 120.483 175.479 120.628 174.758 120.628ZM174.758 118.733C175.232 118.733 175.617 118.604 175.913 118.348C176.209 118.091 176.357 117.711 176.357 117.207C176.357 116.709 176.209 116.329 175.913 116.067C175.617 115.801 175.232 115.667 174.758 115.667C174.284 115.667 173.902 115.801 173.61 116.067C173.319 116.329 173.174 116.709 173.174 117.207C173.174 117.711 173.319 118.091 173.61 118.348C173.902 118.604 174.284 118.733 174.758 118.733ZM174.758 113.757C175.143 113.757 175.457 113.663 175.698 113.476C175.94 113.283 176.061 112.987 176.061 112.587C176.061 112.187 175.94 111.891 175.698 111.699C175.457 111.501 175.143 111.402 174.758 111.402C174.373 111.402 174.06 111.501 173.818 111.699C173.576 111.891 173.455 112.187 173.455 112.587C173.455 112.987 173.576 113.283 173.818 113.476C174.06 113.663 174.373 113.757 174.758 113.757Z" fill="#1C1F2C"/>
<rect x="94.3906" y="163.317" width="135.502" height="39.3574" rx="5.80723" fill="#EDF0F8"/>
<path d="M144.357 188.199C143.381 188.199 142.546 187.987 141.85 187.562C141.154 187.133 140.619 186.537 140.244 185.774C139.874 185.01 139.689 184.125 139.689 183.118C139.689 182.111 139.874 181.225 140.244 180.462C140.619 179.699 141.154 179.105 141.85 178.68C142.546 178.251 143.381 178.036 144.357 178.036C145.481 178.036 146.419 178.319 147.168 178.883C147.918 179.443 148.444 180.2 148.747 181.153L147.101 181.607C146.911 180.97 146.588 180.473 146.132 180.116C145.676 179.755 145.084 179.574 144.357 179.574C143.702 179.574 143.155 179.721 142.717 180.015C142.284 180.308 141.956 180.722 141.735 181.255C141.518 181.783 141.407 182.404 141.403 183.118C141.403 183.831 141.511 184.455 141.728 184.988C141.949 185.516 142.279 185.927 142.717 186.221C143.155 186.514 143.702 186.661 144.357 186.661C145.084 186.661 145.676 186.48 146.132 186.119C146.588 185.758 146.911 185.261 147.101 184.629L148.747 185.083C148.444 186.036 147.918 186.794 147.168 187.359C146.419 187.919 145.481 188.199 144.357 188.199ZM152.281 188.199C151.752 188.199 151.305 188.1 150.939 187.901C150.573 187.698 150.296 187.429 150.106 187.095C149.921 186.761 149.828 186.392 149.828 185.99C149.828 185.638 149.887 185.322 150.004 185.042C150.122 184.757 150.302 184.513 150.546 184.31C150.79 184.102 151.106 183.933 151.495 183.802C151.788 183.707 152.132 183.621 152.525 183.545C152.922 183.468 153.351 183.398 153.812 183.335C154.277 183.267 154.763 183.195 155.269 183.118L154.686 183.45C154.69 182.944 154.577 182.571 154.347 182.332C154.117 182.092 153.728 181.973 153.182 181.973C152.852 181.973 152.534 182.05 152.227 182.203C151.919 182.357 151.705 182.621 151.583 182.996L150.092 182.528C150.273 181.91 150.616 181.413 151.122 181.038C151.633 180.663 152.319 180.475 153.182 180.475C153.832 180.475 154.404 180.582 154.896 180.794C155.393 181.006 155.761 181.354 156 181.837C156.131 182.095 156.21 182.359 156.237 182.63C156.264 182.896 156.278 183.188 156.278 183.504V187.996H154.848V186.41L155.086 186.668C154.756 187.196 154.37 187.585 153.927 187.833C153.489 188.077 152.94 188.199 152.281 188.199ZM152.606 186.898C152.976 186.898 153.292 186.833 153.554 186.702C153.816 186.571 154.024 186.41 154.178 186.221C154.336 186.031 154.442 185.853 154.496 185.686C154.582 185.478 154.629 185.241 154.638 184.974C154.652 184.703 154.659 184.484 154.659 184.317L155.16 184.466C154.668 184.543 154.245 184.611 153.893 184.669C153.541 184.728 153.238 184.784 152.985 184.839C152.732 184.888 152.509 184.945 152.315 185.008C152.125 185.076 151.965 185.155 151.834 185.245C151.703 185.335 151.601 185.439 151.529 185.557C151.461 185.674 151.427 185.812 151.427 185.97C151.427 186.151 151.472 186.311 151.563 186.451C151.653 186.587 151.784 186.695 151.956 186.776C152.132 186.858 152.348 186.898 152.606 186.898ZM163.103 187.996V184.473C163.103 184.242 163.087 183.987 163.055 183.707C163.024 183.427 162.949 183.158 162.832 182.901C162.719 182.639 162.547 182.424 162.317 182.257C162.091 182.09 161.784 182.007 161.396 182.007C161.188 182.007 160.982 182.041 160.779 182.108C160.576 182.176 160.391 182.293 160.223 182.461C160.061 182.623 159.93 182.849 159.83 183.138C159.731 183.423 159.681 183.789 159.681 184.236L158.713 183.822C158.713 183.199 158.832 182.634 159.072 182.129C159.316 181.623 159.672 181.221 160.142 180.923C160.612 180.62 161.19 180.469 161.877 180.469C162.419 180.469 162.866 180.559 163.218 180.74C163.57 180.92 163.85 181.151 164.058 181.431C164.266 181.711 164.419 182.009 164.519 182.325C164.618 182.641 164.681 182.942 164.709 183.226C164.74 183.506 164.756 183.734 164.756 183.91V187.996H163.103ZM158.028 187.996V180.679H159.485V182.948H159.681V187.996H158.028ZM169.582 188.199C168.828 188.199 168.184 188.032 167.652 187.698C167.119 187.359 166.71 186.898 166.425 186.316C166.145 185.733 166.003 185.074 165.998 184.337C166.003 183.588 166.15 182.924 166.439 182.345C166.732 181.763 167.148 181.307 167.685 180.977C168.223 180.643 168.862 180.475 169.603 180.475C170.434 180.475 171.136 180.686 171.71 181.106C172.288 181.521 172.665 182.09 172.841 182.813L171.215 183.253C171.089 182.86 170.879 182.555 170.585 182.339C170.292 182.117 169.957 182.007 169.582 182.007C169.158 182.007 168.808 182.108 168.532 182.312C168.257 182.51 168.053 182.786 167.923 183.138C167.792 183.49 167.726 183.89 167.726 184.337C167.726 185.033 167.882 185.595 168.194 186.024C168.505 186.453 168.968 186.668 169.582 186.668C170.016 186.668 170.357 186.569 170.605 186.37C170.858 186.171 171.048 185.884 171.175 185.509L172.841 185.882C172.615 186.627 172.22 187.201 171.656 187.603C171.091 188 170.4 188.199 169.582 188.199ZM177.327 188.199C176.586 188.199 175.936 188.039 175.376 187.718C174.816 187.397 174.378 186.952 174.061 186.383C173.75 185.814 173.594 185.159 173.594 184.419C173.594 183.619 173.747 182.926 174.055 182.339C174.362 181.747 174.789 181.289 175.335 180.963C175.882 180.638 176.514 180.475 177.232 180.475C177.991 180.475 178.635 180.654 179.163 181.011C179.696 181.363 180.091 181.862 180.349 182.508C180.606 183.154 180.703 183.915 180.64 184.791H179.021V184.195C179.016 183.4 178.876 182.82 178.601 182.454C178.325 182.088 177.892 181.905 177.3 181.905C176.631 181.905 176.135 182.113 175.809 182.528C175.484 182.939 175.322 183.542 175.322 184.337C175.322 185.078 175.484 185.652 175.809 186.058C176.135 186.465 176.609 186.668 177.232 186.668C177.634 186.668 177.98 186.58 178.269 186.404C178.562 186.223 178.788 185.963 178.946 185.625L180.559 186.112C180.279 186.772 179.845 187.284 179.258 187.65C178.675 188.016 178.032 188.199 177.327 188.199ZM174.807 184.791V183.558H179.841V184.791H174.807ZM182.287 187.996V178.036H183.92V187.996H182.287Z" fill="#33354D"/>
</g>
<defs>
<filter id="filter0_d_5115_11580" x="0.507305" y="0.714844" width="250.679" height="289.394" filterUnits="userSpaceOnUse" color-interpolation-filters="sRGB">
<feFlood flood-opacity="0" result="BackgroundImageFix"/>
<feColorMatrix in="SourceAlpha" type="matrix" values="0 0 0 0 0 0 0 0 0 0 0 0 0 0 0 0 0 0 127 0" result="hardAlpha"/>
<feOffset dx="-38.7149" dy="38.7149"/>
<feGaussianBlur stdDeviation="16.9377"/>
<feColorMatrix type="matrix" values="0 0 0 0 0.109804 0 0 0 0 0.113725 0 0 0 0 0.211765 0 0 0 0.2 0"/>
<feBlend mode="normal" in2="BackgroundImageFix" result="effect1_dropShadow_5115_11580"/>
<feBlend mode="normal" in="SourceGraphic" in2="effect1_dropShadow_5115_11580" result="shape"/>
</filter>
<linearGradient id="paint0_linear_5115_11580" x1="194.842" y1="114.924" x2="129.233" y2="114.924" gradientUnits="userSpaceOnUse">
<stop stop-color="#4A5FEF"/>
<stop offset="0.777782" stop-color="#6156BE"/>
<stop offset="1" stop-color="#7D56BE"/>
</linearGradient>
</defs>
</svg>
