<svg width="118" height="119" viewBox="0 0 118 119" fill="none" xmlns="http://www.w3.org/2000/svg">
<g filter="url(#filter0_dd_5119_11166)">
<rect x="19" y="15" width="80" height="80" rx="12" fill="white"/>
<path d="M45.4635 39.486C45.0954 39.8622 44.8823 40.448 44.8823 41.2066V68.2649C44.8823 69.0235 45.0954 69.6093 45.4635 69.9855L45.5543 70.0681L61.0843 54.9116V54.5538L45.5543 39.3973L45.4635 39.486Z" fill="url(#paint0_linear_5119_11166)"/>
<path d="M66.2554 59.9661L61.0845 54.9114V54.5535L66.2617 49.4988L66.3776 49.5645L72.5087 52.9705C74.2585 53.9371 74.2585 55.5277 72.5087 56.5004L66.3776 59.9003L66.2554 59.9661V59.9661Z" fill="url(#paint1_linear_5119_11166)"/>
<path d="M66.3773 59.9004L61.0842 54.7325L45.4634 69.9853C46.0445 70.5818 46.9923 70.6537 48.07 70.0572L66.3773 59.9004" fill="url(#paint2_linear_5119_11166)"/>
<path d="M66.3773 49.5645L48.07 39.4077C46.9923 38.8174 46.0445 38.8892 45.4634 39.4857L61.0842 54.7324L66.3773 49.5645Z" fill="url(#paint3_linear_5119_11166)"/>
</g>
<defs>
<filter id="filter0_dd_5119_11166" x="0" y="0.4" width="118" height="118" filterUnits="userSpaceOnUse" color-interpolation-filters="sRGB">
<feFlood flood-opacity="0" result="BackgroundImageFix"/>
<feColorMatrix in="SourceAlpha" type="matrix" values="0 0 0 0 0 0 0 0 0 0 0 0 0 0 0 0 0 0 127 0" result="hardAlpha"/>
<feMorphology radius="1" operator="erode" in="SourceAlpha" result="effect1_dropShadow_5119_11166"/>
<feOffset dy="4"/>
<feGaussianBlur stdDeviation="4.5"/>
<feColorMatrix type="matrix" values="0 0 0 0 0.0745098 0 0 0 0 0.0627451 0 0 0 0 0.133333 0 0 0 0.03 0"/>
<feBlend mode="normal" in2="BackgroundImageFix" result="effect1_dropShadow_5119_11166"/>
<feColorMatrix in="SourceAlpha" type="matrix" values="0 0 0 0 0 0 0 0 0 0 0 0 0 0 0 0 0 0 127 0" result="hardAlpha"/>
<feMorphology radius="1" operator="erode" in="SourceAlpha" result="effect2_dropShadow_5119_11166"/>
<feOffset dy="4.4"/>
<feGaussianBlur stdDeviation="10"/>
<feColorMatrix type="matrix" values="0 0 0 0 0.0745098 0 0 0 0 0.0627451 0 0 0 0 0.133333 0 0 0 0.05 0"/>
<feBlend mode="normal" in2="effect1_dropShadow_5119_11166" result="effect2_dropShadow_5119_11166"/>
<feBlend mode="normal" in="SourceGraphic" in2="effect2_dropShadow_5119_11166" result="shape"/>
</filter>
<linearGradient id="paint0_linear_5119_11166" x1="59.7055" y1="68.5467" x2="39.1776" y2="47.5214" gradientUnits="userSpaceOnUse">
<stop stop-color="#00A0FF"/>
<stop offset="0.0066" stop-color="#00A1FF"/>
<stop offset="0.2601" stop-color="#00BEFF"/>
<stop offset="0.5122" stop-color="#00D2FF"/>
<stop offset="0.7604" stop-color="#00DFFF"/>
<stop offset="1" stop-color="#00E3FF"/>
</linearGradient>
<linearGradient id="paint1_linear_5119_11166" x1="74.7872" y1="54.7307" x2="44.4642" y2="54.7307" gradientUnits="userSpaceOnUse">
<stop stop-color="#FFE000"/>
<stop offset="0.4087" stop-color="#FFBD00"/>
<stop offset="0.7754" stop-color="#FFA500"/>
<stop offset="1" stop-color="#FF9C00"/>
</linearGradient>
<linearGradient id="paint2_linear_5119_11166" x1="63.4991" y1="51.9231" x2="35.6616" y2="23.4111" gradientUnits="userSpaceOnUse">
<stop stop-color="#FF3A44"/>
<stop offset="1" stop-color="#C31162"/>
</linearGradient>
<linearGradient id="paint3_linear_5119_11166" x1="41.5313" y1="78.9874" x2="53.962" y2="66.2557" gradientUnits="userSpaceOnUse">
<stop stop-color="#32A071"/>
<stop offset="0.0685" stop-color="#2DA771"/>
<stop offset="0.4762" stop-color="#15CF74"/>
<stop offset="0.8009" stop-color="#06E775"/>
<stop offset="1" stop-color="#00F076"/>
</linearGradient>
</defs>
</svg>
