<svg width="60" height="60" viewBox="0 0 60 60" fill="none" xmlns="http://www.w3.org/2000/svg">
<g clip-path="url(#clip0_5115_11195)">
<path d="M53.2538 8.07716L54.2321 10.8279C54.2739 10.9457 54.3569 11.039 54.4615 11.0862L56.9053 12.1873C57.2506 12.3429 57.2506 12.893 56.9053 13.0485L54.4615 14.1496C54.3569 14.1967 54.274 14.2901 54.2321 14.4079L53.2538 17.1586C53.1156 17.5472 52.6268 17.5472 52.4887 17.1586L51.5104 14.4079C51.4686 14.2901 51.3856 14.1968 51.2809 14.1496L48.8371 13.0485C48.4919 12.893 48.4919 12.3428 48.8371 12.1873L51.2809 11.0862C51.3856 11.0391 51.4684 10.9457 51.5104 10.8279L52.4887 8.07716C52.6268 7.68856 53.1155 7.68856 53.2538 8.07716Z" fill="url(#paint0_linear_5115_11195)"/>
<path d="M16.6892 0.216211L17.4149 2.25668C17.4459 2.34398 17.5074 2.41324 17.585 2.44828L19.3979 3.26508C19.6541 3.38051 19.6541 3.78855 19.3979 3.90387L17.585 4.72066C17.5074 4.75559 17.4459 4.82484 17.4149 4.91227L16.6892 6.95273C16.5867 7.24101 16.2241 7.24101 16.1216 6.95273L15.396 4.91227C15.3649 4.82496 15.3034 4.7557 15.2258 4.72066L13.4129 3.90387C13.1568 3.78844 13.1568 3.38039 13.4129 3.26508L15.2258 2.44828C15.3034 2.41336 15.3649 2.3441 15.396 2.25668L16.1216 0.216211C16.2241 -0.0720703 16.5867 -0.0720703 16.6892 0.216211Z" fill="url(#paint1_linear_5115_11195)"/>
<path d="M46.3192 4.47677C46.3192 5.2706 45.6758 5.91408 44.8819 5.91408C44.0881 5.91408 43.4445 5.27048 43.4445 4.47677C43.4445 3.68295 44.088 3.03935 44.8819 3.03935C45.6758 3.03935 46.3192 3.68283 46.3192 4.47677Z" fill="url(#paint2_linear_5115_11195)"/>
<path d="M7.08186 12.4834C7.08186 13.656 6.13123 14.6066 4.95865 14.6066C3.78607 14.6066 2.83545 13.656 2.83545 12.4834C2.83545 11.3108 3.78607 10.3602 4.95865 10.3602C6.13123 10.3603 7.08186 11.3108 7.08186 12.4834Z" fill="url(#paint3_linear_5115_11195)"/>
<path d="M29.0054 60C15.6205 60 4.73122 49.1106 4.73122 35.7258C4.73122 22.341 15.6205 11.4516 29.0054 11.4516C42.3904 11.4516 53.2797 22.341 53.2797 35.7258C53.2796 49.1106 42.3903 60 29.0054 60ZM29.0054 13.8085C16.9201 13.8085 7.08822 23.6405 7.08822 35.7257C7.08822 47.8109 16.9202 57.643 29.0054 57.643C41.0906 57.643 50.9227 47.811 50.9227 35.7258C50.9227 23.6406 41.0906 13.8085 29.0054 13.8085Z" fill="url(#paint4_linear_5115_11195)"/>
<path d="M23.5458 30.2916C22.8951 30.2916 22.3674 29.7641 22.3674 29.1132C22.3674 27.3045 20.8959 25.8331 19.0874 25.8331C17.2787 25.8331 15.8073 27.3045 15.8073 29.1132C15.8073 29.7641 15.2796 30.2916 14.6289 30.2916C13.9781 30.2916 13.4504 29.7641 13.4504 29.1132C13.4504 26.0049 15.9792 23.4762 19.0875 23.4762C22.1957 23.4762 24.7245 26.005 24.7245 29.1132C24.7242 29.7641 24.1965 30.2916 23.5458 30.2916Z" fill="url(#paint5_linear_5115_11195)"/>
<path d="M43.3824 30.2916C42.7316 30.2916 42.2039 29.7641 42.2039 29.1132C42.2039 27.3045 40.7325 25.8331 38.9239 25.8331C37.1153 25.8331 35.6439 27.3045 35.6439 29.1132C35.6439 29.7641 35.1162 30.2916 34.4655 30.2916C33.8147 30.2916 33.287 29.7641 33.287 29.1132C33.287 26.0049 35.8158 23.4762 38.924 23.4762C42.0323 23.4762 44.561 26.005 44.561 29.1132C44.5608 29.7641 44.0331 30.2916 43.3824 30.2916Z" fill="url(#paint6_linear_5115_11195)"/>
<path d="M44.6891 34.9846H13.3218C12.671 34.9846 12.1433 35.5122 12.1433 36.1631C12.1433 45.4608 19.7077 53.0252 29.0054 53.0252C38.3032 53.0252 45.8676 45.4608 45.8676 36.1631C45.8676 35.5123 45.3399 34.9846 44.6891 34.9846ZM20.0531 47.5673C21.6615 44.9893 25.1309 43.3081 29.0054 43.3081C32.8799 43.3081 36.3492 44.9893 37.9577 47.5673C35.4905 49.5084 32.381 50.6683 29.0054 50.6683C25.6299 50.6683 22.5204 49.5084 20.0531 47.5673ZM39.7052 45.9452C37.5815 42.9064 33.4968 40.9512 29.0053 40.9512C24.5138 40.9512 20.4287 42.9062 18.3052 45.9449C16.1923 43.6356 14.8143 40.6433 14.5474 37.3416H43.4631C43.1964 40.6434 41.8184 43.6359 39.7052 45.9452Z" fill="url(#paint7_linear_5115_11195)"/>
</g>
<defs>
<linearGradient id="paint0_linear_5115_11195" x1="2.83545" y1="30.1436" x2="57.1643" y2="30.1436" gradientUnits="userSpaceOnUse">
<stop stop-color="#6366F1"/>
<stop offset="0.5" stop-color="#8B5CF6"/>
<stop offset="1" stop-color="#D946EF"/>
</linearGradient>
<linearGradient id="paint1_linear_5115_11195" x1="2.83545" y1="30.1436" x2="57.1643" y2="30.1436" gradientUnits="userSpaceOnUse">
<stop stop-color="#6366F1"/>
<stop offset="0.5" stop-color="#8B5CF6"/>
<stop offset="1" stop-color="#D946EF"/>
</linearGradient>
<linearGradient id="paint2_linear_5115_11195" x1="2.83545" y1="30.1436" x2="57.1643" y2="30.1436" gradientUnits="userSpaceOnUse">
<stop stop-color="#6366F1"/>
<stop offset="0.5" stop-color="#8B5CF6"/>
<stop offset="1" stop-color="#D946EF"/>
</linearGradient>
<linearGradient id="paint3_linear_5115_11195" x1="2.83545" y1="30.1436" x2="57.1643" y2="30.1436" gradientUnits="userSpaceOnUse">
<stop stop-color="#6366F1"/>
<stop offset="0.5" stop-color="#8B5CF6"/>
<stop offset="1" stop-color="#D946EF"/>
</linearGradient>
<linearGradient id="paint4_linear_5115_11195" x1="2.83545" y1="30.1436" x2="57.1643" y2="30.1436" gradientUnits="userSpaceOnUse">
<stop stop-color="#6366F1"/>
<stop offset="0.5" stop-color="#8B5CF6"/>
<stop offset="1" stop-color="#D946EF"/>
</linearGradient>
<linearGradient id="paint5_linear_5115_11195" x1="2.83545" y1="30.1436" x2="57.1643" y2="30.1436" gradientUnits="userSpaceOnUse">
<stop stop-color="#6366F1"/>
<stop offset="0.5" stop-color="#8B5CF6"/>
<stop offset="1" stop-color="#D946EF"/>
</linearGradient>
<linearGradient id="paint6_linear_5115_11195" x1="2.83545" y1="30.1436" x2="57.1643" y2="30.1436" gradientUnits="userSpaceOnUse">
<stop stop-color="#6366F1"/>
<stop offset="0.5" stop-color="#8B5CF6"/>
<stop offset="1" stop-color="#D946EF"/>
</linearGradient>
<linearGradient id="paint7_linear_5115_11195" x1="2.83545" y1="30.1436" x2="57.1643" y2="30.1436" gradientUnits="userSpaceOnUse">
<stop stop-color="#6366F1"/>
<stop offset="0.5" stop-color="#8B5CF6"/>
<stop offset="1" stop-color="#D946EF"/>
</linearGradient>
<clipPath id="clip0_5115_11195">
<rect width="60" height="60" fill="white"/>
</clipPath>
</defs>
</svg>
