<svg width="60" height="60" viewBox="0 0 60 60" fill="none" xmlns="http://www.w3.org/2000/svg">
<path d="M23.501 8.43387C23.425 8.43387 23.3477 8.427 23.2726 8.41189C23.1975 8.39633 23.1238 8.37436 23.0524 8.34506C22.9819 8.31576 22.9142 8.27914 22.8505 8.23703C22.7865 8.194 22.7265 8.14593 22.6725 8.09192C22.6185 8.03653 22.5695 7.97702 22.5274 7.91385C22.4853 7.8493 22.4486 7.7811 22.4193 7.71106C22.39 7.64056 22.3667 7.56686 22.3525 7.49179C22.3374 7.4158 22.3292 7.33935 22.3292 7.26337C22.3292 7.186 22.3374 7.11002 22.3525 7.03357C22.3667 6.9585 22.39 6.8848 22.4193 6.8143C22.4486 6.74426 22.4853 6.67606 22.5274 6.61197C22.5695 6.54834 22.6185 6.48746 22.6725 6.43344C22.7265 6.37988 22.7865 6.33044 22.8505 6.28833C22.9142 6.24622 22.9819 6.20959 23.0524 6.1803C23.1238 6.151 23.1975 6.12903 23.2726 6.11392C23.6535 6.03748 24.0577 6.16153 24.3296 6.43344C24.3836 6.48746 24.4326 6.54834 24.4747 6.61197C24.5173 6.67606 24.5534 6.74426 24.5827 6.8143C24.612 6.8848 24.6345 6.9585 24.6496 7.03357C24.6647 7.11002 24.6729 7.186 24.6729 7.26337C24.6729 7.33935 24.6647 7.4158 24.6496 7.49179C24.6345 7.56686 24.612 7.64056 24.5827 7.71106C24.5534 7.7811 24.5173 7.8493 24.4747 7.91385C24.4326 7.97702 24.3836 8.03653 24.3296 8.09192C24.1117 8.30981 23.8091 8.43387 23.501 8.43387Z" fill="url(#paint0_linear_5115_11210)"/>
<path d="M41.4889 0H18.4392C15.5095 0 13.1255 2.38357 13.1255 5.31371V54.6862C13.1255 57.6163 15.5095 59.9999 18.4392 59.9999H41.4889C44.4186 59.9999 46.8026 57.6163 46.8026 54.6862V5.31371C46.8026 2.38357 44.4186 0 41.4889 0ZM18.4392 2.34375H41.4889C43.1263 2.34375 44.4589 3.67629 44.4589 5.31371V6.09099H29.1051C28.4578 6.09099 27.9332 6.61559 27.9332 7.26286C27.9332 7.90968 28.4578 8.43474 29.1051 8.43474H44.4589V50.3919H15.4692V8.43474H18.5582C19.2055 8.43474 19.7301 7.90968 19.7301 7.26286C19.7301 6.61559 19.2055 6.09099 18.5582 6.09099H15.4692V5.31371C15.4692 3.67629 16.8018 2.34375 18.4392 2.34375ZM44.4589 54.6862C44.4589 56.3236 43.1263 57.6561 41.4889 57.6561H18.4392C16.8018 57.6561 15.4692 56.3236 15.4692 54.6862V52.7356H44.4589V54.6862Z" fill="url(#paint1_linear_5115_11210)"/>
<path d="M27.5184 26.4395H19.2485C18.6012 26.4395 18.0766 25.9149 18.0766 25.2676V16.9981C18.0766 16.3508 18.6012 15.8262 19.2485 15.8262H27.5184C28.1657 15.8262 28.6903 16.3508 28.6903 16.9981V25.2676C28.6903 25.9149 28.1657 26.4395 27.5184 26.4395ZM20.4203 24.0957H26.3466V18.17H20.4203V24.0957Z" fill="url(#paint2_linear_5115_11210)"/>
<path d="M40.6794 26.4395H32.4094C31.7622 26.4395 31.2376 25.9149 31.2376 25.2676V16.9981C31.2376 16.3508 31.7622 15.8262 32.4094 15.8262H40.6794C41.3267 15.8262 41.8513 16.3508 41.8513 16.9981V25.2676C41.8513 25.9149 41.3267 26.4395 40.6794 26.4395ZM33.5813 24.0957H39.5075V18.17H33.5813V24.0957Z" fill="url(#paint3_linear_5115_11210)"/>
<path d="M27.5184 39.4834H19.2485C18.6012 39.4834 18.0766 38.9588 18.0766 38.3116V30.0416C18.0766 29.3948 18.6012 28.8697 19.2485 28.8697H27.5184C28.1657 28.8697 28.6903 29.3948 28.6903 30.0416V38.3116C28.6903 38.9588 28.1657 39.4834 27.5184 39.4834ZM20.4203 37.1397H26.3466V31.2135H20.4203V37.1397Z" fill="url(#paint4_linear_5115_11210)"/>
<path d="M40.6794 39.4834H32.4094C31.7622 39.4834 31.2376 38.9588 31.2376 38.3116V30.0416C31.2376 29.3948 31.7622 28.8697 32.4094 28.8697H40.6794C41.3267 28.8697 41.8513 29.3948 41.8513 30.0416V38.3116C41.8513 38.9588 41.3267 39.4834 40.6794 39.4834ZM33.5813 37.1397H39.5075V31.2135H33.5813V37.1397Z" fill="url(#paint5_linear_5115_11210)"/>
<path d="M31.4093 56.3676H28.5185C27.8712 56.3676 27.3466 55.843 27.3466 55.1957C27.3466 54.5484 27.8712 54.0238 28.5185 54.0238H31.4093C32.0566 54.0238 32.5812 54.5484 32.5812 55.1957C32.5812 55.843 32.0566 56.3676 31.4093 56.3676Z" fill="url(#paint6_linear_5115_11210)"/>
<path d="M33.8314 44.6484H26.097C25.4497 44.6484 24.9251 44.1238 24.9251 43.4765C24.9251 42.8292 25.4497 42.3046 26.097 42.3046H33.8314C34.4782 42.3046 35.0032 42.8292 35.0032 43.4765C35.0032 44.1238 34.4782 44.6484 33.8314 44.6484Z" fill="url(#paint7_linear_5115_11210)"/>
<defs>
<linearGradient id="paint0_linear_5115_11210" x1="13.1255" y1="30.1435" x2="46.8026" y2="30.1435" gradientUnits="userSpaceOnUse">
<stop stop-color="#6366F1"/>
<stop offset="0.5" stop-color="#8B5CF6"/>
<stop offset="1" stop-color="#D946EF"/>
</linearGradient>
<linearGradient id="paint1_linear_5115_11210" x1="13.1255" y1="30.1435" x2="46.8026" y2="30.1435" gradientUnits="userSpaceOnUse">
<stop stop-color="#6366F1"/>
<stop offset="0.5" stop-color="#8B5CF6"/>
<stop offset="1" stop-color="#D946EF"/>
</linearGradient>
<linearGradient id="paint2_linear_5115_11210" x1="13.1255" y1="30.1435" x2="46.8026" y2="30.1435" gradientUnits="userSpaceOnUse">
<stop stop-color="#6366F1"/>
<stop offset="0.5" stop-color="#8B5CF6"/>
<stop offset="1" stop-color="#D946EF"/>
</linearGradient>
<linearGradient id="paint3_linear_5115_11210" x1="13.1255" y1="30.1435" x2="46.8026" y2="30.1435" gradientUnits="userSpaceOnUse">
<stop stop-color="#6366F1"/>
<stop offset="0.5" stop-color="#8B5CF6"/>
<stop offset="1" stop-color="#D946EF"/>
</linearGradient>
<linearGradient id="paint4_linear_5115_11210" x1="13.1255" y1="30.1435" x2="46.8026" y2="30.1435" gradientUnits="userSpaceOnUse">
<stop stop-color="#6366F1"/>
<stop offset="0.5" stop-color="#8B5CF6"/>
<stop offset="1" stop-color="#D946EF"/>
</linearGradient>
<linearGradient id="paint5_linear_5115_11210" x1="13.1255" y1="30.1435" x2="46.8026" y2="30.1435" gradientUnits="userSpaceOnUse">
<stop stop-color="#6366F1"/>
<stop offset="0.5" stop-color="#8B5CF6"/>
<stop offset="1" stop-color="#D946EF"/>
</linearGradient>
<linearGradient id="paint6_linear_5115_11210" x1="13.1255" y1="30.1435" x2="46.8026" y2="30.1435" gradientUnits="userSpaceOnUse">
<stop stop-color="#6366F1"/>
<stop offset="0.5" stop-color="#8B5CF6"/>
<stop offset="1" stop-color="#D946EF"/>
</linearGradient>
<linearGradient id="paint7_linear_5115_11210" x1="13.1255" y1="30.1435" x2="46.8026" y2="30.1435" gradientUnits="userSpaceOnUse">
<stop stop-color="#6366F1"/>
<stop offset="0.5" stop-color="#8B5CF6"/>
<stop offset="1" stop-color="#D946EF"/>
</linearGradient>
</defs>
</svg>
