<svg width="60" height="60" viewBox="0 0 60 60" fill="none" xmlns="http://www.w3.org/2000/svg">
<g clip-path="url(#clip0_5115_11204)">
<path d="M13.9956 58.0721C13.5127 58.0721 13.0695 57.7656 12.8988 57.3137C12.7242 56.8512 12.8676 56.3075 13.2515 55.9948C13.6372 55.6806 14.1904 55.6448 14.6136 55.9058C15.012 56.1517 15.229 56.6301 15.1512 57.0919C15.0569 57.6499 14.5627 58.0721 13.9956 58.0721Z" fill="url(#paint0_linear_5115_11204)"/>
<path d="M58.8189 39.5957C57.9116 38.6884 56.7054 38.1888 55.4225 38.1888C54.8648 38.1888 54.3215 38.2832 53.8111 38.4645C53.6973 38.3621 53.5845 38.2617 53.5413 38.2263C51.6255 36.6594 48.8599 36.7985 47.1082 38.55L41.5725 44.0858C41.1095 44.5485 39.2201 45.6349 38.6705 45.7037H35.2913C34.6987 45.7037 34.4657 45.2523 34.4084 45.1139C34.3599 44.9967 34.2418 44.632 34.4608 44.2685L37.1372 43.4933C38.5842 43.0742 39.7011 41.9581 40.125 40.5077C40.5403 39.0863 40.2101 37.5786 39.2405 36.4737C39.1952 36.4223 39.1488 36.3712 39.1011 36.3208C38.3244 35.5006 36.895 35.4152 34.168 36.0257C32.2467 36.4559 30.0265 37.1745 28.5024 37.7016C25.1934 38.8461 22.627 41.3915 21.4885 44.6064H20.2985V43.6873C20.2985 43.0401 19.7739 42.5154 19.1266 42.5154H1.17187C0.524645 42.5154 0 43.0401 0 43.6873V56.9002C0 57.5474 0.524645 58.0721 1.17187 58.0721H8.67604C9.32327 58.0721 9.84791 57.5474 9.84791 56.9002C9.84791 56.253 9.32327 55.7283 8.67604 55.7283H2.34374V44.8592H17.9545V56.9002C17.9545 57.5474 18.4792 58.0721 19.1264 58.0721C19.7736 58.0721 20.2983 57.5474 20.2983 56.9002V55.9811H23.8008C27.2466 57.1563 30.8065 57.7482 34.4147 57.7482C35.2067 57.7481 36.0013 57.7196 36.7971 57.6625C41.2678 57.3417 45.5464 56.1353 49.514 54.0771C50.4644 53.5841 50.8062 53.3481 51.0051 53.156L58.2647 46.4177C58.2754 46.4079 58.2858 46.3978 58.296 46.3876C59.1851 45.499 59.7889 44.3207 59.953 43.1549C60.1457 41.784 59.743 40.52 58.8189 39.5957ZM48.7653 40.2074C49.5801 39.3925 50.8232 39.2589 51.7789 39.843L46.49 45.1317C46.1212 45.5006 45.6307 45.7038 45.1091 45.7038H43.2689L48.7653 40.2074ZM57.632 42.8288C57.5383 43.495 57.1819 44.1817 56.6531 44.716L49.3993 51.4489C49.3981 51.45 49.3971 51.4509 49.3961 51.452C49.3512 51.4852 49.1405 51.6309 48.4348 51.997C41.0764 55.8141 32.3376 56.4455 24.4601 53.73L24.3787 53.7018C24.2558 53.6594 24.1268 53.6379 23.9967 53.6379H20.2983V46.9506H22.3521C22.884 46.9506 23.3492 46.5923 23.4851 46.078C24.2426 43.2107 26.4045 40.9075 29.2682 39.917C35.5328 37.7506 37.1808 37.9411 37.4706 38.0107C37.4734 38.014 37.4765 38.0174 37.4793 38.0207C37.9228 38.5261 38.0672 39.1932 37.875 39.8505C37.6772 40.5271 37.1576 41.0474 36.4848 41.2423L33.4607 42.1182C33.2709 42.1732 33.0979 42.2753 32.9581 42.4152C31.9965 43.377 31.7224 44.7547 32.2428 46.0111C32.7631 47.2673 33.9312 48.0477 35.291 48.0477H45.1091C46.2568 48.0477 47.3357 47.6007 48.1474 46.7892L53.6835 41.2531C54.148 40.7885 54.7655 40.5327 55.4225 40.5327C56.0793 40.5327 56.6971 40.7887 57.1616 41.2531C57.5642 41.6556 57.7224 42.1858 57.632 42.8288Z" fill="url(#paint1_linear_5115_11204)"/>
<path d="M45.6205 16.5319C45.5631 16.5117 45.5069 16.4917 45.452 16.4722V14.617C45.4691 14.6349 45.4841 14.6529 45.4966 14.6708C45.8685 15.2006 46.5994 15.3286 47.1291 14.9568C47.6589 14.5851 47.7869 13.8542 47.4151 13.3244C47.0184 12.7591 46.3335 12.2772 45.4472 12.067C45.3937 11.4692 44.8916 11.0007 44.2801 11.0007C43.6428 11.0007 43.1243 11.5094 43.1086 12.143C43.0619 12.1558 43.0149 12.1693 42.9678 12.1834C41.7944 12.537 40.909 13.6724 40.8146 14.9447C40.7207 16.2116 41.39 17.3099 42.6053 17.883C42.7275 17.9406 42.8976 18.0132 43.1082 18.0978V20.5512C42.9225 20.4531 42.7621 20.3311 42.6439 20.1844C42.238 19.6803 41.5 19.6009 40.9962 20.0069C40.492 20.4128 40.4127 21.1506 40.8185 21.6547C41.4165 22.397 42.2668 22.8258 43.1188 23.0375C43.1961 23.6098 43.6866 24.051 44.28 24.051C44.8444 24.051 45.3156 23.652 45.4269 23.1206C46.9632 22.8256 48.0385 21.7874 48.2174 20.3798C48.4271 18.7288 47.3592 17.1466 45.6205 16.5319ZM45.8924 20.0846C45.8558 20.3729 45.6742 20.5547 45.452 20.6692V19.0947C45.7877 19.392 45.9321 19.7722 45.8924 20.0846Z" fill="url(#paint2_linear_5115_11204)"/>
<path d="M44.4009 27.9069C38.6768 27.9069 34.02 23.25 34.02 17.526C34.02 11.8019 38.6768 7.14502 44.4009 7.14502C50.125 7.14502 54.7819 11.8019 54.7819 17.526C54.7819 23.25 50.1249 27.9069 44.4009 27.9069ZM44.4009 9.48876C39.9693 9.48876 36.3638 13.0942 36.3638 17.526C36.3638 21.9578 39.9693 25.5632 44.4009 25.5632C48.8327 25.5632 52.4382 21.9577 52.4382 17.526C52.4382 13.0944 48.8327 9.48876 44.4009 9.48876Z" fill="url(#paint3_linear_5115_11204)"/>
<path d="M44.4015 33.1244C35.8004 33.1244 28.803 26.1269 28.803 17.5259C28.803 8.92483 35.8005 1.92749 44.4015 1.92749C53.0024 1.92749 59.9999 8.92495 59.9999 17.5259C59.9999 26.1269 53.0024 33.1244 44.4015 33.1244ZM44.4015 4.27123C37.0928 4.27123 31.1467 10.2173 31.1467 17.5259C31.1467 24.8345 37.0928 30.7806 44.4015 30.7806C51.7101 30.7806 57.6562 24.8346 57.6562 17.5259C57.6562 10.2172 51.7101 4.27123 44.4015 4.27123Z" fill="url(#paint4_linear_5115_11204)"/>
</g>
<defs>
<linearGradient id="paint0_linear_5115_11204" x1="0" y1="30.1341" x2="60.0001" y2="30.1341" gradientUnits="userSpaceOnUse">
<stop stop-color="#6366F1"/>
<stop offset="0.5" stop-color="#8B5CF6"/>
<stop offset="1" stop-color="#D946EF"/>
</linearGradient>
<linearGradient id="paint1_linear_5115_11204" x1="0" y1="30.1341" x2="60.0001" y2="30.1341" gradientUnits="userSpaceOnUse">
<stop stop-color="#6366F1"/>
<stop offset="0.5" stop-color="#8B5CF6"/>
<stop offset="1" stop-color="#D946EF"/>
</linearGradient>
<linearGradient id="paint2_linear_5115_11204" x1="0" y1="30.1341" x2="60.0001" y2="30.1341" gradientUnits="userSpaceOnUse">
<stop stop-color="#6366F1"/>
<stop offset="0.5" stop-color="#8B5CF6"/>
<stop offset="1" stop-color="#D946EF"/>
</linearGradient>
<linearGradient id="paint3_linear_5115_11204" x1="0" y1="30.1341" x2="60.0001" y2="30.1341" gradientUnits="userSpaceOnUse">
<stop stop-color="#6366F1"/>
<stop offset="0.5" stop-color="#8B5CF6"/>
<stop offset="1" stop-color="#D946EF"/>
</linearGradient>
<linearGradient id="paint4_linear_5115_11204" x1="0" y1="30.1341" x2="60.0001" y2="30.1341" gradientUnits="userSpaceOnUse">
<stop stop-color="#6366F1"/>
<stop offset="0.5" stop-color="#8B5CF6"/>
<stop offset="1" stop-color="#D946EF"/>
</linearGradient>
<clipPath id="clip0_5115_11204">
<rect width="60" height="60" fill="white"/>
</clipPath>
</defs>
</svg>
