<svg width="60" height="56" viewBox="0 0 60 56" fill="none" xmlns="http://www.w3.org/2000/svg">
<path d="M56.1496 41.7508V28.5906C56.1496 27.5687 55.3182 26.7374 54.2964 26.7374H54.1042V10.5536C54.1042 9.34947 53.4968 8.24592 52.4797 7.60174L52.1576 7.39772C52.2915 6.99447 52.3059 6.56088 52.1934 6.14088C52.0416 5.57428 51.6782 5.10061 51.1702 4.80729L45.1025 1.30408C43.63 0.454004 41.7401 0.960254 40.8899 2.43295C40.478 3.14627 40.3685 3.97748 40.5818 4.77318C40.795 5.56889 41.3053 6.23393 42.0187 6.64572L48.0864 10.1489C48.4314 10.3481 48.8085 10.4427 49.1808 10.4427C49.9009 10.4427 50.6029 10.0881 51.0202 9.45154L51.2258 9.58186C51.5607 9.79397 51.7607 10.1572 51.7607 10.5537V26.7375H51.5685C50.5466 26.7375 49.7152 27.5689 49.7152 28.5907V35.5737C47.6204 35.874 45.9172 36.7339 44.6406 38.1456C42.6439 40.3534 42.2487 43.331 42.2002 45.0119H39.9206C39.5434 43.2826 38.0011 41.9835 36.1603 41.9835H19.6373C17.7967 41.9835 16.2544 43.2825 15.877 45.0119H15.3458V43.6192C15.3458 41.8298 14.5937 40.1053 13.2823 38.8879C11.9708 37.6704 10.1954 37.0484 8.41078 37.1813L3.14402 37.5733C2.49855 37.6213 2.01434 38.1835 2.06238 38.8288C2.11055 39.4743 2.6748 39.9585 3.31805 39.9105L8.58481 39.5185C9.73793 39.4323 10.8402 39.8186 11.6878 40.6055C12.5354 41.3923 13.0022 42.4626 13.0022 43.6191V44.209C11.7418 42.2636 9.55336 40.9728 7.06781 40.9728C3.17051 40.9728 0 44.1433 0 48.0405C0 51.9376 3.17051 55.1082 7.0677 55.1082C9.88148 55.1082 12.3158 53.455 13.4522 51.0692H16.031C16.4247 51.8848 17.2576 52.4502 18.2223 52.4502H37.5751C38.5398 52.4502 39.3727 51.8848 39.7664 51.0692H41.3913C43.1432 51.0692 44.5683 49.6439 44.5683 47.8922V46.1835C44.5683 46.1571 44.5661 46.1315 44.5643 46.1056C44.5635 46.0933 44.5638 46.0811 44.5627 46.0688C44.5588 46.0294 44.2097 42.1047 46.3871 39.7082C47.215 38.7971 48.3311 38.2102 49.7149 37.9503V41.7508C47.4314 42.9236 45.8645 45.3017 45.8645 48.0405C45.8645 51.9376 49.0351 55.1082 52.9323 55.1082C56.8295 55.1082 60 51.9376 60 48.0405C60 45.3017 58.4331 42.9236 56.1496 41.7508ZM49.1303 8.04541L43.1903 4.6158C43.0191 4.51701 42.8966 4.3574 42.8455 4.16639C42.7943 3.97549 42.8205 3.77592 42.9195 3.60471C43.0564 3.36752 43.3057 3.23475 43.5618 3.23475C43.6873 3.23475 43.8143 3.26662 43.9305 3.33377L49.8704 6.76326L49.1303 8.04541ZM7.0677 52.7644C4.46285 52.7644 2.34375 50.6453 2.34375 48.0405C2.34375 45.4356 4.46285 43.3165 7.0677 43.3165C8.5207 43.3165 9.82219 43.9764 10.6894 45.0116H8.8609C7.2259 45.0116 5.89582 46.3418 5.89582 47.9767V48.104C5.89582 49.739 7.22602 51.069 8.8609 51.069H10.6894C9.82219 52.1045 8.52082 52.7644 7.0677 52.7644ZM15.7881 48.7255L8.86102 48.7254C8.51836 48.7254 8.23969 48.4467 8.23969 48.1041V47.9768C8.23969 47.6342 8.51836 47.3555 8.86102 47.3555H15.7881V48.7255ZM37.6657 46.5803H29.9412C29.4335 46.5803 29.0025 46.9037 28.8397 47.3554C28.795 47.4795 28.7693 47.6127 28.7693 47.7522C28.7693 48.1576 28.9753 48.5149 29.2883 48.7254C29.4749 48.8508 29.6994 48.924 29.9412 48.924H37.6657V50.016C37.6657 50.0659 37.625 50.1065 37.5752 50.1065H18.2223C18.1724 50.1065 18.1318 50.0658 18.1318 50.016V45.8325C18.1318 45.5297 18.2225 45.248 18.377 45.0116C18.6459 44.6001 19.11 44.327 19.6373 44.327H36.1602C36.6875 44.327 37.1516 44.6001 37.4205 45.0116C37.575 45.248 37.6657 45.5297 37.6657 45.8325V46.5803ZM42.2246 47.8922C42.2245 48.3516 41.8508 48.7254 41.3913 48.7254H40.0095V47.3554H42.2246V47.8922ZM52.0587 29.081H53.8058V46.6005C53.8058 47.0821 53.4139 47.4741 52.9323 47.4741C52.4507 47.4741 52.0587 47.0822 52.0587 46.6005V29.081ZM52.9323 52.7644C50.3275 52.7644 48.2082 50.6453 48.2082 48.0405C48.2082 46.6778 48.7889 45.4489 49.7149 44.5859V46.6005C49.7149 48.3746 51.1582 49.8178 52.9323 49.8178C54.7063 49.8178 56.1496 48.3746 56.1496 46.6005V44.5859C57.0756 45.4489 57.6562 46.6779 57.6562 48.0405C57.6562 50.6453 55.5372 52.7644 52.9323 52.7644Z" fill="url(#paint0_linear_5115_11190)"/>
<path d="M26.3542 47.3551C26.2959 47.1945 26.2043 47.0459 26.0824 46.924C25.8105 46.6521 25.4051 46.5267 25.0242 46.6029C24.9504 46.6181 24.8766 46.6404 24.8051 46.6697C24.7348 46.699 24.6668 46.7353 24.6035 46.7775C24.5391 46.8209 24.4793 46.8701 24.4254 46.924C24.3715 46.9779 24.3223 47.0377 24.2789 47.1021C24.2367 47.1654 24.2004 47.2334 24.1711 47.3037C24.1641 47.3207 24.1589 47.3381 24.1527 47.3554C24.1329 47.4106 24.1159 47.4665 24.1043 47.5227C24.0891 47.5989 24.082 47.6762 24.082 47.7524C24.082 48.0606 24.2074 48.3629 24.4254 48.5809C24.4789 48.6345 24.5384 48.6833 24.6023 48.7253C24.6027 48.7255 24.6032 48.7259 24.6035 48.7261C24.6668 48.7683 24.7348 48.8046 24.8051 48.8339C24.8766 48.8632 24.9504 48.8855 25.0242 48.9007C25.1004 48.9159 25.1777 48.9241 25.2539 48.9241C25.4857 48.9241 25.7142 48.8531 25.9059 48.7252C25.9691 48.683 26.0284 48.6348 26.0824 48.5808C26.3004 48.3628 26.4258 48.0605 26.4258 47.7523C26.4258 47.6163 26.4001 47.482 26.3542 47.3551Z" fill="url(#paint1_linear_5115_11190)"/>
<defs>
<linearGradient id="paint0_linear_5115_11190" x1="0" y1="28.1296" x2="60" y2="28.1296" gradientUnits="userSpaceOnUse">
<stop stop-color="#6366F1"/>
<stop offset="0.5" stop-color="#8B5CF6"/>
<stop offset="1" stop-color="#D946EF"/>
</linearGradient>
<linearGradient id="paint1_linear_5115_11190" x1="0" y1="28.1296" x2="60" y2="28.1296" gradientUnits="userSpaceOnUse">
<stop stop-color="#6366F1"/>
<stop offset="0.5" stop-color="#8B5CF6"/>
<stop offset="1" stop-color="#D946EF"/>
</linearGradient>
</defs>
</svg>
