<svg width="70" height="70" viewBox="0 0 70 70" fill="none" xmlns="http://www.w3.org/2000/svg">
<path d="M34.08 60.2164C34.3011 60.5003 34.6407 60.6663 35.0005 60.6663C35.3603 60.6663 35.7 60.5003 35.921 60.2164L60.421 28.7164C60.6945 28.3648 60.7438 27.8881 60.5482 27.4879C60.5265 27.4502 60.5024 27.4139 60.4759 27.3794H60.4852L52.3185 14.5461C52.0988 14.2192 51.7276 14.027 51.3338 14.0363V14.0001H18.6672V14.0363C18.2746 14.0257 17.9036 14.2156 17.6825 14.5403L9.51584 27.3736H9.52518C9.49867 27.4081 9.4745 27.4443 9.45284 27.4821C9.25723 27.8823 9.30657 28.3589 9.58001 28.7106L34.08 60.2164ZM37.1262 16.3334H49.2082L43.1672 25.8266L37.1262 16.3334ZM41.0415 26.8334H28.9595L35.0005 17.3403L41.0415 26.8334ZM26.8338 25.8266L20.7928 16.3334H32.8748L26.8338 25.8266ZM12.8863 29.1668H25.939L32.8503 54.8334L12.8863 29.1668ZM37.195 54.7786L40.9505 41.1834C41.1037 40.5694 40.7394 39.9453 40.1295 39.7766C39.5197 39.6079 38.8865 39.9562 38.7023 40.5616L35.0168 53.9001L28.3563 29.1668H41.6563L40.2167 34.7073C40.0941 35.1167 40.2052 35.5604 40.5063 35.8637C40.8074 36.167 41.2502 36.2815 41.6606 36.162C42.0709 36.0425 42.3831 35.7081 42.4742 35.2906L44.069 29.1668H57.1147L37.195 54.7786ZM57.3749 26.8334H45.2928L51.3338 17.3403L57.3749 26.8334ZM18.6672 17.3403L24.7082 26.8334H12.6262L18.6672 17.3403Z" fill="url(#paint0_linear_5115_12196)"/>
<path d="M1.16667 36.1668H4.66667C5.311 36.1668 5.83333 35.6444 5.83333 35.0001C5.83333 34.3558 5.311 33.8334 4.66667 33.8334H1.16667C0.522334 33.8334 0 34.3558 0 35.0001C0 35.6444 0.522334 36.1668 1.16667 36.1668Z" fill="url(#paint1_linear_5115_12196)"/>
<path d="M65.3328 36.1668H68.8328C69.4772 36.1668 69.9995 35.6444 69.9995 35.0001C69.9995 34.3558 69.4772 33.8334 68.8328 33.8334H65.3328C64.6885 33.8334 64.1662 34.3558 64.1662 35.0001C64.1662 35.6444 64.6885 36.1668 65.3328 36.1668Z" fill="url(#paint2_linear_5115_12196)"/>
<path d="M36.1666 68.8334V65.3334C36.1666 64.6891 35.6442 64.1668 34.9999 64.1668C34.3556 64.1668 33.8332 64.6891 33.8332 65.3334V68.8334C33.8332 69.4778 34.3556 70.0001 34.9999 70.0001C35.6442 70.0001 36.1666 69.4778 36.1666 68.8334Z" fill="url(#paint3_linear_5115_12196)"/>
<path d="M34.9999 5.83333C35.6442 5.83333 36.1666 5.311 36.1666 4.66667V1.16667C36.1666 0.522334 35.6442 0 34.9999 0C34.3556 0 33.8332 0.522334 33.8332 1.16667V4.66667C33.8332 5.311 34.3556 5.83333 34.9999 5.83333Z" fill="url(#paint4_linear_5115_12196)"/>
<path d="M12.7254 55.6244L10.2509 58.1001C9.93569 58.3902 9.80483 58.8296 9.90997 59.2449C10.0151 59.6601 10.3393 59.9843 10.7546 60.0895C11.1698 60.1946 11.6093 60.0638 11.8994 59.7486L14.3739 57.2741C14.816 56.8163 14.8097 56.0887 14.3597 55.6386C13.9096 55.1886 13.182 55.1823 12.7242 55.6244H12.7254Z" fill="url(#paint5_linear_5115_12196)"/>
<path d="M56.4498 14.7174C56.7592 14.7174 57.0559 14.5944 57.2746 14.3756L59.7491 11.8999C60.0643 11.6099 60.1952 11.1704 60.09 10.7552C59.9849 10.3399 59.6607 10.0157 59.2454 9.91055C58.8302 9.80541 58.3907 9.93627 58.1006 10.2514L55.6261 12.7259C55.2926 13.0596 55.1928 13.5613 55.3734 13.9972C55.5539 14.4331 55.9792 14.7173 56.451 14.7174H56.4498Z" fill="url(#paint6_linear_5115_12196)"/>
<path d="M58.9236 60.0904C59.3954 60.0903 59.8206 59.8061 60.0012 59.3702C60.1817 58.9343 60.082 58.4326 59.7484 58.0989L57.2739 55.6244C56.8161 55.1823 56.0885 55.1886 55.6384 55.6386C55.1884 56.0887 55.1821 56.8163 55.6242 57.2741L58.0999 59.7486C58.3183 59.9671 58.6146 60.0901 58.9236 60.0904Z" fill="url(#paint7_linear_5115_12196)"/>
<path d="M12.7254 14.3756C13.1831 14.8177 13.9108 14.8114 14.3608 14.3614C14.8108 13.9114 14.8172 13.1837 14.375 12.7259L11.8994 10.2514C11.6093 9.93627 11.1698 9.80541 10.7546 9.91055C10.3393 10.0157 10.0151 10.3399 9.90997 10.7552C9.80483 11.1704 9.93569 11.6099 10.2509 11.8999L12.7254 14.3756Z" fill="url(#paint8_linear_5115_12196)"/>
<defs>
<linearGradient id="paint0_linear_5115_12196" x1="0" y1="35.1675" x2="69.9995" y2="35.1675" gradientUnits="userSpaceOnUse">
<stop stop-color="#6366F1"/>
<stop offset="0.5" stop-color="#8B5CF6"/>
<stop offset="1" stop-color="#D946EF"/>
</linearGradient>
<linearGradient id="paint1_linear_5115_12196" x1="0" y1="35.1675" x2="69.9995" y2="35.1675" gradientUnits="userSpaceOnUse">
<stop stop-color="#6366F1"/>
<stop offset="0.5" stop-color="#8B5CF6"/>
<stop offset="1" stop-color="#D946EF"/>
</linearGradient>
<linearGradient id="paint2_linear_5115_12196" x1="0" y1="35.1675" x2="69.9995" y2="35.1675" gradientUnits="userSpaceOnUse">
<stop stop-color="#6366F1"/>
<stop offset="0.5" stop-color="#8B5CF6"/>
<stop offset="1" stop-color="#D946EF"/>
</linearGradient>
<linearGradient id="paint3_linear_5115_12196" x1="0" y1="35.1675" x2="69.9995" y2="35.1675" gradientUnits="userSpaceOnUse">
<stop stop-color="#6366F1"/>
<stop offset="0.5" stop-color="#8B5CF6"/>
<stop offset="1" stop-color="#D946EF"/>
</linearGradient>
<linearGradient id="paint4_linear_5115_12196" x1="0" y1="35.1675" x2="69.9995" y2="35.1675" gradientUnits="userSpaceOnUse">
<stop stop-color="#6366F1"/>
<stop offset="0.5" stop-color="#8B5CF6"/>
<stop offset="1" stop-color="#D946EF"/>
</linearGradient>
<linearGradient id="paint5_linear_5115_12196" x1="0" y1="35.1675" x2="69.9995" y2="35.1675" gradientUnits="userSpaceOnUse">
<stop stop-color="#6366F1"/>
<stop offset="0.5" stop-color="#8B5CF6"/>
<stop offset="1" stop-color="#D946EF"/>
</linearGradient>
<linearGradient id="paint6_linear_5115_12196" x1="0" y1="35.1675" x2="69.9995" y2="35.1675" gradientUnits="userSpaceOnUse">
<stop stop-color="#6366F1"/>
<stop offset="0.5" stop-color="#8B5CF6"/>
<stop offset="1" stop-color="#D946EF"/>
</linearGradient>
<linearGradient id="paint7_linear_5115_12196" x1="0" y1="35.1675" x2="69.9995" y2="35.1675" gradientUnits="userSpaceOnUse">
<stop stop-color="#6366F1"/>
<stop offset="0.5" stop-color="#8B5CF6"/>
<stop offset="1" stop-color="#D946EF"/>
</linearGradient>
<linearGradient id="paint8_linear_5115_12196" x1="0" y1="35.1675" x2="69.9995" y2="35.1675" gradientUnits="userSpaceOnUse">
<stop stop-color="#6366F1"/>
<stop offset="0.5" stop-color="#8B5CF6"/>
<stop offset="1" stop-color="#D946EF"/>
</linearGradient>
</defs>
</svg>
