<svg width="70" height="70" viewBox="0 0 70 70" fill="none" xmlns="http://www.w3.org/2000/svg">
<path d="M67.0436 57.2961L65.6004 47.3795C65.4576 46.4222 65.01 45.5365 64.3241 44.8536L61.1332 25.2583C62.5482 24.5076 63.273 22.8921 62.8929 21.336C62.5129 19.78 61.125 18.6805 59.5232 18.6666H48.5566C47.1874 17.4517 45.2321 17.1547 43.564 17.9084C41.8959 18.6621 40.8264 20.3257 40.8332 22.1561L39.9734 22.8433L38.4999 21.3686V17.5C38.5745 15.7167 37.7483 14.0152 36.3007 12.971C38.9843 11.3415 40.2548 8.12468 39.4088 5.10127C38.5628 2.07787 35.8073 -0.0124512 32.6677 -0.0124512C29.5282 -0.0124512 26.7727 2.07787 25.9267 5.10127C25.0807 8.12468 26.3511 11.3415 29.0347 12.971C27.6496 14.0667 26.8392 15.7338 26.8332 17.5V33.8333C26.8394 35.3112 27.7732 36.626 29.1666 37.1186V39.179L23.4791 50.4956C22.7935 51.868 22.8262 53.4897 23.5666 54.8333H18.6666C17.1548 54.8282 15.8117 55.7972 15.3397 57.2335C14.8678 58.6697 15.3744 60.2465 16.5946 61.1391C16.4228 61.7446 16.3349 62.3707 16.3332 63C16.3306 66.2297 18.5401 69.041 21.6789 69.8018C24.8177 70.5626 28.0693 69.0749 29.5457 66.2025C30.1104 66.3907 30.7006 66.491 31.2957 66.5H56.9472C58.3766 68.9807 61.1735 70.3398 64.0072 69.9306C66.8409 69.5213 69.139 67.4264 69.808 64.6426C70.477 61.8588 69.3818 58.9483 67.0436 57.2961ZM60.1602 56.609L58.9609 48.335C58.8779 47.7617 59.0261 47.179 59.373 46.7151C59.7198 46.2512 60.2368 45.9442 60.8101 45.8616C61.4155 45.7679 62.032 45.9378 62.5041 46.3283C62.934 46.6754 63.2159 47.173 63.2927 47.7201L64.5224 56.1703C63.0583 55.8378 61.5257 55.9914 60.1567 56.6078L60.1602 56.609ZM31.4999 57.1666V37.3333H36.1666V57.1666C36.1666 58.4553 35.1219 59.5 33.8332 59.5C32.5446 59.5 31.4999 58.4553 31.4999 57.1666ZM38.4999 57.1666V31.3098C39.7781 31.7221 41.1783 31.4557 42.2157 30.6028L47.5276 26.3503C47.8986 26.1689 48.2438 25.939 48.5542 25.6666H53.9804L57.2296 45.7706C56.7134 46.6459 56.5105 47.6709 56.6544 48.6768L58.0147 58.093C57.6012 58.5152 57.2425 58.988 56.9472 59.5H37.8512C38.2711 58.7937 38.4951 57.9883 38.4999 57.1666ZM58.8384 25.6666L61.7551 43.568C61.3348 43.503 60.9075 43.4975 60.4857 43.5516C60.0749 43.6153 59.675 43.7367 59.2981 43.9121L56.3499 25.6666H58.8384ZM60.3317 21.336C60.5488 21.5577 60.6691 21.8564 60.6666 22.1666C60.6703 22.7438 60.2483 23.2355 59.6772 23.3193C59.6262 23.3268 59.5748 23.3315 59.5232 23.3333H50.0009C50.2218 22.5712 50.2218 21.7621 50.0009 21H59.5232C59.8264 21.0013 60.1169 21.122 60.3317 21.336ZM45.4999 19.8333C46.7886 19.8333 47.8332 20.878 47.8332 22.1666C47.8332 23.4553 46.7886 24.5 45.4999 24.5C44.2112 24.5 43.1666 23.4553 43.1666 22.1666C43.1666 20.878 44.2112 19.8333 45.4999 19.8333ZM27.9999 6.99997C27.9999 4.42264 30.0892 2.3333 32.6666 2.3333C35.2439 2.3333 37.3332 4.42264 37.3332 6.99997C37.3332 9.5773 35.2439 11.6666 32.6666 11.6666C30.0892 11.6666 27.9999 9.5773 27.9999 6.99997ZM35.1376 15.0173C35.7953 15.6763 36.1653 16.5689 36.1666 17.5V19.0353L34.6581 17.5268C34.2003 17.0847 33.4726 17.091 33.0226 17.541C32.5726 17.991 32.5663 18.7187 33.0084 19.1765L39.0634 25.2315C39.4836 25.6514 40.1521 25.6885 40.6162 25.3178L41.5297 24.5875C42.0311 25.4152 42.7765 26.0673 43.6636 26.4541L40.7562 28.7875C40.0541 29.3276 39.0628 29.274 38.4229 28.6615L34.6546 24.8931C34.1968 24.451 33.4691 24.4573 33.0191 24.9073C32.5691 25.3574 32.5628 26.085 33.0049 26.5428L36.1666 29.6963V35H30.3332C29.6889 35 29.1666 34.4776 29.1666 33.8333V17.5C29.165 16.0846 30.016 14.8076 31.3228 14.2643C32.6297 13.7209 34.1352 14.0181 35.1376 15.0173ZM25.5709 51.5421L29.1666 44.3765V54.3375C28.7043 54.7342 28.1065 54.937 27.4982 54.9033C27.3101 54.9009 27.1236 54.8674 26.9464 54.8041C26.8995 54.7879 26.8516 54.775 26.8029 54.7656V54.7586C26.7372 54.7223 26.668 54.6925 26.5964 54.67C25.4571 54.0831 24.9987 52.6912 25.5662 51.5421H25.5709ZM23.3332 67.6666C20.7559 67.6666 18.6666 65.5773 18.6666 63C18.6705 62.6057 18.7254 62.2135 18.8299 61.8333H22.1666V63C22.1666 63.6443 22.6889 64.1666 23.3332 64.1666C23.9776 64.1666 24.4999 63.6443 24.4999 63V62.118L27.1832 64.8013C27.2871 64.9028 27.4084 64.9786 27.5181 65.072C26.7229 66.6558 25.1054 67.6587 23.3332 67.6666ZM31.3016 64.1666C30.3732 64.1664 29.4826 63.7985 28.8247 63.1435L25.5231 59.8418C25.3043 59.623 25.0076 59.5 24.6982 59.5H18.6666C18.0222 59.5 17.4999 58.9776 17.4999 58.3333C17.4999 57.689 18.0222 57.1666 18.6666 57.1666H24.6982C25.6266 57.1669 26.5172 57.5347 27.1751 58.1898L30.4767 61.4915C30.6955 61.7103 30.9922 61.8332 31.3016 61.8333H56.1049C55.9649 62.6048 55.9649 63.3952 56.1049 64.1666H31.3016ZM62.9999 67.6666C60.4226 67.6666 58.3332 65.5773 58.3332 63C58.3332 60.4226 60.4226 58.3333 62.9999 58.3333C65.5772 58.3333 67.6666 60.4226 67.6666 63C67.6666 65.5773 65.5772 67.6666 62.9999 67.6666Z" fill="url(#paint0_linear_5115_12190)"/>
<path d="M63.0001 64.1667C63.6444 64.1667 64.1667 63.6444 64.1667 63C64.1667 62.3557 63.6444 61.8334 63.0001 61.8334C62.3557 61.8334 61.8334 62.3557 61.8334 63C61.8334 63.6444 62.3557 64.1667 63.0001 64.1667Z" fill="url(#paint1_linear_5115_12190)"/>
<path d="M23.3334 25.6667C23.3334 25.0224 22.8111 24.5 22.1667 24.5H10.5001C9.85572 24.5 9.33339 25.0224 9.33339 25.6667C9.33339 26.311 9.85572 26.8334 10.5001 26.8334H22.1667C22.8111 26.8334 23.3334 26.311 23.3334 25.6667Z" fill="url(#paint2_linear_5115_12190)"/>
<path d="M23.3332 33.8332C23.9775 33.8332 24.4999 33.3109 24.4999 32.6666C24.4999 32.0222 23.9775 31.4999 23.3332 31.4999H12.8332C12.1889 31.4999 11.6665 32.0222 11.6665 32.6666C11.6665 33.3109 12.1889 33.8332 12.8332 33.8332H23.3332Z" fill="url(#paint3_linear_5115_12190)"/>
<path d="M25.6666 39.6666C25.6666 39.0223 25.1443 38.4999 24.5 38.4999H14C13.3556 38.4999 12.8333 39.0223 12.8333 39.6666C12.8333 40.3109 13.3556 40.8332 14 40.8332H24.5C25.1443 40.8332 25.6666 40.3109 25.6666 39.6666Z" fill="url(#paint4_linear_5115_12190)"/>
<path d="M4.66667 24.5H1.16667C0.522334 24.5 0 25.0224 0 25.6667C0 26.311 0.522334 26.8334 1.16667 26.8334H4.66667C5.311 26.8334 5.83333 26.311 5.83333 25.6667C5.83333 25.0224 5.311 24.5 4.66667 24.5Z" fill="url(#paint5_linear_5115_12190)"/>
<path d="M8.1668 31.4999H7.00013C6.3558 31.4999 5.83346 32.0222 5.83346 32.6666C5.83346 33.3109 6.3558 33.8332 7.00013 33.8332H8.1668C8.81113 33.8332 9.33346 33.3109 9.33346 32.6666C9.33346 32.0222 8.81113 31.4999 8.1668 31.4999Z" fill="url(#paint6_linear_5115_12190)"/>
<defs>
<linearGradient id="paint0_linear_5115_12190" x1="0" y1="35.1626" x2="70.002" y2="35.1626" gradientUnits="userSpaceOnUse">
<stop stop-color="#6366F1"/>
<stop offset="0.5" stop-color="#8B5CF6"/>
<stop offset="1" stop-color="#D946EF"/>
</linearGradient>
<linearGradient id="paint1_linear_5115_12190" x1="0" y1="35.1626" x2="70.002" y2="35.1626" gradientUnits="userSpaceOnUse">
<stop stop-color="#6366F1"/>
<stop offset="0.5" stop-color="#8B5CF6"/>
<stop offset="1" stop-color="#D946EF"/>
</linearGradient>
<linearGradient id="paint2_linear_5115_12190" x1="0" y1="35.1626" x2="70.002" y2="35.1626" gradientUnits="userSpaceOnUse">
<stop stop-color="#6366F1"/>
<stop offset="0.5" stop-color="#8B5CF6"/>
<stop offset="1" stop-color="#D946EF"/>
</linearGradient>
<linearGradient id="paint3_linear_5115_12190" x1="0" y1="35.1626" x2="70.002" y2="35.1626" gradientUnits="userSpaceOnUse">
<stop stop-color="#6366F1"/>
<stop offset="0.5" stop-color="#8B5CF6"/>
<stop offset="1" stop-color="#D946EF"/>
</linearGradient>
<linearGradient id="paint4_linear_5115_12190" x1="0" y1="35.1626" x2="70.002" y2="35.1626" gradientUnits="userSpaceOnUse">
<stop stop-color="#6366F1"/>
<stop offset="0.5" stop-color="#8B5CF6"/>
<stop offset="1" stop-color="#D946EF"/>
</linearGradient>
<linearGradient id="paint5_linear_5115_12190" x1="0" y1="35.1626" x2="70.002" y2="35.1626" gradientUnits="userSpaceOnUse">
<stop stop-color="#6366F1"/>
<stop offset="0.5" stop-color="#8B5CF6"/>
<stop offset="1" stop-color="#D946EF"/>
</linearGradient>
<linearGradient id="paint6_linear_5115_12190" x1="0" y1="35.1626" x2="70.002" y2="35.1626" gradientUnits="userSpaceOnUse">
<stop stop-color="#6366F1"/>
<stop offset="0.5" stop-color="#8B5CF6"/>
<stop offset="1" stop-color="#D946EF"/>
</linearGradient>
</defs>
</svg>
