<svg width="66" height="66" viewBox="0 0 66 66" fill="none" xmlns="http://www.w3.org/2000/svg">
<path d="M64.8079 7.80192C63.8598 4.82028 62.5748 2.68538 62.5204 2.59566C62.3097 2.24839 61.8759 2.06774 61.483 2.15787C61.3812 2.1811 58.9547 2.74747 56.1557 4.14536C52.377 6.03192 49.7374 8.55054 48.5214 11.4276C47.5092 13.8237 47.3638 16.7529 48.082 19.9889C46.5523 18.2805 44.8316 16.7861 42.9558 15.528C42.383 14.3965 40.8686 11.6107 38.501 8.69914C37.7211 7.74064 36.2211 8.94347 37.009 9.91158C38.6043 11.8738 39.8051 13.8037 40.5562 15.1295L31.7991 13.4223L23.479 2.07375C24.2869 2.08497 25.0976 2.16307 25.9043 2.32129C28.4618 2.82197 30.988 4.12453 33.4141 6.19214C34.3646 7.00244 35.599 5.52764 34.661 4.72855C31.9809 2.44466 29.1591 0.999495 26.2736 0.434328C21.8688 -0.427641 16.7314 0.703894 11.4154 3.70797C7.45326 5.94701 4.80366 8.40634 4.69311 8.50968C4.33863 8.84093 4.28216 9.44255 4.57896 9.82947C4.96748 10.6266 6.43988 13.5021 8.89081 16.5979C10.3356 18.4231 11.8592 19.9853 13.4354 21.269C12.9876 21.6443 12.5518 22.0368 12.13 22.4498C9.87735 24.6532 8.15261 27.2523 7.02027 30.0938C6.01931 32.6044 5.48098 35.3052 5.45094 38.089C5.40127 42.6412 6.72026 47.0315 9.26612 50.7862C11.7531 54.4536 15.2298 57.2694 19.3202 58.9289C20.4649 59.3923 21.1887 57.6119 20.0431 57.1473C18.5611 56.5461 17.1688 55.7758 15.8847 54.8598C16.0489 53.9489 16.4298 50.6709 14.2525 47.2775C13.9477 46.8028 14.8589 44.9387 15.4028 43.8252C15.9644 42.6776 16.544 41.4912 16.8148 40.3741C17.1023 39.1873 16.7787 38.1912 15.8795 37.4922C15.2194 36.9791 14.3554 36.7135 13.594 36.4792C13.0993 36.327 12.5386 36.1548 12.3383 35.9878C11.9257 35.6421 11.252 34.3648 10.7105 33.339C10.1097 32.201 9.53769 31.118 8.95369 30.4511C10.2679 27.33 12.3787 24.5683 15.0223 22.4554C17.4372 24.1004 20.1933 25.2356 23.1229 25.4655C19.7255 28.0979 18.6264 31.4596 20.1973 34.6888C22.0318 38.4595 25.8078 37.8571 29.1391 37.3264C29.7155 37.2343 30.3119 37.1393 30.883 37.068C31.0973 37.0412 31.1618 37.0997 31.2051 37.1377C31.9345 37.7866 31.9128 40.8856 31.8972 43.1487C31.876 46.2789 31.856 49.2357 33.0219 50.7538C33.6167 51.5276 34.4543 51.9234 35.436 51.9234C36.0244 51.9234 36.6637 51.7816 37.3342 51.494C40.2337 50.2523 43.2478 46.5152 42.788 43.5584C42.3862 40.9733 42.1203 39.2654 42.7471 37.8887C43.3267 36.6146 44.7278 35.435 47.4872 33.9298C47.8176 35.4178 47.9842 36.9659 47.967 38.554C47.9081 43.975 45.7412 49.0487 41.8659 52.8398C37.5349 57.0768 31.4478 59.1692 25.4264 58.5055C24.1996 58.3725 23.9877 60.2815 25.2162 60.4169C31.8071 61.1427 38.4709 58.8516 43.2102 54.2145C47.4531 50.0637 49.8251 44.5097 49.8896 38.5745C49.9753 30.705 45.9375 23.7331 39.7907 19.7169C41.0608 18.8113 42.0069 18.0282 42.5316 17.5736C44.7727 19.1814 46.7606 21.162 48.4144 23.4696C52.3846 29.0103 53.9591 35.7647 52.8488 42.4898C50.5557 56.3722 37.3967 65.8022 23.5118 63.5083C16.7863 62.3976 10.8963 58.735 6.92614 53.1943C2.95556 47.654 1.38102 40.8988 2.49173 34.1741C2.6912 32.9641 0.795425 32.6464 0.595153 33.8609C-0.599668 41.0927 1.09423 48.3565 5.36282 54.3146C9.63221 60.2719 15.9668 64.2108 23.1986 65.4057C24.7111 65.6552 26.2251 65.7786 27.7288 65.7786C33.4125 65.7786 38.9416 64.0138 43.6532 60.6376C49.612 56.3682 53.5514 50.0348 54.7454 42.803C55.6206 37.5038 54.9433 32.1874 52.8396 27.3801C53.8105 27.0937 55.4628 26.5377 57.2724 25.6341C61.0504 23.7476 63.6904 21.2289 64.906 18.3518C66.1228 15.4739 66.0888 11.8258 64.8079 7.80192ZM9.00977 34.2362C9.72514 35.5924 10.4017 36.8742 11.1046 37.4622C11.6025 37.8783 12.2954 38.0914 13.0288 38.3169C14.9078 38.8945 15.1261 39.1781 14.9458 39.9211C14.7247 40.8347 14.1912 41.9258 13.6757 42.9804C12.6828 45.012 11.7451 46.9298 12.6339 48.3157C13.8944 50.28 14.1103 52.2138 14.0887 53.4166C8.36249 48.2532 6.03093 40.0977 8.16382 32.6853C8.4466 33.1699 8.74381 33.7331 9.00977 34.2362ZM55.5229 15.3438L52.7908 8.72277C54.1202 7.47949 55.6627 6.54382 56.9764 5.88492C58.0956 5.32336 59.1602 4.90359 60.0142 4.60599L55.5229 15.3438ZM61.7866 5.3514C62.1683 6.17171 62.6109 7.22955 62.989 8.42517C63.4036 9.73735 63.7841 11.3636 63.8598 13.0599L57.4571 15.7014L61.7866 5.3514ZM50.2922 12.1763C50.5758 11.5057 50.9423 10.8841 51.3656 10.3101L54.4758 17.8463L51.6849 24.5202C51.2927 23.6883 50.8309 22.5956 50.4392 21.3543C49.6529 18.8689 48.9896 15.2584 50.2922 12.1763ZM56.4513 23.8946C55.3743 24.4353 54.3465 24.8446 53.5093 25.1398L56.4057 18.2157L63.7781 15.1735C63.6711 15.9994 63.4673 16.8182 63.1352 17.6032C61.833 20.6854 58.7817 22.7262 56.4513 23.8946ZM21.7855 23.3474C21.4458 23.2809 21.1106 23.1996 20.7801 23.1071L31.4202 15.3077L40.1813 17.0152C36.9897 19.5298 29.2228 24.8046 21.7855 23.3474ZM12.0615 17.3325C9.78602 14.8799 8.11816 12.2576 7.16046 10.5785L18.3096 12.7522L12.0615 17.3325ZM14.0306 4.50585L18.6953 10.8685L7.47409 8.68112C8.8868 7.5656 11.2188 5.89093 14.0306 4.50585ZM21.4767 11.4108L15.8214 3.69675C17.5145 3.00101 19.3318 2.45347 21.1947 2.20994L29.0181 12.8804L21.4767 11.4108ZM20.8783 13.2529L28.8519 14.807L18.6184 22.308C16.6886 21.4168 14.9518 20.1355 13.4322 18.7111L20.8783 13.2529ZM46.9649 32.0264C43.499 33.8729 41.8019 35.3233 40.9968 37.0925C40.132 38.9922 40.4488 41.0314 40.8874 43.8536C41.1466 45.5179 39.1687 48.6169 36.5772 49.7268C35.6183 50.1374 34.9353 50.0889 34.5464 49.5822C33.7826 48.5881 33.8034 45.5792 33.8198 43.1619C33.8427 39.8174 33.8627 36.929 32.4828 35.7014C31.9865 35.26 31.3517 35.0733 30.6463 35.1598C30.0419 35.2351 29.4287 35.3329 28.8363 35.4274C25.3023 35.9906 23.0785 36.2161 21.9265 33.8477C20.06 30.0117 23.8383 27.1702 25.5494 26.1268C25.8979 25.9145 26.2211 25.6642 26.5215 25.3854C30.6571 24.8911 34.5648 23.1167 38.0472 20.8941C42.2224 23.3887 45.4276 27.3364 46.9649 32.0264Z" fill="url(#paint0_linear_5115_12202)"/>
<defs>
<linearGradient id="paint0_linear_5115_12202" x1="0.22168" y1="33.1231" x2="65.7943" y2="33.1231" gradientUnits="userSpaceOnUse">
<stop stop-color="#6366F1"/>
<stop offset="0.5" stop-color="#8B5CF6"/>
<stop offset="1" stop-color="#D946EF"/>
</linearGradient>
</defs>
</svg>
