<svg width="636" height="636" viewBox="0 0 636 636" fill="none" xmlns="http://www.w3.org/2000/svg">
<rect width="636" height="636" rx="8" fill="url(#paint0_linear_5115_11861)"/>
<path opacity="0.3" d="M318 572C460.489 572 576 565.257 576 556.938C576 548.619 460.489 541.876 318 541.876C175.511 541.876 60 548.619 60 556.938C60 565.257 175.511 572 318 572Z" fill="#1C1F2C"/>
<path d="M388.424 239.864L391.698 231.535C392.078 230.564 392.164 229.503 391.947 228.483C391.729 227.464 391.217 226.531 390.474 225.8C389.553 224.892 388.438 224.205 387.214 223.791L377.62 220.557L372.51 225.88C370.847 231.575 380.787 236.325 380.787 236.325L388.424 239.864Z" fill="#F6B8A4"/>
<path d="M376.156 515.145H228.094C225.327 515.145 223.064 518.046 223.064 521.585C223.064 525.124 225.327 528.011 228.094 528.011H376.156C378.924 528.011 381.186 525.111 381.186 521.585C381.186 518.059 378.924 515.145 376.156 515.145Z" fill="#2E3242"/>
<path d="M374.679 234.289C373.313 234.629 372.137 235.496 371.409 236.7C370.681 237.905 370.46 239.348 370.793 240.716L427.399 470.132C427.739 471.501 428.608 472.678 429.816 473.407C431.023 474.135 432.47 474.355 433.84 474.017C435.206 473.677 436.381 472.81 437.109 471.606C437.837 470.401 438.059 468.958 437.725 467.59L381.159 238.201C380.994 237.516 380.695 236.872 380.279 236.304C379.863 235.736 379.338 235.256 378.736 234.892C378.133 234.528 377.464 234.288 376.768 234.184C376.071 234.081 375.361 234.116 374.679 234.289Z" fill="#1C1F2C"/>
<path d="M425.763 475.294C417.174 477.989 409.383 482.762 403.082 489.189C396.78 495.616 392.161 503.498 389.635 512.138C389.082 514.001 388.972 515.968 389.313 517.881C389.654 519.794 390.437 521.602 391.601 523.159C392.764 524.716 394.274 525.98 396.012 526.85C397.75 527.72 399.668 528.173 401.611 528.171H441.837V482.36C441.838 480.972 441.513 479.604 440.889 478.365C440.264 477.126 439.358 476.051 438.242 475.226C437.126 474.402 435.832 473.851 434.464 473.618C433.096 473.384 431.693 473.476 430.367 473.884L425.763 475.294Z" fill="#2E3242"/>
<path d="M399.149 510.049H228.028C224.927 510.049 222.386 513.295 222.386 517.261C222.386 521.226 224.927 524.472 228.028 524.472H399.149C402.25 524.472 404.791 521.226 404.791 517.261C404.791 513.295 402.25 510.049 399.149 510.049Z" fill="#2E3242"/>
<path d="M421.771 425.212C419.596 425.753 417.725 427.134 416.565 429.051C415.406 430.968 415.053 433.267 415.583 435.444L427.732 484.675C428.277 486.847 429.658 488.717 431.574 489.876C433.491 491.034 435.788 491.389 437.965 490.862C440.141 490.318 442.012 488.935 443.172 487.015C444.331 485.096 444.684 482.795 444.153 480.617L432.004 431.386C431.459 429.214 430.078 427.345 428.161 426.189C426.243 425.032 423.946 424.681 421.771 425.212Z" fill="#2E3242"/>
<path d="M430.713 450.173C429.977 450.356 429.345 450.823 428.953 451.471C428.561 452.12 428.443 452.897 428.624 453.633L432.722 470.265C432.905 471.001 433.371 471.635 434.019 472.028C434.667 472.422 435.444 472.544 436.182 472.367C436.916 472.179 437.547 471.709 437.938 471.059C438.329 470.409 438.449 469.632 438.271 468.894L434.159 452.236C433.971 451.508 433.504 450.884 432.859 450.498C432.214 450.112 431.443 449.996 430.713 450.173Z" fill="#2E3242"/>
<path d="M430.061 489.146C421.818 491.705 414.627 496.866 409.565 503.856C404.503 510.847 401.843 519.289 401.984 527.918C402.014 529.269 402.357 530.594 402.986 531.79C403.616 532.985 404.514 534.018 405.61 534.807C406.707 535.597 407.971 536.121 409.305 536.338C410.638 536.556 412.004 536.461 413.294 536.061L470.393 518.378C471.685 517.984 472.867 517.294 473.847 516.363C474.826 515.432 475.575 514.286 476.035 513.016C476.494 511.746 476.652 510.386 476.495 509.044C476.338 507.702 475.87 506.415 475.13 505.285C470.372 498.085 463.409 492.62 455.283 489.711C447.158 486.801 438.308 486.603 430.061 489.146Z" fill="white"/>
<path d="M430.061 489.146C421.818 491.705 414.627 496.866 409.565 503.856C404.503 510.847 401.843 519.289 401.984 527.918C402.014 529.269 402.357 530.594 402.986 531.79C403.616 532.985 404.514 534.018 405.61 534.807C406.707 535.597 407.971 536.121 409.305 536.338C410.638 536.556 412.004 536.461 413.294 536.061L470.393 518.378C471.685 517.984 472.867 517.294 473.847 516.363C474.826 515.432 475.575 514.286 476.035 513.016C476.494 511.746 476.652 510.386 476.495 509.044C476.338 507.702 475.87 506.415 475.13 505.285C470.372 498.085 463.409 492.62 455.283 489.711C447.158 486.801 438.308 486.603 430.061 489.146Z" fill="#1C1F2C"/>
<path d="M462.849 548.225C474.453 536.622 474.453 517.81 462.849 506.207C451.245 494.603 432.431 494.603 420.827 506.206C409.224 517.81 409.224 536.622 420.827 548.225C432.431 559.828 451.245 559.828 462.849 548.225Z" fill="#2E3242"/>
<path d="M457.843 543.22C466.682 534.381 466.682 520.051 457.843 511.212C449.004 502.373 434.672 502.373 425.833 511.212C416.994 520.051 416.994 534.381 425.833 543.22C434.672 552.058 449.004 552.058 457.843 543.22Z" fill="#EDF0F8"/>
<path d="M454.018 529.215C455.109 522.498 450.547 516.17 443.83 515.079C437.113 513.989 430.783 518.55 429.693 525.267C428.603 531.984 433.164 538.313 439.881 539.403C446.599 540.493 452.928 535.932 454.018 529.215Z" fill="#1C1F2C"/>
<path d="M224.608 527.226H196.731C195.418 527.228 194.121 526.933 192.939 526.362L167.803 514.267C166.585 513.681 165.52 512.821 164.691 511.754C163.863 510.687 163.293 509.442 163.027 508.117C162.762 506.792 162.807 505.424 163.16 504.12C163.513 502.816 164.164 501.612 165.062 500.602C169.796 495.324 175.854 491.406 182.609 489.251C189.364 487.096 196.572 486.783 203.488 488.343C210.405 489.904 216.779 493.283 221.954 498.13C227.129 502.977 230.916 509.117 232.925 515.917C233.323 517.221 233.411 518.6 233.181 519.944C232.952 521.288 232.412 522.559 231.604 523.658C230.797 524.756 229.743 525.651 228.529 526.27C227.314 526.89 225.972 527.217 224.608 527.226Z" fill="#2E3242"/>
<path d="M215.747 548.238C227.351 536.635 227.351 517.823 215.747 506.219C204.143 494.616 185.33 494.616 173.726 506.219C162.122 517.822 162.122 536.635 173.726 548.238C185.33 559.841 204.143 559.841 215.747 548.238Z" fill="#2E3242"/>
<path d="M210.741 543.233C219.581 534.394 219.581 520.063 210.741 511.225C201.902 502.386 187.571 502.386 178.731 511.225C169.892 520.063 169.892 534.394 178.731 543.233C187.571 552.071 201.902 552.071 210.741 543.233Z" fill="#EDF0F8"/>
<path d="M206.911 529.216C208.001 522.5 203.44 516.171 196.723 515.08C190.005 513.99 183.676 518.551 182.586 525.268C181.495 531.985 186.057 538.314 192.774 539.404C199.491 540.494 205.821 535.933 206.911 529.216Z" fill="#1C1F2C"/>
<path d="M240.749 536.075H204.036C202.631 536.054 201.289 535.487 200.296 534.493C199.302 533.499 198.734 532.158 198.714 530.752C198.734 529.347 199.302 528.005 200.296 527.012C201.289 526.018 202.631 525.451 204.036 525.43H240.749C242.154 525.451 243.496 526.018 244.49 527.012C245.484 528.005 246.051 529.347 246.072 530.752C246.054 532.159 245.488 533.502 244.494 534.497C243.499 535.491 242.155 536.057 240.749 536.075Z" fill="#2E3242"/>
<path d="M250.21 521.585H194.536C193.04 521.588 191.607 522.184 190.55 523.241C189.493 524.298 188.897 525.731 188.894 527.226C188.901 528.721 189.497 530.151 190.554 531.208C191.61 532.264 193.041 532.861 194.536 532.868H250.17C251.664 532.861 253.095 532.264 254.152 531.208C255.208 530.151 255.805 528.721 255.812 527.226C255.809 525.738 255.219 524.311 254.17 523.255C253.121 522.199 251.698 521.599 250.21 521.585Z" fill="white"/>
<path d="M250.21 521.585H194.536C193.04 521.588 191.607 522.184 190.55 523.241C189.493 524.298 188.897 525.731 188.894 527.226C188.901 528.721 189.497 530.151 190.554 531.208C191.61 532.264 193.041 532.861 194.536 532.868H250.17C251.664 532.861 253.095 532.264 254.152 531.208C255.208 530.151 255.805 528.721 255.812 527.226C255.809 525.738 255.219 524.311 254.17 523.255C253.121 522.199 251.698 521.599 250.21 521.585Z" fill="#1C1F2C"/>
<path opacity="0.2" d="M209.811 529.129H198.527C198.023 529.129 197.539 528.929 197.182 528.572C196.825 528.215 196.625 527.731 196.625 527.226C196.624 526.721 196.825 526.235 197.181 525.876C197.537 525.517 198.021 525.314 198.527 525.31H209.851C210.358 525.314 210.844 525.517 211.202 525.875C211.561 526.234 211.764 526.719 211.767 527.226C211.766 527.48 211.713 527.731 211.614 527.965C211.514 528.198 211.369 528.41 211.187 528.587C211.005 528.764 210.79 528.903 210.554 528.996C210.317 529.089 210.065 529.134 209.811 529.129Z" fill="white"/>
<path opacity="0.2" d="M374.839 518.905H334.254C333.63 518.902 333.033 518.691 332.592 518.316C332.151 517.942 331.902 517.435 331.898 516.905C331.898 516.375 332.147 515.866 332.588 515.491C333.03 515.116 333.629 514.905 334.254 514.905H374.839C375.464 514.905 376.065 515.116 376.509 515.491C376.953 515.865 377.204 516.374 377.207 516.905C377.204 517.437 376.953 517.946 376.509 518.32C376.065 518.695 375.464 518.905 374.839 518.905Z" fill="white"/>
<path d="M380.706 236.95C380.706 238.44 380.265 239.896 379.437 241.134C378.61 242.373 377.433 243.338 376.057 243.908C374.681 244.478 373.167 244.627 371.706 244.336C370.245 244.046 368.903 243.329 367.849 242.275C366.796 241.222 366.079 239.88 365.788 238.419C365.498 236.958 365.647 235.444 366.217 234.068C366.787 232.692 367.752 231.516 368.991 230.688C370.229 229.861 371.685 229.419 373.175 229.419C375.172 229.419 377.088 230.213 378.501 231.625C379.913 233.037 380.706 234.953 380.706 236.95Z" fill="#1C1F2C"/>
<path d="M385.098 244.282L375.57 240.29C374.555 239.869 373.748 239.062 373.326 238.047C372.905 237.032 372.903 235.891 373.321 234.874C373.743 233.859 374.549 233.052 375.564 232.63C376.58 232.209 377.721 232.207 378.737 232.626L388.265 236.617C389.278 237.041 390.083 237.848 390.504 238.862C390.925 239.877 390.929 241.016 390.514 242.033C390.087 243.044 389.28 243.846 388.266 244.267C387.253 244.688 386.115 244.693 385.098 244.282Z" fill="#1C1F2C"/>
<path d="M425.696 457.598C423.638 457.588 421.599 457.2 419.682 456.454C417.645 455.718 415.785 454.566 414.22 453.069C412.654 451.573 411.419 449.766 410.593 447.765C408.957 443.521 409.263 438.89 409.569 434.459L409.688 432.57C410.447 419.677 408.278 408.926 403.222 400.636C401.361 397.73 399.307 394.952 397.074 392.32C395.93 390.91 394.745 389.446 393.628 387.956C385.307 376.808 380.24 363.57 378.99 349.716C377.952 337.621 379.922 325.419 381.825 313.631C382.437 309.839 383.075 305.913 383.594 302.068C385.311 289.374 386.642 270.773 378.338 255.831L379.602 255.126C388.119 270.454 386.775 289.361 385.032 302.254C384.513 306.126 383.874 310.065 383.262 313.857C381.372 325.566 379.416 337.674 380.441 349.583C381.642 363.167 386.589 376.152 394.732 387.091C395.836 388.555 397.007 390.005 398.152 391.402C400.421 394.086 402.511 396.918 404.406 399.878C409.609 408.447 411.857 419.477 411.059 432.663L410.939 434.566C410.647 438.877 410.34 443.334 411.871 447.286C412.661 449.073 413.796 450.686 415.211 452.033C416.626 453.38 418.293 454.434 420.117 455.135C421.941 455.836 423.885 456.17 425.838 456.118C427.791 456.065 429.714 455.628 431.498 454.83L432.15 456.161C430.139 457.134 427.93 457.626 425.696 457.598Z" fill="#2E3242"/>
<path d="M291.393 124.318C264.235 134.164 237.116 120.738 211.834 122.348C186.551 123.958 165.261 140.151 160.218 146.804C171.302 148.574 177.742 164.328 177.742 164.328C177.742 164.328 201.282 141.708 225.806 139.047C265.113 134.709 276.157 143.598 295.931 134.709L291.393 124.318Z" fill="#2E3242"/>
<path d="M348.691 470.544L356.502 501.067L371.126 497.475L363.315 466.952L348.691 470.544Z" fill="#F6B8A4"/>
<path d="M371.419 491.248L354.905 494.827C354.648 494.879 354.419 495.025 354.264 495.236C354.109 495.448 354.039 495.71 354.067 495.971L355.212 508.093C355.331 508.688 355.673 509.216 356.167 509.569C356.661 509.923 357.271 510.075 357.873 509.995C362.597 509.995 364.633 508 371.179 506.563C378.844 504.886 383.781 507.374 391.911 503.063C396.834 500.402 395.064 495.08 392.723 495.665C385.284 497.688 378.91 494.029 374.945 491.567C373.854 491.012 372.592 490.897 371.419 491.248Z" fill="#1C1F2C"/>
<path opacity="0.2" d="M348.691 470.544L352.71 486.285L367.347 482.692L363.315 466.952L348.691 470.544Z" fill="#1C1F2C"/>
<path d="M322.624 352.922C305.206 301.669 291.394 241.155 291.394 241.155L341.107 238.015C341.107 238.015 348.425 316.518 352.244 352.683C356.236 390.298 368.558 475.228 368.558 475.228L346.137 479.765C346.137 479.765 325.099 399.825 322.624 352.922Z" fill="#2E3242"/>
<path opacity="0.2" d="M314.294 269.695L302.318 284.611C305.392 296.12 308.972 309.053 312.964 322.279C315.186 304.842 315.632 287.223 314.294 269.695Z" fill="#1C1F2C"/>
<path d="M368.225 478.421L347.667 482.932C347.259 483.022 346.831 482.958 346.467 482.752C346.104 482.545 345.829 482.211 345.698 481.814L343.422 475.161C343.343 474.936 343.313 474.697 343.333 474.459C343.353 474.222 343.423 473.991 343.538 473.782C343.654 473.574 343.813 473.392 344.004 473.249C344.195 473.106 344.414 473.005 344.646 472.953L366.961 467.697C367.202 467.64 367.452 467.637 367.694 467.687C367.936 467.736 368.164 467.838 368.363 467.985C368.562 468.132 368.726 468.32 368.845 468.537C368.964 468.754 369.034 468.994 369.05 469.24L369.569 476.612C369.604 477.025 369.487 477.437 369.24 477.771C368.992 478.104 368.632 478.335 368.225 478.421Z" fill="#2E3242"/>
<path opacity="0.1" d="M368.225 478.421L347.667 482.932C347.259 483.022 346.831 482.958 346.467 482.752C346.104 482.545 345.829 482.211 345.698 481.814L343.422 475.161C343.343 474.936 343.313 474.697 343.333 474.459C343.353 474.222 343.423 473.991 343.538 473.782C343.654 473.574 343.813 473.392 344.004 473.249C344.195 473.106 344.414 473.005 344.646 472.953L366.961 467.697C367.202 467.64 367.452 467.637 367.694 467.687C367.936 467.736 368.164 467.838 368.363 467.985C368.562 468.132 368.726 468.32 368.845 468.537C368.964 468.754 369.034 468.994 369.05 469.24L369.569 476.612C369.604 477.025 369.487 477.437 369.24 477.771C368.992 478.104 368.632 478.335 368.225 478.421Z" fill="white"/>
<path d="M266.71 469.48L265.792 500.988L280.868 500.775L281.786 469.267L266.71 469.48Z" fill="#F6B8A4"/>
<path d="M281.227 494.321L265.193 494.548C264.933 494.547 264.682 494.643 264.49 494.818C264.298 494.993 264.179 495.234 264.155 495.492L262.825 507.601C262.791 507.912 262.823 508.228 262.921 508.526C263.018 508.824 263.178 509.098 263.389 509.33C263.601 509.561 263.859 509.745 264.147 509.869C264.435 509.993 264.746 510.054 265.06 510.049C270.383 509.876 272.073 509.437 278.779 509.33C286.63 509.211 288.333 510.195 297.541 510.049C303.117 509.956 304.008 504.327 301.613 503.822C295.292 502.55 289.418 499.636 284.581 495.373C283.638 494.607 282.439 494.23 281.227 494.321Z" fill="#1C1F2C"/>
<path opacity="0.2" d="M266.71 469.493L266.231 485.726L281.307 485.513L281.786 469.28L266.71 469.493Z" fill="#1C1F2C"/>
<path d="M273.044 354.492C277.288 300.564 271.074 268.87 277.342 242.086L322.584 239.292C322.584 239.292 311.193 321.108 303.436 357.034C295.678 392.959 284.74 477.344 284.74 477.344L262.505 477.623C262.505 477.623 262.398 396.565 273.044 354.492Z" fill="#2E3242"/>
<path d="M284.674 481.309L263.649 481.641C263.211 481.649 262.786 481.487 262.464 481.19C262.142 480.892 261.947 480.482 261.919 480.045L261.454 473.099C261.439 472.871 261.471 472.642 261.547 472.427C261.622 472.211 261.741 472.013 261.895 471.844C262.049 471.676 262.235 471.539 262.443 471.444C262.65 471.349 262.875 471.296 263.104 471.289L286.004 470.571C286.259 470.565 286.512 470.616 286.745 470.719C286.977 470.823 287.184 470.978 287.35 471.171C287.515 471.365 287.636 471.593 287.702 471.839C287.769 472.085 287.779 472.343 287.734 472.593L286.35 479.925C286.276 480.315 286.067 480.666 285.761 480.919C285.455 481.172 285.07 481.309 284.674 481.309Z" fill="#2E3242"/>
<path opacity="0.1" d="M284.674 481.309L263.649 481.641C263.211 481.649 262.786 481.487 262.464 481.19C262.142 480.892 261.947 480.482 261.919 480.045L261.454 473.099C261.439 472.871 261.471 472.642 261.547 472.427C261.622 472.211 261.741 472.013 261.895 471.844C262.049 471.676 262.235 471.539 262.443 471.444C262.65 471.349 262.875 471.296 263.104 471.289L286.004 470.571C286.259 470.565 286.512 470.616 286.745 470.719C286.977 470.823 287.184 470.978 287.35 471.171C287.515 471.365 287.636 471.593 287.702 471.839C287.769 472.085 287.779 472.343 287.734 472.593L286.35 479.925C286.276 480.315 286.067 480.666 285.761 480.919C285.455 481.172 285.07 481.309 284.674 481.309Z" fill="white"/>
<path d="M338.339 148.853C339.962 152.486 341.426 156.158 342.956 159.817C344.486 163.476 345.91 167.188 347.307 170.901C348.704 174.613 350.115 178.339 351.446 182.091C352.776 185.843 354.107 189.609 355.358 193.494L354.719 192.163C356.232 194.959 357.967 197.629 359.909 200.147C361.931 202.808 364.1 205.469 366.389 208.13C368.678 210.791 371.02 213.333 373.428 215.807C374.639 217.045 375.85 218.282 377.061 219.4C377.659 219.972 378.258 220.518 378.791 220.983L379.456 221.555C379.456 221.555 379.562 221.662 379.389 221.649H379.203H378.804H378.484C378.298 221.633 378.112 221.633 377.926 221.649C377.681 221.695 377.441 221.762 377.207 221.848C376.869 221.964 376.551 222.13 376.262 222.34C376.749 221.982 377.303 221.725 377.891 221.585C378.479 221.446 379.09 221.427 379.685 221.529C380.281 221.632 380.85 221.854 381.358 222.182C381.866 222.51 382.302 222.937 382.641 223.438C382.979 223.939 383.213 224.503 383.327 225.097C383.442 225.69 383.436 226.301 383.309 226.892C383.182 227.483 382.936 228.042 382.587 228.536C382.238 229.03 381.793 229.448 381.279 229.765C380.936 229.998 380.565 230.186 380.174 230.324C379.886 230.434 379.587 230.514 379.283 230.563C379.045 230.602 378.805 230.624 378.564 230.63H378.085C377.839 230.626 377.594 230.599 377.353 230.55L376.834 230.444C376.384 230.334 375.94 230.2 375.504 230.044C374.812 229.792 374.28 229.552 373.774 229.313C372.763 228.834 371.858 228.355 370.98 227.862C369.25 226.878 367.613 225.853 366.03 224.775C362.849 222.633 359.829 220.331 356.901 217.91C353.939 215.449 351.11 212.833 348.425 210.073C345.537 207.165 342.939 203.983 340.667 200.572C340.552 200.401 340.454 200.218 340.375 200.027L340.029 199.229L330.714 177.7C329.144 174.094 327.627 170.462 326.11 166.829C324.593 163.197 323.063 159.551 321.652 155.892C320.857 153.701 320.936 151.289 321.874 149.155C322.812 147.021 324.535 145.331 326.687 144.435C328.838 143.539 331.252 143.507 333.427 144.344C335.602 145.182 337.371 146.825 338.365 148.933L338.339 148.853Z" fill="#F6B8A4"/>
<path d="M326.829 133.073C343.608 138.608 351.06 167.934 351.06 167.934C344.247 175.624 337.115 181.239 329.397 183.115C329.397 183.115 323.462 172.045 317.421 158.38C310.901 143.491 313.549 128.695 326.829 133.073Z" fill="white"/>
<path d="M342.145 153.776C341.346 147.243 338.178 141.23 333.241 136.877C328.304 132.523 321.941 130.133 315.359 130.159C302.725 130.26 290.134 131.647 277.781 134.297C275.864 134.713 274.049 135.507 272.442 136.633C270.836 137.759 269.47 139.194 268.425 140.854C267.381 142.515 266.678 144.367 266.358 146.303C266.038 148.238 266.108 150.218 266.564 152.126C277.981 199.574 268.56 225.986 271.394 246.291C295.426 250.775 323.768 240.423 343.675 244.002C345.804 209.261 344.513 174.094 342.145 153.776Z" fill="white"/>
<path d="M319.976 181.905L328.758 163.41L322.81 158.686L317.181 156.584L312.604 176.25L315.837 178.725L311.792 200.24L323.702 184.779L319.976 181.905Z" fill="#6366F1"/>
<path d="M317.9 202.435C307.907 202.435 299.125 191.95 298.313 179.07C297.861 171.766 300.003 165.006 304.208 160.536C305.575 159.005 307.247 157.777 309.117 156.932C310.987 156.086 313.014 155.641 315.066 155.626C325.059 155.626 333.841 166.097 334.64 178.977C335.105 186.282 332.95 193.041 328.745 197.525C327.382 199.058 325.712 200.287 323.844 201.133C321.976 201.978 319.951 202.422 317.9 202.435ZM315.066 157.196C313.231 157.212 311.42 157.612 309.749 158.37C308.078 159.129 306.585 160.229 305.365 161.6C301.453 165.765 299.457 172.085 299.896 178.964C300.655 191.019 308.732 200.839 317.9 200.839C319.735 200.82 321.545 200.419 323.215 199.661C324.886 198.902 326.379 197.803 327.601 196.434C331.513 192.27 333.509 185.936 333.07 179.057C332.311 167.016 324.234 157.209 315.066 157.209V157.196Z" fill="#6366F1"/>
<path d="M289.012 102.749C290.994 110.387 293.323 123.799 289.677 131.13C289.299 131.845 289.183 132.67 289.348 133.462C289.513 134.254 289.949 134.963 290.582 135.468C295.266 139.074 301.227 142.44 310.023 141.894C319.204 141.336 318.526 135.84 316.197 132.168C315.956 131.781 315.639 131.447 315.267 131.184C314.894 130.921 314.473 130.735 314.028 130.638C305.352 128.855 305.246 121.949 306.483 115.31L289.012 102.749Z" fill="#F6B8A4"/>
<path d="M291.46 119.461C285.219 117.026 285.565 120.486 285.698 125.355C285.832 130.225 279.697 130.837 283.53 135.215C287.362 139.593 300.921 144.848 310.382 143.198C326.776 140.284 318.233 133.978 316.836 130.545C315.439 127.112 319.297 120.579 314.52 119.661C309.743 118.743 300.642 123.04 291.46 119.461Z" fill="#2E3242"/>
<path d="M313.376 130.585C305.538 134.057 294.054 132.86 287.468 128.15C295.757 131.148 304.673 131.986 313.376 130.585Z" fill="#1C1F2C"/>
<path opacity="0.2" d="M296.104 107.872L306.443 115.31C306.119 116.918 305.937 118.552 305.898 120.193C302.145 120.02 296.809 116.441 296.184 112.595C295.873 111.039 295.846 109.438 296.104 107.872Z" fill="#1C1F2C"/>
<path d="M313.802 91.2929C319.39 89.3104 320.229 81.2206 315.132 76.7898C304.979 74.7274 308.213 87.0218 313.802 91.2929Z" fill="#2E3242"/>
<path d="M285.765 89.7762C287.335 101.445 287.694 108.404 293.829 113.726C303.05 121.856 316.45 114.95 318.299 102.922C319.909 92.1046 317.062 74.8339 305.711 71.3611C294.361 67.8883 284.181 78.1071 285.765 89.7762Z" fill="#F6B8A4"/>
<path d="M287.149 96.9878C293.35 96.1628 295.226 88.4455 292.059 82.8572C294.72 82.7108 304.221 82.5644 303.782 78.28C310.648 81.2339 319.523 83.1233 319.084 77.6147C318.712 73.0642 315.159 69.3386 307.627 66.2251C300.096 63.1115 278.872 63.0583 279.897 78.2002C269.052 85.159 277.462 98.0123 287.149 96.9878Z" fill="#2E3242"/>
<path d="M281.853 99.3163C283.054 101.872 285.186 103.871 287.814 104.905C291.141 106.129 292.751 102.842 291.806 99.2365C290.928 95.9899 288.134 91.4526 284.807 91.8119C281.48 92.1711 280.296 96.0564 281.853 99.3163Z" fill="#F6B8A4"/>
<path d="M317.581 81.1541L297.501 83.589C294.981 83.8956 292.684 85.1873 291.113 87.1819C289.543 89.1764 288.825 91.7117 289.118 94.2335L290.276 103.72C290.393 104.733 290.204 105.757 289.733 106.661C289.262 107.565 288.531 108.307 287.634 108.791C286.738 109.275 285.716 109.479 284.702 109.377C283.688 109.275 282.728 108.871 281.946 108.218C279.077 105.834 276.764 102.85 275.171 99.4774C273.578 96.1045 272.742 92.4237 272.723 88.6935C272.703 84.9633 273.5 81.274 275.058 77.8847C276.617 74.4953 278.898 71.4881 281.742 69.074C284.586 66.66 287.924 64.8977 291.521 63.9108C295.119 62.9239 298.889 62.7363 302.567 63.3613C306.244 63.9862 309.741 65.4086 312.81 67.5284C315.88 69.6483 318.448 72.4143 320.335 75.6322C320.648 76.1602 320.823 76.7583 320.846 77.3716C320.868 77.985 320.736 78.5941 320.462 79.1433C320.188 79.6925 319.781 80.1643 319.277 80.5156C318.774 80.8668 318.191 81.0864 317.581 81.1541Z" fill="#2E3242"/>
<path opacity="0.2" d="M285.179 101.711C285.965 103.627 285.619 105.57 284.421 106.049C283.223 106.528 281.613 105.384 280.842 103.468C280.07 101.552 280.416 99.609 281.613 99.1167C282.811 98.6244 284.408 99.7953 285.179 101.711Z" fill="white"/>
<path d="M302.065 90.5612C302.145 91.5192 302.731 92.251 303.396 92.1845C304.061 92.1179 304.46 91.3063 304.381 90.3483C304.301 89.3903 303.715 88.6585 303.05 88.7117C302.385 88.7649 301.985 89.5899 302.065 90.5612Z" fill="#2E3242"/>
<path d="M313.336 90.0822C313.429 91.0402 314.001 91.772 314.666 91.7055C315.332 91.6389 315.731 90.814 315.651 89.856C315.571 88.898 314.986 88.1795 314.32 88.2327C313.655 88.2859 313.256 89.1242 313.336 90.0822Z" fill="#2E3242"/>
<path d="M312.77 101.612C311.588 102.242 310.245 102.48 308.822 102.31C307.399 102.141 305.924 101.567 304.488 100.624C304.386 100.55 304.298 100.43 304.243 100.29C304.188 100.15 304.17 100.002 304.194 99.8785C304.205 99.8187 304.225 99.7664 304.255 99.7248C304.284 99.6832 304.321 99.6531 304.364 99.6363C304.407 99.6194 304.454 99.6161 304.504 99.6266C304.554 99.6371 304.604 99.6611 304.653 99.6973C306.247 100.714 307.881 101.252 309.424 101.267C310.967 101.281 312.375 100.772 313.535 99.7814C313.569 99.7473 313.611 99.7263 313.657 99.7198C313.704 99.7132 313.754 99.7212 313.804 99.7433C313.854 99.7653 313.904 99.8009 313.95 99.8478C313.996 99.8946 314.036 99.9517 314.07 100.015C314.105 100.078 314.132 100.147 314.15 100.217C314.168 100.286 314.176 100.356 314.174 100.422C314.171 100.488 314.159 100.548 314.137 100.599C314.115 100.65 314.084 100.691 314.046 100.719C313.648 101.069 313.222 101.367 312.77 101.612Z" fill="#2E3242"/>
<path d="M300.132 87.4878C300.035 87.478 299.943 87.4411 299.866 87.3814C299.751 87.2853 299.678 87.1491 299.661 87.0007C299.643 86.8523 299.683 86.7028 299.773 86.583C300.31 85.8585 301.01 85.2711 301.817 84.8687C302.624 84.4664 303.515 84.2605 304.417 84.2678C304.491 84.2728 304.564 84.2928 304.631 84.3265C304.698 84.3602 304.757 84.4069 304.806 84.464C304.854 84.5211 304.891 84.5873 304.913 84.6588C304.935 84.7302 304.943 84.8054 304.936 84.8799C304.922 85.0294 304.85 85.1676 304.736 85.2646C304.621 85.3617 304.473 85.4099 304.324 85.3988C303.61 85.4008 302.908 85.5705 302.272 85.8941C301.636 86.2176 301.086 86.6861 300.664 87.2616C300.605 87.3443 300.524 87.409 300.43 87.4489C300.336 87.4888 300.233 87.5022 300.132 87.4878Z" fill="#2E3242"/>
<path d="M316.453 87.2993C316.36 87.3135 316.266 87.3024 316.179 87.2673C316.092 87.2321 316.017 87.1742 315.96 87.0997C315.521 86.5456 314.957 86.1028 314.314 85.8069C313.671 85.5111 312.968 85.3705 312.261 85.3966C312.113 85.4117 311.966 85.3688 311.849 85.277C311.732 85.1851 311.656 85.0514 311.636 84.9043C311.621 84.7565 311.664 84.6087 311.755 84.492C311.847 84.3753 311.981 84.2988 312.128 84.2789C313.023 84.2217 313.918 84.3832 314.737 84.7495C315.555 85.1157 316.272 85.6758 316.825 86.3812C316.921 86.4965 316.967 86.6447 316.955 86.7939C316.943 86.9432 316.872 87.0817 316.759 87.1795C316.668 87.2444 316.563 87.2856 316.453 87.2993Z" fill="#2E3242"/>
<path d="M279.032 159.804L276.677 164.381C275.878 165.951 275.106 167.534 274.348 169.118C272.844 172.298 271.327 175.478 269.93 178.685C267.103 184.914 264.728 191.34 262.825 197.911L262.212 200.28C262.212 200.28 262.212 200.453 262.212 200.28V200.187C262.188 200.3 262.188 200.419 262.212 200.532C262.3 201.744 262.533 202.942 262.904 204.098C263.931 207.24 265.162 210.312 266.59 213.293C269.504 219.599 273.004 226.013 276.344 232.36L276.411 232.493C276.933 233.452 277.091 234.569 276.854 235.636C276.618 236.702 276.003 237.647 275.124 238.296C274.245 238.945 273.16 239.254 272.071 239.165C270.982 239.077 269.961 238.597 269.198 237.815C263.802 232.397 258.904 226.506 254.561 220.212C252.236 216.885 250.21 213.358 248.507 209.673C247.452 207.445 246.696 205.087 246.258 202.661C246.124 201.865 246.044 201.06 246.018 200.253C245.993 199.783 245.993 199.312 246.018 198.843C246.018 198.616 246.018 198.337 246.018 198.071L246.112 197.406L246.617 194.385C247.328 190.472 248.279 186.606 249.465 182.809C250.569 179.044 251.913 175.411 253.297 171.832C254.681 168.253 256.225 164.74 257.888 161.294C258.7 159.564 259.551 157.861 260.429 156.158C261.308 154.455 262.186 152.818 263.224 150.995C264.367 148.878 266.305 147.302 268.611 146.613C270.917 145.924 273.402 146.18 275.519 147.323C277.636 148.466 279.213 150.404 279.902 152.71C280.59 155.015 280.335 157.5 279.192 159.618L279.032 159.804Z" fill="#F6B8A4"/>
<path d="M276.264 134.709C256.69 139.646 248.586 167.188 248.586 167.188C248.586 167.188 254.162 167.282 261.454 173.083C269.557 179.51 276.543 179.031 276.543 179.031C276.543 179.031 281.6 175.824 283.41 161.001C284.274 153.923 280.229 134.523 276.264 134.709Z" fill="white"/>
<path d="M273.257 229.605L284.567 233.823L275.905 245.439C275.905 245.439 266.125 240.37 267.921 234.795L273.257 229.605Z" fill="#F6B8A4"/>
<path d="M289.877 245.266L286.151 248.832C285.43 249.514 284.492 249.919 283.501 249.978C282.511 250.036 281.531 249.744 280.735 249.151L275.905 245.506L284.567 233.89L289.89 239.292C290.287 239.682 290.602 240.147 290.817 240.661C291.032 241.174 291.141 241.725 291.14 242.282C291.139 242.838 291.027 243.389 290.81 243.901C290.593 244.414 290.275 244.878 289.877 245.266Z" fill="#F6B8A4"/>
<path opacity="0.2" d="M315.465 75.4193C314.32 77.3486 310.249 77.0559 306.363 74.754C302.478 72.4522 300.269 69.0326 301.413 67.1033C302.558 65.174 306.629 65.4667 310.515 67.7553C314.4 70.0438 316.609 73.49 315.465 75.4193Z" fill="white"/>
<g opacity="0.4">
<path fill-rule="evenodd" clip-rule="evenodd" d="M113.208 469.414C113.101 469.545 113.054 469.603 112.982 469.69C113.449 469.794 113.906 469.895 114.369 469.998C114.3 470.077 114.248 470.137 114.182 470.212C114.647 470.31 115.093 470.404 115.562 470.502C115.502 470.574 115.454 470.632 115.401 470.697C115.668 470.784 115.932 470.893 116.207 470.951C116.399 470.991 116.606 470.951 116.806 470.96C117.018 470.97 116.885 471.261 117.153 471.339C117.407 471.414 117.673 471.451 117.996 471.483C117.905 471.598 117.861 471.654 117.787 471.749C118.255 471.853 118.711 471.954 119.172 472.056C119.105 472.131 119.051 472.19 118.997 472.25C119.565 472.397 120.131 472.544 120.734 472.701C120.647 472.806 120.598 472.864 120.548 472.923C121.113 473.078 121.682 473.234 122.277 473.397C122.18 473.519 122.135 473.575 122.099 473.62C122.678 473.776 123.243 473.928 123.831 474.085C123.736 474.19 123.682 474.249 123.63 474.307C124.198 474.455 124.764 474.604 125.366 474.761C125.277 474.865 125.227 474.924 125.169 474.992C125.73 475.136 126.291 475.279 126.875 475.429C126.815 475.549 126.777 475.628 126.712 475.759C127.194 475.77 127.679 475.686 128.067 476.021C128.02 476.072 127.966 476.132 127.902 476.203C128.356 476.277 128.805 476.351 129.288 476.43C129.216 476.578 129.178 476.657 129.108 476.801C129.808 476.715 130.422 476.887 130.99 477.219C130.938 477.279 130.885 477.339 130.81 477.423C130.911 477.444 131 477.492 131.065 477.47C131.431 477.346 131.71 477.412 132.028 477.708C132.063 477.74 132.14 477.745 132.191 477.735C132.267 477.719 132.365 477.631 132.407 477.655C132.597 477.766 132.788 477.926 133.005 477.772C133.229 477.613 133.33 477.328 133.561 477.157C133.613 477.119 133.569 476.949 133.569 476.871C133.832 476.771 134.054 476.686 134.387 476.559C133.862 476.352 133.462 476.195 133.018 476.02C133.309 475.868 133.476 475.966 133.681 476.088C133.822 476.171 134.052 476.103 134.23 476.103C134.32 475.618 133.935 475.586 133.728 475.51C132.331 475.003 131.02 474.313 129.689 473.669C128.258 472.978 126.885 472.162 125.436 471.517C124.468 471.086 123.536 470.582 122.562 470.177C121.463 469.72 120.412 469.155 119.3 468.739C118.581 468.47 117.915 468.091 117.188 467.828C116.499 467.579 115.808 467.288 115.142 466.98C114.421 466.646 113.691 466.337 112.955 466.048C111.579 465.507 110.211 464.944 108.828 464.417C107.919 464.072 107.018 463.685 106.113 463.316C104.792 462.779 103.446 462.309 102.131 461.752C100.989 461.269 99.7832 460.938 98.6254 460.487C97.6638 460.113 96.6878 459.784 95.7194 459.431C93.9805 458.798 92.242 458.163 90.4956 457.55C89.374 457.157 88.2348 456.803 87.1277 456.371C85.4728 455.726 83.7651 455.242 82.0986 454.642C81.1025 454.283 80.1079 453.928 79.0979 453.608C77.8625 453.218 76.6604 452.719 75.4178 452.356C73.5601 451.812 71.7408 451.159 69.9057 450.55C68.525 450.093 67.1217 449.702 65.7992 449.08C65.6171 448.994 65.3822 449.022 65.1907 449C64.9813 449.533 65.6841 449.394 65.6523 449.834C65.5049 449.781 65.3844 449.718 65.2568 449.696C65.1222 449.674 64.981 449.691 64.7524 449.691C64.8266 449.885 64.8772 450.018 64.9282 450.151C64.804 450.234 64.577 450.215 64.6065 450.508C64.621 450.655 64.9477 450.808 64.6307 450.968C64.6449 450.988 64.6546 451.016 64.6738 451.028C64.8106 451.111 64.9433 451.204 65.0882 451.269C65.835 451.605 66.5633 452.001 67.339 452.247C68.4008 452.583 69.4158 453.035 70.4667 453.393C72.0448 453.93 73.6249 454.461 75.198 455.011C76.1954 455.36 77.1821 455.74 78.1792 456.108C78.1138 456.18 78.0597 456.24 78.0056 456.301C78.027 456.322 78.0455 456.357 78.0679 456.359C78.1075 456.364 79.2316 456.529 79.3048 456.551C79.7306 456.677 80.157 456.801 80.6054 456.933C80.5101 457.045 80.4601 457.104 80.334 457.251C80.5242 457.217 80.6205 457.207 80.7116 457.181C80.8119 457.152 80.9277 457.052 81.0019 457.079C81.4924 457.256 81.9735 457.459 82.4605 457.655C82.3958 457.732 82.3464 457.79 82.2194 457.941C82.4124 457.904 82.5083 457.892 82.5998 457.866C82.6998 457.837 82.8152 457.739 82.8897 457.766C83.3796 457.944 83.8601 458.146 84.3468 458.341C84.2817 458.419 84.2327 458.477 84.1047 458.63C84.3009 458.59 84.3962 458.577 84.4877 458.551C84.5874 458.522 84.7031 458.427 84.7779 458.454C85.2669 458.63 85.7467 458.832 86.2331 459.027C86.1674 459.106 86.1193 459.164 85.9898 459.32C86.1894 459.277 86.3055 459.285 86.3712 459.231C86.4929 459.132 86.5696 459.119 86.7334 459.183C87.6428 459.541 88.5644 459.868 89.4992 460.211C89.431 460.289 89.3791 460.348 89.3244 460.411C89.5445 460.732 89.8272 460.057 90.1051 460.47C90.2164 460.636 90.5953 460.621 90.8874 460.697C90.8044 460.798 90.7569 460.856 90.7113 460.911C90.7412 460.943 90.7701 460.983 90.8088 461.008C90.8242 461.018 91.5801 461.001 91.6078 461.011C92.2779 461.256 92.9476 461.5 93.6303 461.75C93.5498 461.84 93.4957 461.9 93.44 461.962C94.1007 461.968 94.3969 462.031 94.9742 462.288C94.9188 462.35 94.8651 462.41 94.8113 462.469C94.8531 462.496 94.9031 462.557 94.9405 462.55C95.8354 462.382 96.552 462.947 97.3563 463.146C97.7802 463.252 98.172 463.486 98.5792 463.662C98.5175 463.735 98.4682 463.794 98.416 463.855C98.4776 463.883 98.5326 463.932 98.5732 463.922C99.2389 463.759 99.8423 464.062 100.383 464.315C101.081 464.641 101.862 464.757 102.502 465.219C102.466 465.261 102.416 465.32 102.316 465.437H103.508C103.535 465.57 103.551 465.649 103.571 465.748C103.781 466.006 104.308 465.54 104.452 466.156C104.614 466.156 104.805 466.144 104.994 466.161C105.088 466.17 105.254 466.23 105.257 466.275C105.266 466.467 105.355 466.486 105.522 466.508C105.753 466.538 106.119 466.309 106.17 466.788C106.173 466.814 106.316 466.829 106.395 466.841C106.637 466.879 106.984 466.69 107.028 467.142C107.276 467.164 107.525 467.185 107.766 467.206C107.834 467.314 107.883 467.493 107.971 467.514C108.185 467.567 108.417 467.547 108.642 467.556C108.695 468.027 109.092 467.818 109.321 467.878C109.35 467.929 109.375 467.955 109.37 467.969C109.361 467.993 109.33 468.008 109.313 468.031C109.284 468.069 109.261 468.11 109.194 468.212H110.292C110.186 468.343 110.139 468.4 110.091 468.46C110.225 468.762 110.628 468.344 110.765 468.717C110.901 469.089 111.247 468.825 111.485 468.9C111.738 468.981 111.991 469.064 112.28 469.158C112.266 469.131 112.29 469.157 112.285 469.17C112.275 469.195 112.244 469.21 112.228 469.233C112.2 469.27 112.176 469.312 112.111 469.414H113.208Z" fill="#1C1F2C"/>
<path fill-rule="evenodd" clip-rule="evenodd" d="M76.8926 493.155C73.8061 493.64 74.3104 493.277 74.3928 493.516C74.1724 493.597 73.9498 493.679 73.6196 493.8C73.8768 493.979 74.0391 494.092 74.2032 494.206C74.1664 494.248 74.1149 494.308 74.063 494.367C74.101 494.395 74.1444 494.454 74.1831 494.451C75.1393 494.38 76.0637 494.707 77.0278 494.641C77.9947 494.575 78.9804 494.538 79.9379 494.655C80.7177 494.749 81.4906 494.778 82.2698 494.807C82.51 494.815 82.7062 494.613 82.9983 494.774C83.2168 494.896 83.5564 494.799 83.8426 494.799H84.7853C85.0711 494.799 85.3566 494.798 85.6424 494.799C85.927 494.8 86.2119 494.802 86.4964 494.808C86.5172 494.809 86.537 494.846 86.6093 494.918C86.3411 494.953 86.1147 494.982 85.888 495.011C85.8892 495.047 85.8905 495.083 85.8914 495.119C86.1895 495.127 86.4876 495.137 86.7854 495.14C87.0998 495.144 87.4139 495.143 87.7284 495.14C87.7818 495.14 87.8614 495.143 87.8847 495.112C88.201 494.687 88.5576 494.739 88.9789 494.957C89.1371 495.038 89.3723 494.97 89.5722 494.97C92.2582 494.97 94.9441 494.966 97.6297 494.976C97.9221 494.978 98.2598 494.834 98.5038 495.14C98.5151 495.153 98.5733 495.154 98.5852 495.14C98.8264 494.856 99.1012 495.279 99.293 495.129C99.5408 494.936 99.7075 494.97 99.9408 495.128C100.012 495.177 100.198 495.09 100.314 495.031C100.476 494.948 100.466 494.833 100.316 494.732C100.345 494.697 100.369 494.642 100.406 494.632C100.455 494.618 100.545 494.618 100.563 494.646C100.62 494.734 100.627 494.861 100.696 494.93C100.787 495.022 100.918 495.128 101.033 495.129C101.232 495.132 101.476 494.967 101.619 495.037C101.849 495.151 101.994 495.137 102.222 495.044C102.378 494.98 102.608 495.133 102.807 495.136C103.604 495.149 104.402 495.141 105.181 495.141C105.26 495.014 105.326 494.906 105.393 494.799C105.5 494.89 105.606 494.981 105.806 495.151C106.14 495.235 106.718 494.917 107.067 495.496C107.169 495.384 107.264 495.279 107.349 495.186C108.027 495.375 108.682 495.403 109.337 495.179C110.015 495.491 110.717 495.219 111.401 495.326C111.386 495.168 111.35 494.989 111.372 494.982C111.638 494.893 111.596 495.136 111.671 495.299H112.579C112.625 495.424 112.661 495.523 112.699 495.628C112.739 495.608 112.795 495.599 112.815 495.567C112.978 495.318 113.257 495.217 113.476 495.328C113.991 495.588 114.521 495.45 115.042 495.479C115.49 495.505 115.942 495.484 116.4 495.609C116.125 495.636 115.851 495.664 115.576 495.692C116.204 495.747 116.872 496.101 117.342 495.532C117.672 495.579 117.935 495.646 118.2 495.651C119.022 495.665 119.845 495.656 120.65 495.656C120.701 495.802 120.736 495.901 120.787 496.05C120.926 495.841 121.039 495.671 121.151 495.501C121.21 495.736 121.345 495.98 121.59 495.811C121.849 495.633 121.998 495.756 122.235 495.803C122.669 495.889 123.133 495.828 123.597 495.939C123.385 495.972 123.172 496.005 122.948 496.041C122.983 496.096 123.007 496.166 123.03 496.166C123.659 496.172 124.289 496.2 124.916 496.161C125.378 496.133 125.825 495.926 126.303 496C126.38 496.012 126.456 496.034 126.534 496.131C126.305 496.155 126.076 496.179 125.846 496.203C126.563 496.277 127.265 496.473 127.988 496.205C128.308 496.086 128.708 496.185 129.093 496.276C128.936 496.315 128.778 496.354 128.615 496.394C128.643 496.438 128.666 496.508 128.689 496.509C128.974 496.515 129.259 496.51 129.544 496.508C129.697 496.146 129.926 496.683 130.159 496.446C130.31 496.291 130.626 496.654 130.932 496.373C131.099 496.22 131.521 496.346 131.84 496.457C131.62 496.491 131.4 496.526 131.165 496.562C131.215 496.617 131.245 496.68 131.277 496.681C131.705 496.687 132.135 496.666 132.563 496.689C133.397 496.733 134.243 496.729 135.058 496.885C135.497 496.968 135.928 496.986 136.363 497.038C136.736 497.083 137.099 497.215 137.245 497.708C137.393 497.708 137.724 497.767 137.753 497.698C137.88 497.397 138.267 497.365 138.354 497.106C138.436 496.861 138.571 496.786 138.773 496.672C139.182 496.442 139.271 496.003 139.064 495.574C139.176 495.455 139.29 495.334 139.402 495.216C139.397 495.154 139.414 495.079 139.385 495.046C139.064 494.683 138.689 494.497 138.177 494.433C137.338 494.329 136.519 494.072 135.659 494.113C135.167 493.812 134.621 493.994 134.102 493.938C133.696 493.895 133.293 493.805 132.887 493.776C132.489 493.747 132.045 493.877 131.697 493.744C131.195 493.552 130.703 493.576 130.216 493.613C129.591 493.661 129.014 493.409 128.4 493.423C127.772 493.438 127.117 493.54 126.52 493.402C125.368 493.136 124.208 493.401 123.074 493.238C121.667 493.035 120.247 493.232 118.86 493.054C116.992 492.814 115.131 492.996 113.27 492.913C113.042 492.903 112.813 492.914 112.584 492.911C112.392 492.909 112.181 492.962 112.052 492.748C111.95 493.019 111.729 492.721 111.551 492.851C111.442 492.931 111.17 492.766 110.967 492.745C110.741 492.723 110.511 492.74 110.282 492.74H109.682H108.997H108.311H107.711C107.482 492.74 107.252 492.724 107.025 492.744C106.757 492.769 106.492 492.679 106.215 492.869C106.081 492.96 105.77 492.754 105.538 492.747C104.825 492.728 104.11 492.753 103.396 492.734C103.13 492.727 102.831 492.858 102.605 492.572C102.456 492.385 102.345 492.9 102.12 492.619C102.05 492.531 101.693 492.516 101.655 492.58C101.439 492.94 101.195 492.393 101.031 492.615C100.797 492.929 100.652 492.56 100.464 492.572C100.358 492.578 100.253 492.611 100.147 492.632C99.9625 492.668 99.6688 492.794 99.6113 492.725C99.3767 492.441 99.1025 492.719 98.8453 492.61C98.579 492.497 98.2315 492.57 97.9196 492.57C92.3198 492.569 86.7194 492.577 81.1192 492.559C80.3725 492.556 79.6015 492.744 78.8761 492.397C78.4946 492.725 78.1179 492.361 77.7315 492.378C76.5344 492.431 75.3339 492.397 74.0523 492.397C74.0954 492.531 74.1215 492.723 74.1648 492.727C74.7698 492.783 75.3559 492.949 75.9788 492.926C77.2344 492.88 78.4928 492.911 79.7499 492.915C79.7951 492.916 79.8404 492.969 79.886 492.997C79.8288 493.026 79.7747 493.066 79.7143 493.081C79.5631 493.119 79.4244 493.309 79.2465 493.092C79.2005 493.036 79.0282 493.083 78.9141 493.083C77.2592 493.083 75.6046 493.083 76.8926 493.155C79.8785 493.198 79.8753 493.167 79.8722 493.137C80.1376 493.066 80.3995 492.972 80.6699 492.931C80.8133 492.91 81.7204 492.941 81.8506 492.923C81.9616 492.907 82.133 492.866 82.1798 492.92C82.4128 493.189 82.7093 493.078 82.976 493.079C87.035 493.085 91.0941 493.086 95.1529 493.076C95.3912 493.076 95.6629 493.202 95.8792 492.965C95.9204 492.92 96.0698 492.898 96.0996 492.93C96.3597 493.211 96.6889 493.048 96.9838 493.079C97.5879 493.143 98.2057 492.976 98.8057 493.239C98.9752 493.313 99.2336 493.206 99.4455 493.159C99.8537 493.067 100.259 493.001 100.656 493.189C100.795 493.254 100.967 493.009 101.082 493.241C101.301 492.965 101.669 493.01 101.86 493.11C102.178 493.277 102.408 492.96 102.675 493.082C102.723 493.104 102.795 493.097 102.825 493.131C102.966 493.293 103.067 493.256 103.251 493.156C103.43 493.059 103.71 493.032 103.899 493.101C104.144 493.191 104.44 493.26 104.628 493.221C104.921 493.162 105.169 493.243 105.436 493.253C107.528 493.329 109.619 493.149 111.714 493.406C113.277 493.598 114.861 493.337 116.447 493.568C117.888 493.777 119.366 493.514 120.834 493.744C121.992 493.926 123.187 493.668 124.365 493.921C124.912 494.038 125.507 493.905 126.075 493.951C126.596 493.994 127.105 493.874 127.652 494.063C128.163 494.24 128.78 494.106 129.349 494.115C129.437 494.116 129.525 494.149 129.613 494.167C129.497 494.284 129.39 494.287 129.284 494.283C128.278 494.248 127.277 494.296 126.264 494.139C125.048 493.952 123.803 494.191 122.561 493.968C121.408 493.762 120.197 494.124 119.037 493.766C118.873 493.716 118.734 494.095 118.573 493.78C118.387 494.063 118.213 493.763 118.034 493.759C116.627 493.73 115.213 493.9 113.815 493.604C113.628 493.565 113.347 493.532 113.24 493.634C112.997 493.864 112.878 493.505 112.667 493.584C112.492 493.65 112.272 493.598 112.072 493.598C110.929 493.598 109.785 493.607 108.642 493.592C108.348 493.587 108.021 493.721 107.757 493.444C107.727 493.414 107.573 493.514 107.473 493.536C107.34 493.565 107.124 493.639 107.084 493.586C106.924 493.377 106.83 493.559 106.694 493.581C106.558 493.602 106.401 493.437 106.253 493.437C106.014 493.437 105.736 493.318 105.545 493.58C105.379 493.384 105.151 493.426 104.937 493.428C104.72 493.43 104.478 493.357 104.323 493.595C104.169 493.352 103.924 493.429 103.707 493.429C102.278 493.424 100.848 493.459 99.4201 493.417C98.0145 493.375 96.5964 493.612 95.2029 493.255C95.0312 493.42 94.8082 493.331 94.6158 493.346C94.3674 493.367 94.1111 493.263 93.858 493.262C93.565 493.261 93.2445 493.161 92.9917 493.411C92.7119 493.105 92.3471 493.265 92.0277 493.263C88.2547 493.25 84.4815 493.255 80.7083 493.254C80.4328 493.254 80.1571 493.237 76.8926 493.155Z" fill="#1C1F2C"/>
<path fill-rule="evenodd" clip-rule="evenodd" d="M114.924 481.383C115.073 481.644 115.136 481.756 115.218 481.9H114.398C114.391 481.875 114.385 481.851 114.378 481.826C114.458 481.806 114.537 481.781 114.617 481.765C114.695 481.749 114.774 481.742 114.872 481.728C114.86 481.625 114.874 481.498 114.836 481.48C114.647 481.387 114.45 481.291 114.246 481.256C113.787 481.177 113.322 481.142 112.861 481.075C112.632 481.041 112.408 480.973 112.192 480.923C111.937 481.301 112.429 481.175 112.453 481.378C111.859 481.592 111.349 481.095 110.772 481.187C111.154 481.09 111.536 480.955 111.974 481.182C111.921 481.09 111.892 480.957 111.813 480.915C111.652 480.828 111.468 480.78 111.288 480.737C110.994 480.668 110.67 480.858 110.39 480.626C110.172 480.445 109.861 480.661 109.61 480.413C109.484 480.289 109.134 480.392 108.855 480.392C109.084 480.869 109.463 480.68 109.77 480.74C110.046 480.794 110.314 480.893 110.568 481.072C109.947 481.017 109.308 481.031 108.708 480.886C108.137 480.749 107.583 480.538 106.985 480.426C107.386 480.404 107.788 480.382 108.19 480.36V480.256C107.344 480.122 106.498 479.989 105.652 479.856C105.642 479.9 105.633 479.945 105.624 479.99C106.019 480.093 106.415 480.196 106.81 480.3C106.441 480.344 106.068 480.547 105.721 480.243C104.95 480.275 104.206 479.873 103.403 480.101V480.671C103.544 480.734 103.698 480.526 103.849 480.726C103.921 480.821 104.183 480.621 104.249 480.893C104.267 480.967 104.421 481.083 104.446 481.068C104.864 480.821 105.272 481.127 105.68 481.073C105.808 481.056 105.928 480.988 106.078 480.934C106.101 481.058 106.131 481.213 106.161 481.368C106.402 481.167 106.709 481.605 106.93 481.265C106.973 481.387 107.009 481.486 107.057 481.62C107.365 481.511 107.654 481.292 108.005 481.489C107.957 481.549 107.91 481.607 107.794 481.75C108.327 481.679 108.787 481.618 109.263 481.555C109.472 481.763 109.666 481.957 109.817 482.108C110.087 482.105 110.2 481.789 110.475 482.049C110.691 482.252 111.037 482.345 111.341 482.415C111.536 482.46 111.768 482.398 111.971 482.342C112.115 482.302 112.232 482.459 112.419 482.299C112.616 482.132 112.594 482.482 112.695 482.575C112.79 482.661 112.93 482.76 113.043 482.752C113.495 482.718 113.922 482.957 114.375 482.862C114.398 482.857 114.416 482.823 114.435 482.803C114.92 483.302 115.636 483.084 116.169 483.352C116.613 483.576 117.126 483.286 117.504 483.65C118.733 483.914 119.991 484.057 121.177 484.508C121.907 484.421 122.532 484.846 123.239 484.927C123.892 485.003 124.574 485.163 125.181 485.396C126.28 485.817 127.483 485.856 128.537 486.394C128.92 486.311 129.155 486.532 129.418 486.765C129.564 486.893 129.82 486.896 129.992 486.945C130.362 486.655 130.577 486.266 130.991 486.131C130.918 485.848 130.845 485.562 130.757 485.222C129.809 484.913 128.83 484.5 127.769 484.324C127.278 484.242 126.819 483.973 126.329 483.886C125.718 483.777 125.126 483.578 124.52 483.499C123.872 483.414 123.262 483.202 122.634 483.062C122.247 482.974 121.841 482.879 121.46 482.823C120.814 482.728 120.214 482.468 119.563 482.407C119.171 482.371 118.793 482.202 118.405 482.11C118.14 482.047 117.845 482.214 117.592 481.998C117.377 481.815 117.013 482.084 116.834 481.764C116.354 481.848 115.909 481.656 115.448 481.588C115.329 481.57 115.217 481.5 114.924 481.383Z" fill="#1C1F2C"/>
</g>
<g opacity="0.4">
<path fill-rule="evenodd" clip-rule="evenodd" d="M138.116 118.298C137.723 119.055 137.299 119.799 136.95 120.576C136.791 120.93 136.551 121.41 137.085 121.685C137.712 122.008 138.305 121.766 138.594 121.216C139.699 119.119 141.122 117.243 142.607 115.403C144.253 113.364 146.09 111.491 148.178 109.96C149.873 108.717 151.755 107.676 153.72 106.828C157.774 105.078 162.015 103.986 166.322 103.103C166.662 103.033 167.033 103.032 167.299 102.759C167.414 102.641 167.598 102.544 167.513 102.323C167.435 102.116 167.25 102.094 167.076 102.106C166.651 102.134 166.222 102.158 165.804 102.233C160.85 103.113 155.975 104.274 151.396 106.436C145.801 109.077 141.354 113.005 138.116 118.298Z" fill="#1C1F2C"/>
<path fill-rule="evenodd" clip-rule="evenodd" d="M145.512 120.252C145.303 120.781 144.939 121.239 144.856 121.826C144.825 122.039 144.79 122.223 144.978 122.369C145.667 122.904 146.759 122.64 147.256 121.904C150.839 116.606 155.437 112.76 161.967 111.717C162.511 111.63 163.065 111.576 163.615 111.562C164.092 111.549 164.676 111.484 164.691 111.002C164.71 110.392 164.038 110.495 163.625 110.482C161.672 110.42 159.78 110.814 157.914 111.346C153.408 112.629 149.715 115.167 146.667 118.683C146.244 119.172 145.896 119.726 145.512 120.252Z" fill="#1C1F2C"/>
</g>
<defs>
<linearGradient id="paint0_linear_5115_11861" x1="0" y1="319.522" x2="636" y2="319.522" gradientUnits="userSpaceOnUse">
<stop stop-color="#6366F1"/>
<stop offset="0.5" stop-color="#8B5CF6"/>
<stop offset="1" stop-color="#D946EF"/>
</linearGradient>
</defs>
</svg>
