<svg width="636" height="636" viewBox="0 0 636 636" fill="none" xmlns="http://www.w3.org/2000/svg">
<rect width="636" height="636" rx="8" fill="url(#paint0_linear_5115_11747)"/>
<path opacity="0.3" d="M211.496 444.498C198.071 452.598 184.755 460.901 170.414 467.252C161.162 471.344 151.156 474.363 140.994 474.701C132.741 474.967 121.046 472.962 116.809 464.383C114.214 459.116 115.919 452.536 119.5 447.878C123.08 443.219 128.233 440.052 133.252 436.989L205.893 392.789C229.76 378.278 253.777 363.703 279.676 353.041C289.803 348.875 302.844 342.23 314.076 343.381C320.871 344.069 328.662 346.181 333.377 351.393C339.204 357.827 339.063 363.628 332.91 369.021C324.711 376.122 317.489 380.303 310.128 384.756C276.72 405.032 244.855 424.364 211.496 444.498Z" fill="#1C1F2C"/>
<path d="M308.149 304.294L309.292 306.589L319.862 312.694C319.598 312.04 319.29 311.403 318.942 310.789C318.625 310.203 318.267 309.64 317.868 309.106C317.218 308.23 316.465 307.436 315.623 306.742L315.107 306.352L314.368 305.866C313.918 305.598 313.452 305.356 312.974 305.142C312.709 305.031 312.458 304.948 312.207 304.864L312.026 304.795C311.569 304.647 311.103 304.531 310.631 304.447C309.813 304.299 308.979 304.248 308.149 304.294V304.294Z" fill="#6366F1"/>
<path opacity="0.6" d="M308.149 304.294L309.292 306.589L319.862 312.694C319.598 312.04 319.29 311.403 318.942 310.789C318.625 310.203 318.267 309.64 317.868 309.106C317.218 308.23 316.465 307.436 315.623 306.742L315.107 306.352L314.368 305.866C313.918 305.598 313.452 305.356 312.974 305.142C312.709 305.031 312.458 304.948 312.207 304.864L312.026 304.795C311.569 304.647 311.103 304.531 310.631 304.447C309.813 304.299 308.979 304.248 308.149 304.294V304.294Z" fill="#1C1F2C"/>
<path d="M269.942 344.821C269.942 329.397 279.34 311.443 290.942 304.795C291.526 304.463 292.126 304.161 292.741 303.891L292.908 303.807C293.298 303.626 293.698 303.468 294.107 303.334C294.414 303.223 294.707 303.098 295.014 303.001L295.892 302.764C296.297 302.667 296.687 302.569 297.078 302.514L297.719 302.416C298.182 302.36 298.647 302.332 299.113 302.333H299.378H300.215C304.205 302.47 308.102 303.573 311.569 305.548C315.035 307.523 317.968 310.31 320.114 313.668C322.241 316.636 323.514 320.127 323.795 323.765C323.945 324.843 324.025 325.93 324.032 327.019C324.039 327.112 324.039 327.205 324.032 327.297C324.032 327.395 324.032 327.492 324.032 327.603C324.032 343.027 314.634 360.982 303.032 367.629C302.418 367.977 301.819 368.269 301.233 368.547L301.066 368.631C300.661 368.812 300.257 368.951 299.866 369.09L298.96 369.424C298.667 369.521 298.374 369.59 298.082 369.66C297.789 369.73 297.287 369.855 296.882 369.924L296.255 370.008C295.795 370.008 294.233 370.119 294.066 370.119H293.787C289.794 369.985 285.894 368.884 282.424 366.909C278.955 364.934 276.02 362.145 273.874 358.784C271.751 355.815 270.483 352.323 270.207 348.687C270.057 347.613 269.978 346.531 269.969 345.447C269.962 345.354 269.962 345.261 269.969 345.169C269.969 345.057 269.969 344.96 269.969 344.863L269.942 344.821Z" fill="#1C1F2C"/>
<path d="M290.38 369.279C281.11 365.345 279.25 348.904 286.225 332.556C293.199 316.208 306.367 306.145 315.636 310.078C324.905 314.012 326.766 330.453 319.791 346.801C312.817 363.149 299.649 373.212 290.38 369.279Z" fill="#EDF0F8"/>
<path opacity="0.4" d="M296.88 362.595C299.154 362.529 301.371 361.867 303.308 360.675C311.968 355.696 319.01 342.29 319.01 330.816C319.01 324.641 316.96 319.912 313.432 317.854C310.434 316.129 306.641 316.463 302.737 318.674C294.077 323.653 287.035 337.046 287.035 348.534C287.035 354.695 289.085 359.424 292.613 361.482C293.91 362.227 295.383 362.611 296.88 362.595V362.595ZM309.109 318.007C310.384 317.99 311.64 318.311 312.749 318.939C315.928 320.774 317.755 325.1 317.755 330.816C317.755 341.942 310.992 354.806 302.681 359.591C299.181 361.607 295.834 361.885 293.24 360.397C290.061 358.561 288.234 354.236 288.234 348.534C288.234 337.408 294.997 324.543 303.308 319.759C305.055 318.679 307.055 318.074 309.109 318.007V318.007Z" fill="#1C1F2C"/>
<path d="M295.641 346.907C295.718 347.409 295.677 347.922 295.519 348.405C295.362 348.888 295.093 349.328 294.735 349.689L293.117 351.288C293.524 352.562 294.352 353.661 295.467 354.404C296.582 355.147 297.917 355.49 299.253 355.377L299.629 352.957C299.68 352.454 299.859 351.972 300.149 351.558C300.44 351.144 300.832 350.812 301.289 350.593C302.028 350.398 302.488 351.107 302.321 352.178L301.93 354.584C305.346 352.82 308.146 350.066 309.962 346.684L308.735 345.864C308.539 345.67 308.4 345.426 308.331 345.159C308.262 344.893 308.267 344.612 308.345 344.348C308.396 344.003 308.504 343.67 308.666 343.361C309.168 342.331 310.06 341.789 310.59 342.164L311.831 342.985C312.652 340.991 313.242 338.91 313.588 336.782C313.911 334.87 313.954 332.921 313.713 330.997L312.096 332.596C311.901 332.802 311.656 332.955 311.385 333.041C311.275 333.072 311.16 333.079 311.048 333.061C310.935 333.043 310.828 333.001 310.734 332.937C310.64 332.874 310.56 332.79 310.502 332.693C310.443 332.595 310.407 332.486 310.395 332.373C310.312 331.871 310.351 331.357 310.509 330.873C310.666 330.389 310.938 329.95 311.301 329.592L312.919 327.993C312.507 326.72 311.675 325.624 310.558 324.883C309.441 324.143 308.105 323.803 306.769 323.918L306.393 326.324C306.339 326.815 306.159 327.284 305.871 327.686C305.583 328.088 305.196 328.409 304.747 328.618C304.022 328.813 303.562 328.104 303.729 327.047L304.12 324.627C300.707 326.395 297.908 329.148 296.088 332.526L297.315 333.361C297.513 333.551 297.656 333.791 297.727 334.056C297.798 334.32 297.796 334.6 297.719 334.863C297.655 335.209 297.547 335.545 297.398 335.864C296.882 336.893 296.004 337.422 295.474 337.06L294.233 336.226C293.397 338.225 292.802 340.317 292.462 342.457C292.138 344.364 292.096 346.308 292.337 348.228L293.968 346.629C294.155 346.419 294.396 346.265 294.665 346.184C294.778 346.155 294.896 346.151 295.011 346.173C295.125 346.196 295.233 346.243 295.327 346.313C295.42 346.382 295.497 346.471 295.552 346.574C295.606 346.677 295.637 346.791 295.641 346.907V346.907Z" fill="#1C1F2C"/>
<path d="M189.828 412.704L305.818 345.947C307.091 345.033 308.131 343.836 308.858 342.45C309.584 341.064 309.976 339.528 310.001 337.964C310.001 334.891 308.119 333.472 305.818 334.807L288.123 345.029L284.874 345.321L181.448 403.4L189.828 412.704Z" fill="#1C1F2C"/>
<path d="M293.394 351.01L305.944 343.819C306.751 343.247 307.412 342.493 307.872 341.618C308.333 340.743 308.58 339.773 308.594 338.785V338.785C308.594 336.852 307.408 336.003 305.944 336.796L293.394 343.986C292.59 344.561 291.933 345.316 291.475 346.191C291.018 347.065 290.772 348.035 290.759 349.021V349.021C290.759 350.954 291.93 351.844 293.394 351.01Z" fill="#2E3242"/>
<path d="M293.52 348.604L305.749 341.553C306.02 341.362 306.242 341.11 306.398 340.818C306.553 340.525 306.636 340.201 306.642 339.87C306.642 339.216 306.237 338.924 305.749 339.202L293.52 346.253C293.249 346.444 293.027 346.696 292.871 346.988C292.716 347.281 292.633 347.605 292.627 347.936C292.627 348.59 293.032 348.882 293.52 348.604Z" fill="#6366F1"/>
<path d="M189.814 412.704L172.286 402.607L163.919 393.233L181.447 403.33L189.814 412.704Z" fill="#1C1F2C"/>
<path d="M170.213 382.58L259.653 331.122L282.745 344.431V348.02L193.319 399.478C185.273 404.109 173.573 404.888 167.201 401.216C164.482 399.645 163.185 397.517 163.199 395.236C163.199 394.652 163.199 392.288 163.199 391.676C163.241 388.644 165.611 385.362 170.213 382.58Z" fill="#2E3242"/>
<path d="M170.213 381.064L259.653 329.606L282.745 342.915V346.42L193.319 397.878C185.273 402.51 173.573 403.288 167.201 399.617C164.482 398.045 163.185 395.917 163.199 393.637C163.199 393.052 163.199 390.688 163.199 390.076C163.241 387.086 165.611 383.734 170.213 381.064Z" fill="#6366F1"/>
<path opacity="0.3" d="M170.213 381.064L259.653 329.606L282.745 342.915V346.42L193.319 397.878C185.273 402.51 173.573 403.288 167.201 399.617C164.482 398.045 163.185 395.917 163.199 393.637C163.199 393.052 163.199 390.688 163.199 390.076C163.241 387.086 165.611 383.734 170.213 381.064Z" fill="#1C1F2C"/>
<path d="M167.215 396.112C173.587 399.784 185.343 399.019 193.333 394.388L282.745 342.929L278.729 340.593L276.428 339.272L265.858 333.18L259.681 329.606L170.255 381.064C162.181 385.695 160.842 392.441 167.215 396.112Z" fill="#2E3242"/>
<path d="M276.424 339.23L278.724 340.551C281.248 326.741 289.741 312.736 299.85 306.895C302.375 305.338 305.253 304.443 308.217 304.294C309.024 304.253 309.834 304.305 310.629 304.447C311.102 304.531 311.567 304.647 312.024 304.794L312.205 304.864C312.456 304.947 312.707 305.031 312.972 305.142C313.451 305.356 313.916 305.597 314.366 305.865C314.621 306.015 314.868 306.177 315.105 306.352L315.621 306.742C316.463 307.436 317.217 308.23 317.866 309.106C318.265 309.64 318.624 310.203 318.94 310.789C319.289 311.403 319.596 312.039 319.861 312.694C320.34 313.172 320.949 313.501 321.613 313.639C322.276 313.777 322.966 313.72 323.598 313.473C322.287 307.91 319.596 303.988 315.998 301.916C311.675 299.426 306.028 299.663 299.85 303.223C288.932 309.509 279.673 324.279 276.424 339.23Z" fill="#6366F1"/>
<path opacity="0.4" d="M276.424 339.23L278.724 340.551C281.248 326.741 289.741 312.736 299.85 306.895C302.375 305.338 305.253 304.443 308.217 304.294C309.024 304.253 309.834 304.305 310.629 304.447C311.102 304.531 311.567 304.647 312.024 304.794L312.205 304.864C312.456 304.947 312.707 305.031 312.972 305.142C313.451 305.356 313.916 305.597 314.366 305.865C314.621 306.015 314.868 306.177 315.105 306.352L315.621 306.742C316.463 307.436 317.217 308.23 317.866 309.106C318.265 309.64 318.624 310.203 318.94 310.789C319.289 311.403 319.596 312.039 319.861 312.694C320.34 313.172 320.949 313.501 321.613 313.639C322.276 313.777 322.966 313.72 323.598 313.473C322.287 307.91 319.596 303.988 315.998 301.916C311.675 299.426 306.028 299.663 299.85 303.223C288.932 309.509 279.673 324.279 276.424 339.23Z" fill="#1C1F2C"/>
<path d="M276.41 339.23C279.659 324.279 288.96 309.509 299.837 303.223C306.014 299.663 311.662 299.426 315.984 301.916L305.387 295.81C301.064 293.321 295.43 293.557 289.253 297.118C278.32 303.404 269.061 318.174 265.826 333.124C264.404 339.647 269.647 343.124 276.41 339.23Z" fill="#2E3242"/>
<path opacity="0.2" d="M276.41 339.23C279.659 324.279 288.96 309.509 299.837 303.223C306.014 299.663 311.662 299.426 315.984 301.916L305.387 295.81C301.064 293.321 295.43 293.557 289.253 297.118C278.32 303.404 269.061 318.174 265.826 333.124C264.404 339.647 269.647 343.124 276.41 339.23Z" fill="#1C1F2C"/>
<path d="M142.82 384.903C142.936 384.902 143.051 384.873 143.155 384.819C143.257 384.777 143.349 384.715 143.426 384.636C143.503 384.557 143.564 384.464 143.604 384.361C143.645 384.259 143.664 384.149 143.661 384.039C143.658 383.929 143.633 383.821 143.587 383.721C138.441 372.136 140.282 364.472 143.726 361.176C144.856 360.069 146.31 359.35 147.878 359.125C149.446 358.9 151.045 359.18 152.442 359.925C152.641 360.022 152.872 360.037 153.082 359.965C153.293 359.893 153.466 359.741 153.564 359.542C153.662 359.343 153.677 359.113 153.605 358.903C153.533 358.693 153.38 358.52 153.181 358.423C151.472 357.53 149.525 357.199 147.617 357.476C145.708 357.753 143.937 358.625 142.555 359.966C138.706 363.666 136.559 372.024 142.053 384.402C142.12 384.55 142.227 384.676 142.363 384.764C142.499 384.853 142.657 384.901 142.82 384.903Z" fill="#1C1F2C"/>
<path d="M138.137 389.089C138.253 389.093 138.367 389.069 138.472 389.02C138.572 388.976 138.664 388.912 138.74 388.834C138.816 388.755 138.876 388.661 138.916 388.559C138.956 388.457 138.976 388.349 138.974 388.239C138.972 388.129 138.948 388.021 138.904 387.921C134.01 376.544 135.808 366.851 138.834 362.011C140.411 359.487 142.912 357.675 145.807 356.962C147.069 356.682 148.375 356.66 149.645 356.899C150.916 357.138 152.124 357.633 153.197 358.353C153.381 358.445 153.593 358.467 153.792 358.413C153.99 358.359 154.162 358.235 154.274 358.062C154.387 357.89 154.431 357.683 154.4 357.48C154.368 357.277 154.263 357.093 154.104 356.962C152.844 356.119 151.425 355.542 149.933 355.264C148.442 354.987 146.91 355.016 145.43 355.349C142.08 356.152 139.181 358.234 137.356 361.149C134.107 366.336 132.155 376.628 137.356 388.616C137.43 388.759 137.542 388.878 137.68 388.962C137.818 389.045 137.976 389.089 138.137 389.089V389.089Z" fill="#1C1F2C"/>
<path d="M119.146 431.646C119.146 416.209 128.545 398.268 140.147 391.606C140.76 391.258 141.346 390.98 141.946 390.702L142.113 390.619C142.517 390.438 142.908 390.299 143.312 390.146L144.219 389.826C144.511 389.729 144.804 389.659 145.097 389.589C145.39 389.52 145.892 389.395 146.282 389.325L146.924 389.242C147.384 389.242 147.844 389.158 148.318 389.144H149.42C153.411 389.275 157.31 390.376 160.778 392.352C164.246 394.327 167.178 397.117 169.319 400.479C171.444 403.443 172.717 406.929 173 410.562C173.149 411.641 173.228 412.728 173.237 413.817C173.244 413.909 173.244 414.002 173.237 414.095C173.237 414.206 173.237 414.289 173.237 414.401C173.237 429.838 163.838 447.779 152.237 454.441C151.623 454.789 151.023 455.067 150.438 455.345L150.27 455.428C149.866 455.609 149.462 455.748 149.071 455.901C148.681 456.054 148.458 456.138 148.165 456.221C147.872 456.304 147.579 456.388 147.286 456.457C146.993 456.527 146.478 456.652 146.087 456.722L145.46 456.805C144.999 456.805 143.438 456.93 143.27 456.93H142.991C138.998 456.794 135.097 455.69 131.628 453.712C128.158 451.735 125.224 448.944 123.079 445.582C120.956 442.618 119.688 439.131 119.411 435.499C119.261 434.42 119.182 433.333 119.174 432.244C119.167 432.152 119.167 432.059 119.174 431.966C119.174 431.869 119.174 431.771 119.174 431.66L119.146 431.646Z" fill="#1C1F2C"/>
<path d="M139.584 456.111C130.315 452.178 128.455 435.736 135.429 419.389C142.404 403.041 155.572 392.977 164.841 396.911C174.11 400.845 175.97 417.286 168.996 433.634C162.021 449.981 148.853 460.045 139.584 456.111Z" fill="#EDF0F8"/>
<path opacity="0.4" d="M146.085 449.434C148.358 449.361 150.573 448.7 152.513 447.515C161.172 442.522 168.214 429.129 168.214 417.641C168.214 411.466 166.165 406.752 162.637 404.693C159.639 402.969 155.846 403.302 151.941 405.5C143.282 410.479 136.24 423.886 136.24 435.36C136.24 441.535 138.29 446.249 141.818 448.321C143.117 449.06 144.589 449.444 146.085 449.434V449.434ZM158.314 404.832C159.59 404.82 160.846 405.147 161.953 405.778C165.133 407.614 166.959 411.939 166.959 417.641C166.959 428.767 160.196 441.632 151.885 446.416C148.385 448.433 145.039 448.725 142.445 447.237C139.266 445.401 137.439 441.076 137.439 435.36C137.439 424.233 144.202 411.369 152.513 406.585C154.259 405.504 156.26 404.9 158.314 404.832V404.832Z" fill="#1C1F2C"/>
<path d="M144.832 433.746C144.914 434.248 144.875 434.763 144.717 435.247C144.56 435.731 144.288 436.17 143.925 436.528L142.322 438.127C142.728 439.4 143.557 440.498 144.673 441.238C145.788 441.979 147.122 442.319 148.457 442.202L148.834 439.796C148.889 439.307 149.067 438.84 149.353 438.439C149.638 438.037 150.021 437.715 150.465 437.501C151.204 437.307 151.664 438.016 151.497 439.073L151.107 441.493C154.516 439.72 157.314 436.969 159.139 433.593L157.911 432.759C157.715 432.568 157.576 432.327 157.507 432.062C157.438 431.797 157.443 431.519 157.521 431.257C157.572 430.908 157.681 430.57 157.842 430.255C158.344 429.226 159.236 428.698 159.752 429.059L161.007 429.894C161.829 427.895 162.418 425.809 162.764 423.677C163.088 421.765 163.13 419.816 162.89 417.892L161.272 419.491C161.081 419.702 160.835 419.856 160.561 419.936C160.452 419.97 160.338 419.979 160.225 419.963C160.113 419.947 160.005 419.906 159.911 419.843C159.816 419.781 159.736 419.698 159.677 419.601C159.619 419.504 159.582 419.395 159.571 419.282C159.487 418.78 159.526 418.265 159.683 417.781C159.841 417.297 160.113 416.858 160.477 416.501L162.095 414.901C161.684 413.627 160.852 412.53 159.735 411.787C158.619 411.045 157.283 410.701 155.945 410.813L155.569 413.233C155.51 413.722 155.328 414.189 155.041 414.59C154.753 414.991 154.369 415.313 153.923 415.527C153.198 415.722 152.738 415.013 152.905 413.942L153.296 411.536C149.88 413.3 147.08 416.054 145.264 419.435L146.491 420.256C146.69 420.448 146.831 420.692 146.9 420.959C146.969 421.227 146.962 421.508 146.881 421.772C146.827 422.114 146.723 422.446 146.575 422.759C146.059 423.788 145.18 424.331 144.65 423.955L143.395 423.135C142.57 425.132 141.98 427.218 141.638 429.352C141.315 431.259 141.272 433.203 141.513 435.123L143.13 433.524C143.328 433.32 143.572 433.168 143.842 433.079C143.951 433.048 144.066 433.041 144.179 433.059C144.291 433.077 144.398 433.119 144.492 433.183C144.587 433.246 144.666 433.33 144.725 433.427C144.783 433.524 144.82 433.633 144.832 433.746V433.746Z" fill="#1C1F2C"/>
<path d="M153.726 371.176L156.626 353.805L186.174 386.669C187.736 388.393 187.29 390.563 184.78 392.009C183.036 392.89 181.108 393.35 179.153 393.35C177.198 393.35 175.271 392.89 173.527 392.009C173.009 391.715 172.539 391.345 172.132 390.911V390.911L153.726 371.176Z" fill="#1C1F2C"/>
<path d="M147.396 378.547L155.372 331.831L165.371 332.387L161.327 356.114L158.426 373.484L157.38 379.214C157.275 379.577 157.098 379.914 156.858 380.206C156.618 380.497 156.322 380.737 155.986 380.911C154.886 381.467 153.67 381.757 152.437 381.757C151.204 381.757 149.988 381.467 148.888 380.911C148.413 380.736 148.01 380.409 147.74 379.982C147.47 379.554 147.349 379.05 147.396 378.547Z" fill="#2E3242"/>
<path d="M163.864 334.279C162.766 334.841 161.549 335.135 160.315 335.135C159.081 335.135 157.864 334.841 156.766 334.279C154.8 333.152 154.8 331.33 156.766 330.19C157.866 329.634 159.082 329.344 160.315 329.344C161.548 329.344 162.764 329.634 163.864 330.19C165.83 331.33 165.83 333.152 163.864 334.279Z" fill="#6366F1"/>
<path opacity="0.3" d="M163.864 334.279C162.766 334.841 161.549 335.135 160.315 335.135C159.081 335.135 157.864 334.841 156.766 334.279C154.8 333.152 154.8 331.33 156.766 330.19C157.866 329.634 159.082 329.344 160.315 329.344C161.548 329.344 162.764 329.634 163.864 330.19C165.83 331.33 165.83 333.152 163.864 334.279Z" fill="#1C1F2C"/>
<path d="M157.772 377.017C157.033 381.468 164.465 386.752 163.057 394.819C161.648 402.885 157.967 424.665 157.967 424.665C157.061 429.115 154.606 432.564 151.581 433.315C149.238 433.802 147.314 431.925 147.913 427.099L153.1 396.683C153.798 392.58 145.794 389.729 143.339 390.202C140.074 391.454 137.109 393.378 134.638 395.848C135.279 393.067 135.614 391.884 136.521 388.157C138.556 379.813 147.383 378.686 148.499 372.191L157.772 377.017Z" fill="#2E3242"/>
<path d="M149.599 427.822L151.956 413.636C152.211 412.682 152.688 411.802 153.346 411.065C154.005 410.328 154.828 409.756 155.748 409.394V409.394C157.561 408.712 158.816 409.505 158.537 411.16L156.181 425.346C155.926 426.298 155.452 427.178 154.796 427.914C154.14 428.651 153.32 429.224 152.402 429.588C150.575 430.269 149.292 429.477 149.599 427.822Z" fill="#2E3242"/>
<path d="M151.818 426.862L154.118 412.954C154.209 412.641 154.37 412.353 154.59 412.112C154.81 411.87 155.083 411.683 155.387 411.564C156.001 411.327 156.419 411.564 156.336 412.148L154.021 426.055C153.934 426.371 153.774 426.661 153.554 426.903C153.333 427.144 153.058 427.33 152.752 427.446V427.446C152.083 427.683 151.72 427.418 151.818 426.862Z" fill="#6366F1"/>
<path d="M158.454 164.425L163.32 156.08L142.752 144.245C142.363 144.054 141.929 143.972 141.496 144.009C141.064 144.045 140.649 144.199 140.298 144.453C139.3 145.106 138.469 145.983 137.873 147.015C137.277 148.046 136.933 149.203 136.868 150.392C136.827 150.808 136.894 151.227 137.062 151.609C137.231 151.992 137.495 152.324 137.83 152.575V152.575L158.454 164.425Z" fill="#2E3242"/>
<path d="M157.452 162.213C157.452 164.397 158.999 165.287 160.896 164.188C161.896 163.541 162.728 162.666 163.324 161.637C163.92 160.607 164.263 159.451 164.326 158.264C164.326 156.08 162.792 155.19 160.896 156.275C159.896 156.927 159.063 157.803 158.464 158.835C157.866 159.866 157.519 161.024 157.452 162.213Z" fill="#1C1F2C"/>
<path d="M161.438 158.514C161.719 158.333 162.055 158.259 162.386 158.305L182.522 169.863L182.996 170.141L180.639 174.23L160.518 162.686L159.96 162.339C159.782 162.093 159.697 161.792 159.723 161.49C159.759 160.896 159.932 160.317 160.23 159.801C160.527 159.285 160.941 158.844 161.438 158.514V158.514Z" fill="#2E3242"/>
<path d="M156.376 331.761L183.889 170.767L191.739 171.212L167.295 314.141L165.008 327.784L164.199 332.29C164.121 332.587 163.981 332.864 163.789 333.103C163.597 333.343 163.356 333.539 163.083 333.681C162.219 334.119 161.264 334.348 160.295 334.348C159.325 334.348 158.37 334.119 157.506 333.681C157.13 333.532 156.814 333.263 156.61 332.915C156.405 332.567 156.323 332.161 156.376 331.761V331.761Z" fill="#1C1F2C"/>
<path opacity="0.3" d="M183.57 172.658H191.504L189.008 187.219L182.705 188.708C182.092 188.847 181.436 188.958 180.767 189.041L183.57 172.658Z" fill="black"/>
<path d="M190.581 172.686C189.717 173.124 188.761 173.353 187.792 173.353C186.822 173.353 185.867 173.124 185.003 172.686C184.666 172.572 184.374 172.356 184.168 172.067C183.961 171.779 183.849 171.434 183.849 171.08C183.849 170.725 183.961 170.38 184.168 170.092C184.374 169.804 184.666 169.587 185.003 169.473C185.869 169.041 186.823 168.816 187.792 168.816C188.76 168.816 189.715 169.041 190.581 169.473C190.917 169.587 191.209 169.804 191.416 170.092C191.623 170.38 191.734 170.725 191.734 171.08C191.734 171.434 191.623 171.779 191.416 172.067C191.209 172.356 190.917 172.572 190.581 172.686Z" fill="#4F556D"/>
<path d="M182.76 185.217C178.242 186.274 172.107 185.717 169.067 183.965C167.784 183.228 167.268 182.394 167.421 181.601C167.645 180.502 169.513 169.223 169.513 169.223L200.442 169.14L198.35 181.559L182.76 185.217Z" fill="#1C1F2C"/>
<path d="M184.795 172.797C180.277 173.854 174.155 173.298 171.115 171.545C169.846 170.822 169.317 170.002 169.456 169.223C169.651 168.11 171.157 167.081 173.807 166.441L189.383 162.839L200.385 169.181L184.795 172.797Z" fill="#2E3242"/>
<path d="M192.647 175.62L215.642 188.888L213.299 192.949L190.318 179.779C188.966 179.014 190.793 174.828 192.647 175.62Z" fill="#2E3242"/>
<path d="M226.405 202.754L231.272 194.41L210.648 182.519C210.255 182.33 209.818 182.251 209.383 182.29C208.949 182.329 208.533 182.485 208.18 182.741C207.18 183.389 206.348 184.263 205.752 185.293C205.156 186.323 204.812 187.479 204.75 188.666C204.709 189.082 204.776 189.501 204.944 189.883C205.113 190.266 205.377 190.598 205.712 190.849V190.849L226.405 202.754Z" fill="#2E3242"/>
<path d="M225.399 200.543C225.399 202.726 226.933 203.603 228.829 202.518C229.828 201.865 230.659 200.988 231.255 199.957C231.85 198.925 232.195 197.768 232.26 196.579C232.26 194.396 230.726 193.506 228.829 194.604C227.829 195.254 226.996 196.131 226.4 197.163C225.804 198.195 225.461 199.353 225.399 200.543Z" fill="#1C1F2C"/>
<path d="M164.199 174.355L167.588 172.366C168.193 172.125 168.851 172.048 169.495 172.143C170.139 172.239 170.747 172.503 171.255 172.908C172.728 173.975 173.929 175.371 174.762 176.984C175.595 178.598 176.037 180.384 176.052 182.199C176.086 182.848 175.948 183.494 175.651 184.072C175.355 184.651 174.912 185.142 174.365 185.495V185.495L170.976 187.484C170.37 187.723 169.712 187.798 169.067 187.7C168.423 187.602 167.816 187.336 167.309 186.927C165.834 185.864 164.632 184.469 163.801 182.854C162.97 181.24 162.533 179.452 162.526 177.637C162.486 176.991 162.62 176.346 162.914 175.769C163.209 175.192 163.652 174.703 164.199 174.355V174.355Z" fill="#2E3242"/>
<path d="M171.048 187.456L174.395 185.495C174.942 185.142 175.386 184.651 175.682 184.072C175.978 183.494 176.116 182.848 176.082 182.199C176.11 180.588 175.761 178.993 175.064 177.54L171.606 179.529C172.303 180.982 172.652 182.577 172.624 184.188C172.661 184.821 172.536 185.453 172.26 186.025C171.984 186.597 171.567 187.089 171.048 187.456V187.456Z" fill="#1C1F2C"/>
<path d="M167.295 186.941C165.82 185.878 164.618 184.482 163.787 182.868C162.956 181.253 162.519 179.466 162.512 177.651C162.666 174.327 165.078 173.089 167.881 174.869C169.353 175.936 170.555 177.332 171.388 178.945C172.221 180.559 172.663 182.345 172.678 184.16C172.51 187.511 170.098 188.749 167.295 186.941Z" fill="#2E3242"/>
<path d="M169.654 186.719C171.3 186.788 171.579 184.939 171.621 184.132C171.595 182.504 171.193 180.904 170.446 179.456C169.698 178.009 168.626 176.753 167.312 175.787C166.783 175.42 166.168 175.195 165.527 175.134C163.881 175.05 163.603 176.9 163.575 177.707C163.594 179.334 163.992 180.935 164.737 182.383C165.483 183.831 166.555 185.087 167.87 186.051C168.399 186.42 169.013 186.65 169.654 186.719Z" fill="#1C1F2C"/>
<path d="M167.312 175.787C166.837 175.46 166.293 175.246 165.722 175.161C165.437 175.703 165.279 176.302 165.262 176.914C165.284 178.542 165.685 180.144 166.432 181.592C167.18 183.04 168.254 184.295 169.571 185.258C170.048 185.583 170.591 185.802 171.16 185.898C171.446 185.352 171.604 184.748 171.621 184.132C171.595 182.504 171.193 180.904 170.446 179.456C169.698 178.009 168.626 176.753 167.312 175.787V175.787Z" fill="#6366F1"/>
<g clip-path="url(#clip0_5115_11747)">
<g clip-path="url(#clip1_5115_11747)">
<path d="M430.479 525.244L289.122 524.609C272.122 524.537 258.405 510.74 258.5 493.789L260.032 140.564C260.105 123.613 273.949 109.918 290.96 110L432.317 110.635C449.317 110.707 463.034 124.504 462.939 141.455L461.397 494.68C461.334 511.631 447.49 525.326 430.479 525.244Z" fill="#1C1F2C"/>
<path d="M435.137 122.291L406.87 122.189C405.947 122.205 405.037 122.397 404.192 122.754C403.346 123.111 402.581 123.627 401.941 124.271C401.301 124.914 400.798 125.674 400.46 126.507C400.123 127.34 399.958 128.229 399.974 129.123V134.091C400.003 135.894 399.293 137.634 398 138.93C396.707 140.226 394.938 140.972 393.079 141.005L337.97 140.759C336.109 140.708 334.344 139.943 333.063 138.631C331.782 137.32 331.09 135.569 331.138 133.763V128.795C331.164 127.901 331.007 127.01 330.677 126.174C330.348 125.339 329.851 124.574 329.217 123.924C328.582 123.275 327.822 122.753 326.98 122.388C326.137 122.024 325.229 121.824 324.307 121.8H314.36L289.598 121.646C286.674 121.633 283.777 122.179 281.07 123.253C278.364 124.327 275.903 125.908 273.828 127.906C271.753 129.904 270.104 132.279 268.976 134.896C267.848 137.513 267.263 140.319 267.255 143.155L265.745 489.241C265.731 492.077 266.294 494.888 267.401 497.513C268.509 500.138 270.139 502.525 272.198 504.539C274.258 506.552 276.707 508.151 279.404 509.245C282.102 510.339 284.995 510.906 287.919 510.914L433.437 511.57C436.36 511.582 439.257 511.035 441.963 509.961C444.668 508.886 447.129 507.305 449.204 505.307C451.279 503.309 452.928 500.935 454.056 498.319C455.185 495.703 455.77 492.896 455.78 490.061L457.279 143.965C457.302 138.244 454.983 132.748 450.831 128.684C446.679 124.62 441.035 122.321 435.137 122.291V122.291Z" fill="#F6F7FB"/>
<path d="M405.141 287.19C403.519 287.204 401.897 287.218 400.003 287.234C400.018 289.003 400.032 290.592 400.047 292.354C394.82 292.4 389.863 292.443 384.704 292.488C384.748 297.693 384.793 302.717 384.839 308.05C386.461 308.036 388.143 308.021 389.826 308.007C389.841 309.697 389.855 311.386 389.872 313.335C387.936 313.351 386.354 313.366 384.812 313.38C384.828 315.173 384.842 316.691 384.855 318.285C391.717 318.226 398.447 318.167 405.194 318.107C405.165 314.652 405.135 311.353 405.105 307.948C399.868 307.994 394.812 308.039 389.753 308.081C389.739 306.455 389.725 304.83 389.709 302.927C393.209 302.896 396.515 302.868 400.001 302.837C399.985 301.041 399.972 299.522 399.957 297.81C401.715 297.795 403.293 297.78 405.154 297.764C405.167 299.322 405.181 300.908 405.197 302.668C406.989 302.652 408.508 302.638 410.308 302.623C410.354 307.831 410.397 312.866 410.443 318.176C412.296 318.159 413.875 318.146 415.575 318.131C415.606 321.652 415.634 324.894 415.664 328.325C414.089 328.338 412.515 328.353 410.656 328.369C410.643 326.789 410.628 325.202 410.615 323.506C408.824 323.521 407.307 323.536 405.509 323.551C405.522 325.134 405.537 326.719 405.552 328.45C403.698 328.467 402.122 328.48 400.356 328.496C400.343 326.876 400.33 325.353 400.315 323.654C398.555 323.669 396.978 323.684 395.208 323.699C395.221 325.232 395.234 326.753 395.249 328.483C393.491 328.498 391.914 328.513 390.055 328.529C390.042 327.024 390.028 325.435 390.014 323.711C388.226 323.726 386.706 323.74 384.91 323.755C384.923 325.264 384.936 326.849 384.952 328.736C381.277 328.769 377.87 328.799 374.462 328.828L374.536 328.901C374.506 325.561 374.478 322.221 374.446 318.605C372.686 318.62 371.107 318.635 369.387 318.65C369.371 316.8 369.358 315.224 369.343 313.464C372.674 313.434 375.908 313.406 379.329 313.377C379.3 309.905 379.27 306.608 379.239 302.931C377.598 302.946 375.915 302.961 374.234 302.976L374.305 303.051C374.29 301.372 374.276 299.692 374.259 297.758C376.106 297.741 377.682 297.728 379.19 297.715C379.174 295.875 379.161 294.307 379.146 292.668C375.629 292.7 372.305 292.728 368.982 292.757C368.991 291.008 368.999 289.259 369.007 287.51L368.937 287.582C372.324 287.553 375.711 287.523 379.136 287.493C379.119 285.593 379.106 284.021 379.09 282.191C377.357 282.205 375.785 282.219 374.125 282.234C374.109 280.354 374.094 278.738 374.08 277.121L374.011 277.198C375.627 277.184 377.243 277.17 379.122 277.153C379.108 275.408 379.093 273.827 379.078 272.098C384.34 272.052 389.338 272.009 394.693 271.962C394.723 275.386 394.752 278.781 394.782 282.176C391.389 282.206 387.997 282.235 384.586 282.265C384.602 284.112 384.615 285.682 384.629 287.23C388.088 287.2 391.375 287.17 394.751 287.141C394.735 285.343 394.721 283.722 394.707 282.102C398.171 282.1 401.635 282.099 405.098 282.097L405.027 282.022C405.042 283.77 405.058 285.517 405.073 287.265L405.141 287.19Z" fill="#2E3242"/>
<path d="M306.703 231.313C318.724 231.207 330.557 231.105 342.525 231C342.628 242.968 342.732 254.822 342.837 266.88C330.986 266.983 319.091 267.087 307.015 267.192C306.912 255.343 306.808 243.428 306.703 231.313ZM337.582 261.844C337.506 253.167 337.432 244.701 337.36 236.307C328.722 236.383 320.271 236.457 311.869 236.529C311.945 245.142 312.017 253.548 312.091 262.066C320.619 261.992 329.01 261.919 337.582 261.844Z" fill="#2E3242"/>
<path d="M343.176 303.469C343.281 315.508 343.383 327.362 343.488 339.35C331.541 339.454 319.708 339.558 307.671 339.663C307.567 327.794 307.464 315.88 307.359 303.782C319.183 303.678 331.077 303.574 343.176 303.469ZM312.543 308.838C312.618 317.515 312.692 325.983 312.765 334.375C321.402 334.3 329.855 334.227 338.255 334.153C338.18 325.54 338.107 317.133 338.033 308.616C329.506 308.69 321.116 308.764 312.543 308.838Z" fill="#2E3242"/>
<path d="M378.982 230.679C390.993 230.573 402.826 230.471 414.796 230.366C414.9 242.331 415.003 254.185 415.108 266.247C403.268 266.351 391.374 266.455 379.294 266.56C379.191 254.719 379.087 242.805 378.982 230.679ZM409.704 235.652C401.046 235.728 392.593 235.802 384.211 235.875C384.286 244.526 384.36 252.994 384.432 261.413C393.03 261.337 401.421 261.265 409.925 261.191C409.851 252.647 409.778 244.242 409.704 235.652Z" fill="#2E3242"/>
<path d="M368.58 246.215C370.2 246.201 371.822 246.186 373.607 246.17C373.637 249.587 373.665 252.89 373.696 256.389C370.4 256.417 367.163 256.445 363.644 256.476C363.675 259.961 363.704 263.269 363.733 266.736C361.879 266.752 360.304 266.766 358.54 266.782C358.527 265.208 358.514 263.683 358.499 261.97C356.742 261.985 355.165 261.999 353.303 262.016C353.331 265.289 353.361 268.598 353.39 272.049C351.425 272.067 349.735 272.08 348.041 272.093C348.038 272.091 348.124 272.165 348.121 272.162C348.059 265.393 348 258.628 347.939 251.609C354.882 251.548 361.602 251.49 368.698 251.428C368.682 249.507 368.667 247.825 368.652 246.142L368.58 246.215Z" fill="#2E3242"/>
<path d="M374.228 302.976C374.243 304.601 374.256 306.226 374.273 308.127C370.865 308.157 367.56 308.187 364.081 308.216C364.096 310.004 364.109 311.525 364.124 313.248C360.649 313.277 357.352 313.307 353.657 313.34C353.644 311.713 353.627 310.026 353.614 308.339C355.291 308.324 356.966 308.31 358.65 308.295C358.634 306.443 358.621 304.872 358.607 303.336C356.865 303.351 355.298 303.365 353.644 303.379C353.66 305.178 353.673 306.794 353.687 308.41C352.065 308.425 350.444 308.438 348.534 308.455C348.488 303.127 348.444 297.993 348.398 292.86L348.322 292.931C350.067 292.916 351.812 292.9 353.556 292.885L353.484 292.814C353.499 294.502 353.514 296.189 353.528 297.986C357.248 297.953 360.589 297.924 363.93 297.895C363.945 299.583 363.96 301.268 363.976 303.137C367.618 303.106 370.958 303.077 374.298 303.047L374.228 302.976Z" fill="#2E3242"/>
<path d="M405.095 282.097C405.082 280.472 405.067 278.849 405.051 276.953C403.296 276.968 401.715 276.983 399.997 276.998C399.982 275.213 399.969 273.693 399.954 271.966C403.179 271.938 406.473 271.91 410.047 271.879C410.06 273.379 410.073 274.961 410.09 276.814C411.936 276.798 413.52 276.784 415.216 276.77C415.262 282.002 415.305 286.963 415.349 292.119C412.077 292.147 408.783 292.177 405.184 292.208C405.169 290.565 405.154 288.878 405.139 287.193L405.07 287.27C406.748 287.255 408.428 287.24 410.091 287.225C410.075 285.294 410.06 283.719 410.045 281.982C408.253 281.997 406.639 282.011 405.024 282.026L405.095 282.097Z" fill="#2E3242"/>
<path d="M374.457 328.828C374.468 330.577 374.478 332.327 374.488 334.076L374.561 334.002C371.236 334.031 367.912 334.06 364.319 334.091C364.334 335.821 364.347 337.398 364.363 339.137C362.53 339.153 360.961 339.167 359.129 339.183C359.099 335.764 359.07 332.368 359.04 328.972L358.965 329.043C360.652 329.028 362.337 329.013 364.199 328.997C364.181 327 364.168 325.377 364.153 323.754L364.084 323.831C365.698 323.816 367.313 323.803 369.194 323.786C369.208 325.451 369.222 327.029 369.238 328.947C371.169 328.93 372.85 328.916 374.53 328.901C374.531 328.901 374.457 328.828 374.457 328.828Z" fill="#2E3242"/>
<path d="M322.401 288.135C322.43 291.535 322.458 294.769 322.488 298.147C320.814 298.162 319.243 298.175 317.489 298.19C317.476 296.573 317.462 295.053 317.448 293.351C315.7 293.366 314.125 293.381 312.275 293.397C312.289 294.955 312.302 296.536 312.317 298.246C310.537 298.261 309.021 298.275 307.305 298.291C307.276 295.052 307.248 291.752 307.217 288.266C312.154 288.223 317.161 288.18 322.401 288.135Z" fill="#2E3242"/>
<path d="M368.649 246.141C365.308 246.17 361.966 246.198 358.453 246.229C358.409 241.081 358.364 236.057 358.32 230.888C359.871 230.874 361.388 230.861 363.186 230.845C363.214 234.081 363.243 237.391 363.275 241.09C365.222 241.072 366.906 241.059 368.59 241.044L368.516 240.971C368.537 242.719 368.556 244.467 368.577 246.213C368.577 246.215 368.649 246.141 368.649 246.141Z" fill="#2E3242"/>
<path d="M307.061 282.709C307.032 279.353 307.004 276.119 306.974 272.727C310.356 272.698 313.644 272.67 317.07 272.64C317.098 275.948 317.126 279.182 317.157 282.622C313.915 282.65 310.623 282.678 307.061 282.709Z" fill="#2E3242"/>
<path d="M368.594 241.045C368.565 237.711 368.536 234.377 368.505 230.85C370.157 230.836 371.726 230.822 373.469 230.807C373.497 234.053 373.525 237.344 373.556 240.928C371.877 240.943 370.198 240.958 368.52 240.973C368.52 240.973 368.594 241.045 368.594 241.045Z" fill="#2E3242"/>
<path d="M352.937 246.197C351.251 246.212 349.739 246.225 348.092 246.24C348.062 242.832 348.034 239.536 348.004 236.123C349.643 236.109 351.155 236.095 352.85 236.081C352.878 239.385 352.906 242.682 352.937 246.197Z" fill="#2E3242"/>
<path d="M337.982 282.604C334.643 282.633 331.305 282.662 327.668 282.694C327.653 280.902 327.638 279.218 327.623 277.532L327.551 277.606C331.015 277.574 334.479 277.541 337.944 277.507L337.867 277.438C337.882 279.185 337.898 280.933 337.913 282.681L337.982 282.604Z" fill="#2E3242"/>
<path d="M353.693 328.933C353.723 332.332 353.752 335.732 353.783 339.264C352.192 339.278 350.681 339.291 348.966 339.306C348.938 336.075 348.91 332.784 348.877 329.044C350.442 329.031 352.107 329.016 353.776 329.004C353.779 329.007 353.693 328.933 353.693 328.933Z" fill="#2E3242"/>
<path d="M368.873 261.793C370.53 261.779 372.041 261.765 373.728 261.75C373.742 263.353 373.756 264.928 373.771 266.661C372.192 266.674 370.62 266.689 368.915 266.703C368.902 265.117 368.889 263.602 368.873 261.793Z" fill="#2E3242"/>
<path d="M343.054 292.821C343.069 294.502 343.084 296.182 343.098 297.987C341.501 298.001 339.993 298.014 338.283 298.029C338.269 296.506 338.256 294.937 338.238 292.932C339.804 292.919 341.469 292.904 343.137 292.892C343.14 292.895 343.054 292.821 343.054 292.821Z" fill="#2E3242"/>
<path d="M348.402 292.861C346.622 292.849 344.842 292.837 343.059 292.824C343.056 292.821 343.141 292.895 343.139 292.892C343.155 291.171 343.175 289.453 343.195 287.735L343.119 287.806C344.864 287.791 346.609 287.775 348.353 287.76L348.281 287.689C348.296 289.437 348.312 291.184 348.327 292.932L348.402 292.861Z" fill="#2E3242"/>
<path d="M343.194 287.735C341.572 287.749 339.95 287.763 338.026 287.78C338.01 285.982 337.996 284.294 337.982 282.604L337.912 282.681C339.657 282.666 341.402 282.65 343.146 282.635L343.074 282.564C343.089 284.312 343.105 286.059 343.12 287.807L343.194 287.735Z" fill="#2E3242"/>
<path d="M353.819 323.838C352.209 323.853 350.599 323.866 348.81 323.882C348.795 322.232 348.782 320.662 348.767 318.92C350.305 318.907 351.871 318.894 353.704 318.878C353.719 320.56 353.734 322.237 353.748 323.912L353.819 323.838Z" fill="#2E3242"/>
<path d="M353.75 323.912C355.499 323.899 357.248 323.884 358.997 323.871L358.92 323.801C358.935 325.549 358.951 327.297 358.966 329.044L359.041 328.973C357.261 328.961 355.481 328.95 353.698 328.936C353.695 328.933 353.781 329.007 353.778 329.004C353.791 327.28 353.806 325.559 353.822 323.84L353.75 323.912Z" fill="#2E3242"/>
<path d="M327.621 277.531C326.008 277.544 324.395 277.559 322.597 277.574C322.582 275.919 322.569 274.349 322.554 272.603C324.087 272.59 325.655 272.576 327.504 272.56C327.519 274.247 327.534 275.925 327.549 277.605C327.549 277.605 327.621 277.531 327.621 277.531Z" fill="#2E3242"/>
<path d="M374.488 334.076C376.101 334.063 377.715 334.048 379.511 334.031C379.526 335.686 379.539 337.257 379.554 339.004C378.021 339.017 376.453 339.03 374.604 339.047C374.589 337.36 374.574 335.68 374.559 334.002L374.488 334.076Z" fill="#2E3242"/>
<path d="M385.01 334.003C386.73 333.988 388.179 333.975 389.826 333.962C389.839 335.581 389.854 337.155 389.869 338.909C388.353 338.922 386.782 338.936 385.053 338.95C385.04 337.363 385.025 335.788 385.01 334.003Z" fill="#2E3242"/>
<path d="M400.231 333.996C400.245 335.71 400.259 337.223 400.273 338.863C398.65 338.878 397.137 338.89 395.425 338.906C395.412 337.368 395.399 335.792 395.382 334.039C396.895 334.024 398.467 334.011 400.231 333.996Z" fill="#2E3242"/>
<path d="M410.552 333.871C410.567 335.501 410.579 337.013 410.594 338.716C409.025 338.73 407.455 338.743 405.713 338.759C405.699 337.208 405.686 335.634 405.671 333.914C407.225 333.9 408.738 333.888 410.552 333.871Z" fill="#2E3242"/>
<path d="M363.857 297.97C363.844 296.346 363.829 294.721 363.811 292.726C365.673 292.71 367.36 292.695 369.045 292.68C369.059 294.304 369.073 295.928 369.091 297.924C367.231 297.94 365.544 297.955 363.857 297.97Z" fill="#2E3242"/>
<path d="M332.312 241.453C332.356 246.551 332.399 251.51 332.443 256.649C327.409 256.694 322.398 256.737 317.227 256.783C317.184 251.76 317.14 246.742 317.096 241.586C322.115 241.542 327.066 241.499 332.312 241.453Z" fill="#2E3242"/>
<path d="M332.989 329.135C327.903 329.179 322.954 329.222 317.853 329.267C317.809 324.149 317.766 319.131 317.72 313.981C322.759 313.936 327.708 313.893 332.856 313.849C332.899 318.841 332.944 323.86 332.989 329.135Z" fill="#2E3242"/>
<path d="M389.458 256.149C389.414 251.015 389.371 246.058 389.327 240.959C394.385 240.915 399.335 240.872 404.494 240.828C404.537 245.788 404.581 250.808 404.625 256.017C399.694 256.06 394.684 256.103 389.458 256.149Z" fill="#2E3242"/>
<path d="M343.143 282.634C343.143 282.61 343.143 282.586 343.143 282.561C343.119 282.561 343.094 282.561 343.071 282.561L343.143 282.634Z" fill="#2E3242"/>
<path d="M369 287.508C368.977 287.508 368.953 287.508 368.928 287.508C368.928 287.532 368.928 287.557 368.928 287.581L369 287.508Z" fill="#2E3242"/>
<path d="M337.941 277.506C337.941 277.482 337.941 277.458 337.939 277.435C337.914 277.435 337.889 277.435 337.864 277.435L337.941 277.506Z" fill="#2E3242"/>
<path d="M353.56 292.888C353.56 292.864 353.56 292.839 353.56 292.815C353.536 292.815 353.511 292.815 353.488 292.815L353.56 292.888Z" fill="#2E3242"/>
<path d="M348.353 287.761C348.353 287.738 348.353 287.713 348.353 287.689C348.33 287.689 348.306 287.689 348.281 287.689L348.353 287.761Z" fill="#2E3242"/>
<path d="M374.074 277.121C374.05 277.121 374.026 277.121 374.002 277.121C374.002 277.146 374.002 277.172 374.002 277.197L374.074 277.121Z" fill="#2E3242"/>
<path d="M358.448 272.312C358.477 275.739 358.505 278.98 358.535 282.314C356.812 282.329 355.264 282.342 353.471 282.359L353.517 287.645C353.533 289.483 353.548 291.151 353.561 292.817C355.153 292.804 356.75 292.789 358.604 292.773C358.59 291.102 358.576 289.518 358.56 287.6C362.19 287.569 365.561 287.54 368.932 287.51C368.903 284.188 368.874 280.863 368.842 277.167C370.681 277.151 372.345 277.136 374.005 277.123C373.99 275.462 373.976 273.802 373.962 272.177C368.648 272.223 363.639 272.266 358.448 272.312Z" fill="#2E3242"/>
<path d="M348.038 272.091C348.039 272.114 348.041 272.14 348.042 272.163C348.069 272.163 348.095 272.163 348.12 272.163C348.123 272.165 348.038 272.091 348.038 272.091Z" fill="#2E3242"/>
<path fill-rule="evenodd" clip-rule="evenodd" d="M298.521 223.713L322.169 223.004L322.079 220.005L295.479 220.803L295.897 250.145L298.896 250.102L298.521 223.713Z" fill="#2E3242"/>
<path fill-rule="evenodd" clip-rule="evenodd" d="M398.958 220.302L425.594 220.418L425.461 250.521L422.461 250.507L422.581 223.405L398.945 223.302L398.958 220.302Z" fill="#2E3242"/>
<path fill-rule="evenodd" clip-rule="evenodd" d="M297.426 320.062L300.426 320.057L300.469 347.16L324.105 347.122L324.11 350.122L297.474 350.165L297.426 320.062Z" fill="#2E3242"/>
<path fill-rule="evenodd" clip-rule="evenodd" d="M422.572 347.104L422.579 320.001L425.579 320.002L425.571 350.105L398.936 350.097L398.936 347.097L422.572 347.104Z" fill="#2E3242"/>
<rect x="284.999" y="415" width="151" height="45" rx="6" fill="#6366F1"/>
<path d="M345.652 434.293C345.595 433.71 345.352 433.257 344.922 432.935C344.492 432.612 343.908 432.451 343.171 432.451C342.67 432.451 342.247 432.523 341.902 432.667C341.557 432.807 341.293 433.002 341.108 433.252C340.929 433.503 340.839 433.787 340.839 434.105C340.83 434.37 340.884 434.601 341.002 434.798C341.125 434.995 341.293 435.166 341.505 435.311C341.718 435.451 341.964 435.573 342.242 435.679C342.521 435.78 342.819 435.867 343.136 435.939L344.44 436.257C345.073 436.401 345.654 436.594 346.183 436.835C346.712 437.076 347.171 437.372 347.558 437.723C347.946 438.075 348.246 438.489 348.458 438.965C348.676 439.442 348.787 439.989 348.791 440.605C348.787 441.51 348.56 442.295 348.111 442.959C347.667 443.619 347.024 444.132 346.183 444.498C345.347 444.859 344.338 445.039 343.157 445.039C341.985 445.039 340.964 444.857 340.095 444.491C339.23 444.125 338.555 443.583 338.068 442.866C337.586 442.143 337.333 441.25 337.31 440.186H340.279C340.312 440.682 340.452 441.096 340.697 441.428C340.948 441.756 341.281 442.004 341.697 442.172C342.117 442.336 342.592 442.418 343.121 442.418C343.641 442.418 344.092 442.341 344.475 442.187C344.863 442.033 345.163 441.818 345.375 441.544C345.588 441.269 345.694 440.954 345.694 440.598C345.694 440.265 345.597 439.986 345.404 439.76C345.215 439.534 344.936 439.341 344.567 439.182C344.203 439.023 343.757 438.879 343.228 438.749L341.647 438.344C340.423 438.041 339.457 437.567 338.748 436.921C338.04 436.276 337.688 435.407 337.692 434.314C337.688 433.419 337.921 432.636 338.394 431.967C338.871 431.298 339.526 430.775 340.357 430.4C341.189 430.024 342.134 429.836 343.192 429.836C344.27 429.836 345.21 430.024 346.013 430.4C346.821 430.775 347.449 431.298 347.898 431.967C348.347 432.636 348.579 433.411 348.593 434.293H345.652Z" fill="white"/>
<path d="M355.718 445.047C354.603 445.047 353.643 444.806 352.84 444.324C352.042 443.838 351.427 443.164 350.997 442.302C350.572 441.44 350.359 440.448 350.359 439.327C350.359 438.19 350.574 437.194 351.004 436.336C351.439 435.475 352.056 434.803 352.854 434.321C353.653 433.835 354.603 433.592 355.703 433.592C356.653 433.592 357.485 433.768 358.198 434.119C358.912 434.471 359.476 434.964 359.892 435.6C360.308 436.235 360.537 436.982 360.58 437.839H357.731C357.65 437.285 357.438 436.84 357.093 436.503C356.752 436.161 356.306 435.99 355.753 435.99C355.285 435.99 354.877 436.12 354.527 436.38C354.182 436.635 353.913 437.008 353.719 437.499C353.525 437.99 353.428 438.585 353.428 439.283C353.428 439.991 353.523 440.593 353.712 441.089C353.906 441.585 354.177 441.963 354.527 442.223C354.877 442.483 355.285 442.613 355.753 442.613C356.098 442.613 356.408 442.541 356.682 442.396C356.96 442.252 357.19 442.042 357.369 441.768C357.553 441.488 357.674 441.154 357.731 440.764H360.58C360.532 441.611 360.306 442.358 359.899 443.003C359.498 443.643 358.942 444.144 358.234 444.505C357.525 444.866 356.686 445.047 355.718 445.047Z" fill="white"/>
<path d="M365.617 445.039C364.923 445.039 364.304 444.917 363.76 444.671C363.217 444.421 362.787 444.052 362.47 443.566C362.158 443.075 362.003 442.463 362.003 441.732C362.003 441.115 362.114 440.598 362.336 440.179C362.558 439.76 362.86 439.423 363.243 439.168C363.626 438.912 364.06 438.72 364.547 438.59C365.038 438.46 365.553 438.368 366.092 438.315C366.725 438.248 367.236 438.185 367.623 438.128C368.01 438.065 368.292 437.974 368.466 437.853C368.641 437.733 368.729 437.555 368.729 437.319V437.275C368.729 436.818 368.587 436.464 368.303 436.214C368.025 435.963 367.628 435.838 367.113 435.838C366.569 435.838 366.137 435.961 365.816 436.206C365.494 436.447 365.282 436.751 365.178 437.116L362.385 436.885C362.527 436.211 362.806 435.629 363.222 435.138C363.637 434.642 364.174 434.261 364.83 433.996C365.492 433.727 366.257 433.592 367.127 433.592C367.732 433.592 368.31 433.664 368.863 433.809C369.421 433.953 369.915 434.177 370.345 434.48C370.779 434.784 371.122 435.174 371.372 435.65C371.623 436.122 371.748 436.688 371.748 437.348V444.83H368.885V443.292H368.799C368.625 443.638 368.391 443.944 368.098 444.209C367.805 444.469 367.453 444.674 367.042 444.823C366.631 444.967 366.156 445.039 365.617 445.039ZM366.482 442.916C366.926 442.916 367.318 442.827 367.658 442.649C367.999 442.466 368.266 442.22 368.459 441.912C368.653 441.604 368.75 441.255 368.75 440.865V439.688C368.655 439.75 368.525 439.808 368.36 439.861C368.199 439.909 368.017 439.955 367.814 439.998C367.611 440.037 367.408 440.073 367.205 440.107C367.002 440.135 366.817 440.162 366.652 440.186C366.298 440.239 365.988 440.323 365.723 440.439C365.459 440.554 365.253 440.711 365.107 440.908C364.96 441.101 364.887 441.342 364.887 441.63C364.887 442.049 365.036 442.37 365.334 442.591C365.636 442.808 366.019 442.916 366.482 442.916Z" fill="white"/>
<path d="M377.11 438.417V444.83H374.09V433.736H376.968V435.694H377.095C377.336 435.048 377.74 434.538 378.307 434.163C378.874 433.782 379.562 433.592 380.37 433.592C381.126 433.592 381.785 433.76 382.347 434.098C382.91 434.435 383.347 434.916 383.659 435.542C383.97 436.163 384.126 436.905 384.126 437.766V444.83H381.107V438.315C381.112 437.636 380.942 437.107 380.597 436.726C380.252 436.341 379.777 436.149 379.172 436.149C378.766 436.149 378.407 436.238 378.095 436.416C377.788 436.594 377.547 436.854 377.372 437.196C377.202 437.533 377.114 437.94 377.11 438.417Z" fill="white"/>
</g>
<path d="M515.149 403.337L479.661 341.482C478.019 338.365 474.467 336.563 470.76 336.963L462 335.668L461.788 364.965L471.772 376.398C472.973 378.008 480.465 403.71 479.199 405.305C474.325 411.442 473.697 416.511 461.427 450.996C460.094 454.742 456.736 467.057 453.282 469.332C447.864 472.902 440.517 472.168 436.138 467.62L402.958 433.156C397.153 427.125 387.173 426.035 380.303 431.165C372.777 436.788 371.888 447.038 378.147 453.539L419.363 496.349C419.363 496.349 421.667 552.88 457.073 586.736L465.681 666.378L531.946 634.734L517.756 412.714C517.574 409.445 516.688 406.256 515.149 403.337Z" fill="#F6B8A4"/>
<path d="M455.388 651.205L451.054 611.109C451.054 611.109 482.369 576.521 535.327 563.776L542.903 641.746L455.388 651.205Z" fill="#2E3242"/>
</g>
<defs>
<linearGradient id="paint0_linear_5115_11747" x1="0" y1="319.522" x2="636" y2="319.522" gradientUnits="userSpaceOnUse">
<stop stop-color="#6366F1"/>
<stop offset="0.5" stop-color="#8B5CF6"/>
<stop offset="1" stop-color="#D946EF"/>
</linearGradient>
<clipPath id="clip0_5115_11747">
<rect width="289" height="526" fill="white" transform="translate(259 110)"/>
</clipPath>
<clipPath id="clip1_5115_11747">
<rect width="204.439" height="415.244" fill="white" transform="translate(258.5 110)"/>
</clipPath>
</defs>
</svg>
