<svg width="636" height="636" viewBox="0 0 636 636" fill="none" xmlns="http://www.w3.org/2000/svg">
<g clip-path="url(#clip0_5115_11610)">
<rect width="636" height="636" rx="8" fill="url(#paint0_linear_5115_11610)"/>
<g clip-path="url(#clip1_5115_11610)">
<path d="M427.192 705.999L205.932 705.005C179.322 704.893 157.852 683.296 158.001 656.762L160.397 103.843C160.513 77.3086 182.181 55.8723 208.808 56.0006L430.068 56.9946C456.678 57.1069 478.148 78.7035 477.999 105.238L475.586 658.157C475.487 684.691 453.819 706.128 427.192 705.999Z" fill="#1C1F2C"/>
<path d="M460.462 561.092C460.462 562.028 460.176 562.943 459.64 563.721C459.103 564.499 458.341 565.106 457.449 565.463C456.557 565.821 455.576 565.913 454.629 565.73C453.683 565.546 452.814 565.094 452.133 564.431C451.452 563.768 450.989 562.923 450.803 562.005C450.616 561.086 450.715 560.135 451.087 559.271C451.458 558.407 452.086 557.669 452.89 557.151C453.694 556.634 454.638 556.359 455.603 556.362C456.893 556.366 458.129 556.867 459.04 557.753C459.951 558.64 460.462 559.84 460.462 561.092Z" fill="#DBE1F2"/>
<path d="M455.603 571.465C455.031 568.03 455.031 564.528 455.603 561.092C456.176 564.528 456.176 568.03 455.603 571.465Z" fill="#DBE1F2"/>
<path d="M434.48 75.2402L390.235 75.0799C388.791 75.1049 387.367 75.4056 386.044 75.9646C384.72 76.5237 383.523 77.3303 382.521 78.3383C381.518 79.3462 380.731 80.5359 380.202 81.8392C379.674 83.1426 379.416 84.5341 379.442 85.9343V93.7104C379.486 96.5327 378.375 99.2569 376.352 101.286C374.329 103.314 371.559 104.482 368.649 104.533L282.39 104.148C279.476 104.068 276.713 102.871 274.709 100.818C272.704 98.7647 271.621 96.0242 271.696 93.1973V85.4212C271.736 84.0209 271.491 82.6268 270.974 81.3185C270.458 80.0102 269.682 78.8134 268.688 77.7964C267.695 76.7794 266.505 75.9623 265.187 75.3916C263.868 74.821 262.446 74.508 261.003 74.4706H245.433L206.675 74.2301C202.098 74.209 197.562 75.0636 193.327 76.7451C189.091 78.4265 185.239 80.9017 181.99 84.0291C178.742 87.1564 176.161 90.8745 174.396 94.9705C172.63 99.0665 171.715 103.46 171.702 107.9L169.338 649.643C169.317 654.082 170.198 658.483 171.931 662.591C173.664 666.7 176.216 670.437 179.44 673.589C182.664 676.74 186.496 679.243 190.719 680.956C194.941 682.668 199.47 683.556 204.047 683.569L431.819 684.595C436.395 684.614 440.93 683.758 445.165 682.076C449.4 680.394 453.251 677.918 456.499 674.791C459.747 671.665 462.328 667.947 464.094 663.852C465.861 659.757 466.777 655.365 466.793 650.926L469.14 109.166C469.175 100.211 465.544 91.6079 459.046 85.2469C452.547 78.8859 443.712 75.2869 434.48 75.2402Z" fill="white"/>
<path d="M184.496 502.748C186.447 501.337 281.697 460.629 281.697 460.629L170.431 406.789L170.051 493.545L184.496 502.748Z" fill="#EDF0F8"/>
<path opacity="0.3" d="M190.312 405.122L271.481 365.103L184.263 318.19L170.809 321.461L170.479 397.362L190.312 405.122Z" fill="#6366F1"/>
<path d="M173.736 312.739L423.921 199.385L176.05 120.806L173.736 312.739Z" fill="#EDF0F8"/>
<path d="M170.826 607.941L285.15 551.023L455.339 648.152L414.796 682.639H269.564L170.826 624.102V607.941Z" fill="#EDF0F8"/>
<path d="M307.662 544.866L449.043 626.186L464.81 624.455V546.261L387.327 506.483L307.662 544.866Z" fill="#EDF0F8"/>
<path d="M330.9 467.218L464.199 539.96V444.868L415.97 424.826L330.9 467.218Z" fill="#EDF0F8"/>
<path d="M188.527 507.301L266.721 548.923L361.625 501.24L286.224 464.044L188.527 507.301Z" fill="#EDF0F8"/>
<path d="M305.908 364.574L416.679 417.82L468.048 392.375L468.378 356.686L393.556 321.461L305.908 364.574Z" fill="#EDF0F8"/>
<path d="M192.627 411.022L303.398 464.268L354.767 438.823L355.097 403.134L280.258 367.909L192.627 411.022Z" fill="#EDF0F8"/>
<path d="M207.965 315.32L298.241 359.171L382.434 315.32L295.2 276.713L207.965 315.32Z" fill="#EDF0F8"/>
<path d="M382.434 595.547C381.861 595.325 381.308 595.057 380.781 594.745L376.12 592.196L358.188 582.143L291.811 544.385L290.439 543.6L291.861 542.894L378.947 499.958V501.914L313.926 468.244L311.876 467.186L313.942 466.128L404.251 420.145V422.373L393.475 417.082L191.172 317.517L189.271 316.587L191.205 315.689L298.637 265.986L328.388 252.374L336.222 248.879L338.255 248.013C338.482 247.909 338.721 247.829 338.966 247.773C338.771 247.93 338.553 248.059 338.321 248.157L336.371 249.152L328.619 253.048L299.067 267.173L192.114 317.629V315.737L394.632 414.87L405.408 420.161L407.639 421.267L405.425 422.389L315.05 468.276V466.16L379.988 499.958L381.905 500.952L379.971 501.898L292.621 544.418V542.926L358.601 581.406L376.286 591.843L380.831 594.601C381.397 594.864 381.934 595.181 382.434 595.547Z" fill="#6366F1"/>
<path d="M336.635 371.34L336.238 352.453L386.996 376.294V395.919L336.635 371.34Z" fill="#F6F7FB"/>
<path d="M386.996 376.294L450.034 345.911V367.059L386.996 395.919V376.294Z" fill="#DBE1F2"/>
<path d="M336.238 352.453L398.103 322.439L450.033 345.911L386.996 376.294L336.238 352.453Z" fill="#F6F7FB"/>
<path d="M342.867 360.614V369.769L347.826 371.933V363.179L342.867 360.614Z" fill="white"/>
<path d="M350.801 363.997V373.168L355.776 375.332V366.578L350.801 363.997Z" fill="white"/>
<path d="M176.941 252.166V227.587L237.021 255.821V279.037L176.941 252.166Z" fill="#DBE1F2"/>
<path d="M237.021 255.821L311.662 219.843V244.887L237.021 279.037V255.821Z" fill="#F6F7FB"/>
<path d="M176.941 227.587L250.16 192.074L311.661 219.843L237.021 255.821L176.941 227.587Z" fill="white"/>
<path d="M184.793 237.239V248.094L190.66 250.659V240.285L184.793 237.239Z" fill="white"/>
<path d="M194.18 241.263V252.102L200.064 254.683V244.309L194.18 241.263Z" fill="white"/>
<path d="M358.057 457.614V476.982L379.543 487.227V467.218L358.057 457.614Z" fill="#DBE1F2"/>
<path d="M406.813 454.536L379.459 467.218V487.227L406.813 472.413V454.536Z" fill="#DBE1F2"/>
<path d="M358.057 457.614L385.163 444.868L406.814 454.536L379.46 467.218L358.057 457.614Z" fill="#F6F7FB"/>
<path d="M365.658 471.515V480.67L370.617 482.85V474.096L365.658 471.515Z" fill="white"/>
<path d="M185.09 447.594V466.962L206.494 477.207V457.197L185.09 447.594Z" fill="#DBE1F2"/>
<path d="M233.864 444.515L206.494 457.197V477.207L233.864 462.392V444.515Z" fill="#DBE1F2"/>
<path d="M185.09 447.594L212.212 434.847L233.864 444.515L206.494 457.197L185.09 447.594Z" fill="#F6F7FB"/>
<path d="M192.693 461.494V470.649L197.652 472.83V464.076L192.693 461.494Z" fill="white"/>
<path d="M273.863 319.745V339.129L295.267 349.375V329.365L273.863 319.745Z" fill="#F6F7FB"/>
<path d="M322.636 316.683L295.266 329.365V349.375L322.636 334.56V316.683Z" fill="#DBE1F2"/>
<path d="M273.863 319.745L300.986 307.015L322.637 316.683L295.267 329.365L273.863 319.745Z" fill="#F6F7FB"/>
<path d="M281.465 333.662V342.817L286.423 344.998V336.228L281.465 333.662Z" fill="#DBE1F2"/>
<path d="M250.062 485.736V505.12L271.466 515.35V495.356L250.062 485.736Z" fill="#DBE1F2"/>
<path d="M298.836 482.658L271.482 495.356V515.349L298.836 500.551V482.658Z" fill="#EDF0F8"/>
<path d="M250.062 485.736L277.185 473.006L298.837 482.658L271.483 495.356L250.062 485.736Z" fill="#F6F7FB"/>
<path d="M257.664 499.637V508.808L262.622 510.972V502.218L257.664 499.637Z" fill="white"/>
<path d="M338.453 532.537V556.827L383.525 582.592V557.517L338.453 532.537Z" fill="#F6F7FB"/>
<path d="M417.886 539.592L383.574 557.517V582.592L417.886 564.026V539.592Z" fill="#DBE1F2"/>
<path d="M338.453 532.521L372.468 516.552L417.887 539.591L383.575 557.516L338.453 532.521Z" fill="white"/>
<path d="M355.494 554.999V566.479L361.725 570.103V558.751L355.494 554.999Z" fill="white"/>
<path d="M229.914 582.528V606.819L275.035 632.6V607.508L229.914 582.528Z" fill="#DBE1F2"/>
<path d="M328.883 579.209L275.035 607.508V632.6L329.032 603.564L328.883 579.209Z" fill="white"/>
<path d="M229.914 582.528L286.87 555.769L329.032 579.306L275.035 607.508L229.914 582.528Z" fill="#F6F7FB"/>
<path d="M246.953 604.991V616.487L253.168 620.11V608.743L246.953 604.991Z" fill="white"/>
<path d="M400.715 491.701V588.717L428.879 602.842V504.607L400.715 491.701Z" fill="#F6F7FB"/>
<path d="M421.524 482.401L400.715 491.701L428.879 504.607L447.82 494.25L421.524 482.401Z" fill="white"/>
<path d="M428.879 504.607V602.842L446.018 593.896L447.82 494.25L428.879 504.607Z" fill="#DBE1F2"/>
<path d="M281.695 413.122V510.139L309.859 524.264V426.029L281.695 413.122Z" fill="#F6F7FB"/>
<path d="M302.488 403.807L281.695 413.122L309.859 426.029L328.8 415.672L302.488 403.807Z" fill="white"/>
<path d="M309.859 426.029V524.264L326.982 516.071L328.8 415.672L309.859 426.029Z" fill="#DBE1F2"/>
<path d="M294.473 597.615V621.906L339.611 647.687V622.611L294.473 597.615Z" fill="#DBE1F2"/>
<path d="M373.907 604.686L339.611 622.611V647.687L373.907 629.121V604.686Z" fill="white"/>
<path d="M294.473 597.616L328.884 579.209L373.906 604.686L339.611 622.611L294.473 597.616Z" fill="#F6F7FB"/>
<path d="M311.514 620.078V631.574L317.745 635.197V623.83L311.514 620.078Z" fill="white"/>
<path d="M394.83 308.009L312.652 272.079L427.092 215.578L464.644 269.898L394.83 308.009Z" fill="#EDF0F8"/>
<path opacity="0.3" d="M467.984 341.005L468.545 278.797L404.83 313.973L467.984 341.005Z" fill="#6366F1"/>
<path d="M419.573 403.31C419.557 404.242 419.257 405.148 418.712 405.916C418.166 406.683 417.399 407.277 416.507 407.622C415.614 407.968 414.637 408.05 413.696 407.859C412.756 407.667 411.895 407.211 411.222 406.546C410.548 405.882 410.092 405.039 409.91 404.124C409.729 403.208 409.83 402.262 410.201 401.402C410.573 400.542 411.197 399.808 411.997 399.292C412.797 398.776 413.737 398.5 414.697 398.5C415.998 398.521 417.238 399.037 418.15 399.937C419.062 400.837 419.573 402.048 419.573 403.31Z" fill="#DBE1F2"/>
<path d="M414.697 413.684C414.124 410.248 414.124 406.746 414.697 403.31C415.27 406.746 415.27 410.248 414.697 413.684Z" fill="#DBE1F2"/>
<path d="M286.573 391.718C286.573 392.669 286.282 393.599 285.737 394.39C285.193 395.181 284.418 395.798 283.512 396.162C282.606 396.526 281.609 396.621 280.647 396.436C279.685 396.25 278.802 395.792 278.109 395.119C277.415 394.447 276.943 393.589 276.752 392.656C276.56 391.723 276.658 390.756 277.034 389.877C277.409 388.999 278.045 388.247 278.86 387.719C279.675 387.19 280.634 386.908 281.615 386.908C282.269 386.897 282.919 387.014 283.525 387.252C284.132 387.49 284.683 387.844 285.146 388.293C285.608 388.742 285.973 389.276 286.218 389.865C286.464 390.453 286.584 391.083 286.573 391.718Z" fill="#DBE1F2"/>
<path d="M281.697 402.156C281.124 398.72 281.124 395.218 281.697 391.782C282.27 395.218 282.27 398.72 281.697 402.156Z" fill="#DBE1F2"/>
<path d="M221.419 457.743C221.419 458.678 221.134 459.592 220.598 460.37C220.062 461.148 219.301 461.754 218.41 462.112C217.519 462.47 216.538 462.564 215.593 462.381C214.647 462.199 213.778 461.748 213.096 461.087C212.414 460.426 211.95 459.583 211.762 458.665C211.574 457.748 211.67 456.797 212.039 455.933C212.408 455.068 213.033 454.33 213.835 453.81C214.637 453.29 215.579 453.013 216.544 453.013C217.837 453.013 219.077 453.511 219.991 454.398C220.906 455.285 221.419 456.488 221.419 457.743Z" fill="#DBE1F2"/>
<path d="M216.592 468.116C216.019 464.68 216.019 461.178 216.592 457.742C217.165 461.178 217.165 464.68 216.592 468.116Z" fill="#DBE1F2"/>
<path d="M226.294 406.789C226.294 407.721 226.01 408.633 225.478 409.408C224.946 410.184 224.189 410.791 223.303 411.151C222.417 411.511 221.441 411.609 220.497 411.433C219.554 411.257 218.685 410.814 218 410.161C217.315 409.508 216.844 408.672 216.647 407.76C216.45 406.848 216.534 405.9 216.891 405.034C217.247 404.169 217.859 403.425 218.65 402.895C219.441 402.366 220.375 402.075 221.336 402.06C221.983 402.049 222.626 402.163 223.227 402.396C223.828 402.629 224.376 402.976 224.837 403.416C225.299 403.856 225.665 404.381 225.916 404.961C226.166 405.54 226.295 406.161 226.294 406.789Z" fill="#DBE1F2"/>
<path d="M221.418 417.163C220.845 413.727 220.845 410.225 221.418 406.789C221.991 410.225 221.991 413.727 221.418 417.163Z" fill="#DBE1F2"/>
<path d="M346.619 402.156C346.639 403.114 346.362 404.057 345.826 404.862C345.29 405.667 344.517 406.299 343.608 406.675C342.699 407.051 341.695 407.156 340.725 406.975C339.754 406.793 338.861 406.335 338.161 405.658C337.461 404.981 336.986 404.117 336.796 403.176C336.606 402.235 336.71 401.261 337.095 400.378C337.48 399.495 338.128 398.743 338.956 398.22C339.784 397.697 340.755 397.426 341.743 397.442C343.033 397.442 344.271 397.938 345.185 398.822C346.099 399.705 346.615 400.904 346.619 402.156Z" fill="#DBE1F2"/>
<path d="M341.742 412.481C341.169 409.046 341.169 405.543 341.742 402.108C342.315 405.543 342.315 409.046 341.742 412.481Z" fill="#DBE1F2"/>
<path d="M423.623 437.541C423.623 438.476 423.337 439.391 422.801 440.169C422.265 440.946 421.504 441.553 420.613 441.911C419.722 442.269 418.741 442.362 417.796 442.18C416.85 441.997 415.981 441.547 415.299 440.885C414.617 440.224 414.153 439.381 413.965 438.464C413.777 437.546 413.873 436.595 414.242 435.731C414.611 434.867 415.236 434.128 416.038 433.608C416.84 433.088 417.783 432.811 418.747 432.811C420.04 432.811 421.28 433.309 422.195 434.196C423.109 435.083 423.623 436.286 423.623 437.541Z" fill="#DBE1F2"/>
<path d="M418.746 447.914C418.173 444.479 418.173 440.976 418.746 437.541C419.319 440.976 419.319 444.479 418.746 447.914Z" fill="#DBE1F2"/>
<path d="M426.73 465.358C426.73 466.294 426.444 467.208 425.908 467.986C425.373 468.764 424.611 469.37 423.72 469.728C422.829 470.086 421.849 470.18 420.903 469.997C419.957 469.815 419.088 469.364 418.407 468.703C417.725 468.041 417.26 467.199 417.072 466.281C416.884 465.364 416.981 464.413 417.35 463.548C417.719 462.684 418.344 461.945 419.145 461.426C419.947 460.906 420.89 460.629 421.854 460.629C423.147 460.629 424.388 461.127 425.302 462.014C426.216 462.901 426.73 464.104 426.73 465.358Z" fill="#DBE1F2"/>
<path d="M421.853 475.732C421.281 472.296 421.281 468.794 421.853 465.358C422.426 468.794 422.426 472.296 421.853 475.732Z" fill="#DBE1F2"/>
<path d="M290.027 523.077C290.027 524.009 289.743 524.921 289.211 525.697C288.678 526.473 287.922 527.079 287.036 527.439C286.149 527.799 285.173 527.897 284.23 527.721C283.286 527.545 282.418 527.103 281.733 526.449C281.047 525.796 280.577 524.96 280.379 524.048C280.182 523.136 280.267 522.188 280.623 521.322C280.98 520.457 281.592 519.713 282.383 519.183C283.173 518.654 284.108 518.363 285.069 518.348C285.716 518.337 286.359 518.451 286.96 518.684C287.561 518.917 288.108 519.264 288.57 519.704C289.031 520.145 289.398 520.67 289.648 521.249C289.898 521.828 290.027 522.449 290.027 523.077Z" fill="#DBE1F2"/>
<path d="M285.15 533.451C284.577 530.015 284.577 526.513 285.15 523.078C285.723 526.513 285.723 530.015 285.15 533.451Z" fill="#DBE1F2"/>
<path d="M445.323 610.266C448.016 610.266 450.199 608.148 450.199 605.536C450.199 602.924 448.016 600.806 445.323 600.806C442.63 600.806 440.447 602.924 440.447 605.536C440.447 608.148 442.63 610.266 445.323 610.266Z" fill="#DBE1F2"/>
<path d="M445.324 615.909C444.751 612.474 444.751 608.971 445.324 605.536C445.897 608.971 445.897 612.474 445.324 615.909Z" fill="#DBE1F2"/>
<path d="M405.591 632.6C405.591 633.551 405.3 634.481 404.755 635.272C404.21 636.063 403.436 636.679 402.53 637.043C401.624 637.408 400.627 637.503 399.665 637.317C398.703 637.132 397.82 636.673 397.126 636.001C396.433 635.328 395.96 634.471 395.769 633.538C395.578 632.605 395.676 631.638 396.051 630.759C396.427 629.88 397.062 629.129 397.877 628.6C398.693 628.072 399.652 627.79 400.632 627.79C401.286 627.779 401.936 627.896 402.543 628.134C403.149 628.372 403.701 628.726 404.163 629.174C404.626 629.623 404.991 630.158 405.236 630.746C405.481 631.335 405.602 631.965 405.591 632.6Z" fill="#DBE1F2"/>
<path d="M400.713 642.973C400.14 639.538 400.14 636.035 400.713 632.6C401.286 636.035 401.286 639.538 400.713 642.973Z" fill="#DBE1F2"/>
<path d="M327.313 546.245C330.006 546.245 332.189 544.128 332.189 541.516C332.189 538.903 330.006 536.786 327.313 536.786C324.62 536.786 322.438 538.903 322.438 541.516C322.438 544.128 324.62 546.245 327.313 546.245Z" fill="#DBE1F2"/>
<path d="M327.33 551.889C326.757 548.454 326.757 544.951 327.33 541.516C327.903 544.951 327.903 548.454 327.33 551.889Z" fill="#DBE1F2"/>
<path d="M344.486 495.356C344.486 496.292 344.2 497.206 343.664 497.984C343.128 498.762 342.367 499.368 341.476 499.726C340.585 500.084 339.605 500.178 338.659 499.995C337.713 499.813 336.844 499.362 336.162 498.701C335.481 498.039 335.016 497.196 334.828 496.279C334.64 495.361 334.736 494.411 335.106 493.546C335.475 492.682 336.099 491.943 336.901 491.424C337.703 490.904 338.646 490.626 339.61 490.626C340.903 490.626 342.143 491.125 343.058 492.012C343.972 492.899 344.486 494.102 344.486 495.356Z" fill="#DBE1F2"/>
<path d="M339.611 505.73C339.038 502.294 339.038 498.792 339.611 495.356C340.184 498.792 340.184 502.294 339.611 505.73Z" fill="#DBE1F2"/>
<path d="M226.294 500.551C226.294 501.483 226.01 502.394 225.478 503.17C224.946 503.946 224.189 504.552 223.303 504.912C222.417 505.273 221.441 505.371 220.497 505.195C219.554 505.019 218.685 504.576 218 503.923C217.315 503.269 216.844 502.434 216.647 501.522C216.45 500.61 216.534 499.661 216.891 498.796C217.247 497.93 217.859 497.186 218.65 496.657C219.441 496.128 220.375 495.837 221.336 495.821C221.983 495.81 222.626 495.925 223.227 496.158C223.828 496.391 224.376 496.737 224.837 497.178C225.299 497.618 225.665 498.143 225.916 498.722C226.166 499.301 226.295 499.923 226.294 500.551Z" fill="#DBE1F2"/>
<path d="M221.418 510.924C220.845 507.489 220.845 503.987 221.418 500.551C221.991 503.987 221.991 507.489 221.418 510.924Z" fill="#DBE1F2"/>
<path d="M451.439 457.743C451.439 458.678 451.153 459.592 450.617 460.37C450.082 461.148 449.32 461.754 448.429 462.112C447.538 462.47 446.558 462.564 445.612 462.381C444.666 462.199 443.797 461.748 443.116 461.087C442.434 460.426 441.969 459.583 441.781 458.665C441.593 457.748 441.69 456.797 442.059 455.933C442.428 455.068 443.053 454.33 443.854 453.81C444.656 453.29 445.599 453.013 446.563 453.013C447.856 453.013 449.097 453.511 450.011 454.398C450.925 455.285 451.439 456.488 451.439 457.743Z" fill="#DBE1F2"/>
<path d="M446.562 468.116C445.99 464.68 445.99 461.178 446.562 457.742C447.135 461.178 447.135 464.68 446.562 468.116Z" fill="#DBE1F2"/>
<path d="M438.365 386.988C438.365 387.924 438.079 388.838 437.543 389.616C437.007 390.394 436.246 391 435.355 391.358C434.464 391.716 433.484 391.81 432.538 391.627C431.592 391.445 430.723 390.994 430.041 390.333C429.36 389.671 428.895 388.828 428.707 387.911C428.519 386.993 428.615 386.042 428.984 385.178C429.353 384.314 429.978 383.575 430.78 383.056C431.582 382.536 432.525 382.258 433.489 382.258C434.782 382.258 436.022 382.757 436.937 383.644C437.851 384.531 438.365 385.734 438.365 386.988Z" fill="#DBE1F2"/>
<path d="M433.488 397.346C432.915 393.91 432.915 390.408 433.488 386.972C434.061 390.408 434.061 393.91 433.488 397.346Z" fill="#DBE1F2"/>
<path d="M334.768 329.189C337.461 329.189 339.644 327.071 339.644 324.459C339.644 321.847 337.461 319.729 334.768 319.729C332.076 319.729 329.893 321.847 329.893 324.459C329.893 327.071 332.076 329.189 334.768 329.189Z" fill="#DBE1F2"/>
<path d="M334.768 334.817C334.174 331.383 334.174 327.877 334.768 324.443C335.341 327.879 335.341 331.381 334.768 334.817Z" fill="#DBE1F2"/>
<path d="M246.425 413.683C246.425 414.615 246.141 415.527 245.609 416.303C245.077 417.079 244.32 417.685 243.434 418.045C242.548 418.405 241.572 418.503 240.628 418.327C239.685 418.151 238.816 417.709 238.131 417.055C237.446 416.402 236.975 415.566 236.778 414.654C236.58 413.742 236.665 412.794 237.022 411.928C237.378 411.063 237.99 410.319 238.781 409.789C239.572 409.26 240.506 408.969 241.467 408.954C242.114 408.943 242.757 409.057 243.358 409.29C243.959 409.523 244.507 409.87 244.968 410.31C245.43 410.75 245.796 411.275 246.046 411.855C246.297 412.434 246.425 413.055 246.425 413.683Z" fill="#DBE1F2"/>
<path d="M241.551 424.057C240.978 420.621 240.978 417.119 241.551 413.683C242.146 417.117 242.146 420.623 241.551 424.057Z" fill="#DBE1F2"/>
<path d="M303.712 290.709C303.712 291.661 303.421 292.591 302.876 293.382C302.331 294.173 301.557 294.789 300.651 295.153C299.745 295.517 298.748 295.613 297.786 295.427C296.824 295.241 295.941 294.783 295.247 294.111C294.554 293.438 294.082 292.581 293.89 291.648C293.699 290.715 293.797 289.748 294.172 288.869C294.548 287.99 295.183 287.239 295.999 286.71C296.814 286.182 297.773 285.899 298.753 285.899C299.408 285.889 300.057 286.006 300.664 286.244C301.271 286.481 301.822 286.835 302.284 287.284C302.747 287.733 303.112 288.267 303.357 288.856C303.602 289.444 303.723 290.075 303.712 290.709Z" fill="#DBE1F2"/>
<path d="M298.836 301.147C298.263 297.712 298.263 294.209 298.836 290.774C299.409 294.209 299.409 297.712 298.836 301.147Z" fill="#DBE1F2"/>
<path d="M403.128 280.304C403.111 281.236 402.812 282.142 402.266 282.91C401.721 283.677 400.954 284.27 400.061 284.616C399.169 284.962 398.191 285.044 397.251 284.853C396.311 284.661 395.45 284.205 394.776 283.54C394.103 282.876 393.646 282.033 393.465 281.118C393.283 280.202 393.385 279.255 393.756 278.396C394.127 277.536 394.752 276.802 395.552 276.286C396.352 275.77 397.291 275.494 398.252 275.494C398.899 275.494 399.54 275.619 400.137 275.862C400.734 276.104 401.275 276.46 401.729 276.908C402.183 277.355 402.54 277.886 402.781 278.469C403.021 279.053 403.139 279.676 403.128 280.304Z" fill="#DBE1F2"/>
<path d="M398.252 290.709C397.679 287.274 397.679 283.772 398.252 280.336C398.825 283.772 398.825 287.274 398.252 290.709Z" fill="#DBE1F2"/>
<path d="M430.614 275.975C430.614 276.93 430.321 277.863 429.772 278.655C429.224 279.448 428.444 280.064 427.534 280.426C426.623 280.787 425.622 280.878 424.658 280.686C423.694 280.494 422.81 280.027 422.12 279.347C421.43 278.666 420.965 277.801 420.783 276.863C420.601 275.925 420.711 274.955 421.099 274.078C421.487 273.201 422.135 272.455 422.961 271.936C423.788 271.418 424.754 271.149 425.738 271.165C426.386 271.165 427.026 271.29 427.623 271.533C428.22 271.775 428.762 272.131 429.215 272.579C429.669 273.026 430.027 273.557 430.267 274.14C430.507 274.723 430.625 275.347 430.614 275.975Z" fill="#DBE1F2"/>
<path d="M425.738 286.348C425.165 282.913 425.165 279.41 425.738 275.975C426.311 279.41 426.311 282.913 425.738 286.348Z" fill="#DBE1F2"/>
<path d="M419.572 241.087C419.572 242.022 419.286 242.937 418.75 243.715C418.214 244.492 417.453 245.099 416.562 245.457C415.671 245.815 414.691 245.908 413.745 245.726C412.799 245.543 411.93 245.093 411.248 244.431C410.567 243.77 410.102 242.927 409.914 242.01C409.726 241.092 409.822 240.141 410.191 239.277C410.56 238.413 411.185 237.674 411.987 237.154C412.789 236.635 413.732 236.357 414.696 236.357C415.983 236.378 417.21 236.883 418.12 237.765C419.03 238.648 419.551 239.839 419.572 241.087Z" fill="#DBE1F2"/>
<path d="M414.697 251.444C414.124 248.009 414.124 244.507 414.697 241.071C415.27 244.507 415.27 248.009 414.697 251.444Z" fill="#DBE1F2"/>
<path d="M266.474 321.461C266.474 322.393 266.19 323.304 265.658 324.08C265.126 324.856 264.369 325.462 263.483 325.822C262.597 326.183 261.621 326.281 260.677 326.105C259.734 325.929 258.865 325.486 258.18 324.833C257.495 324.179 257.024 323.344 256.827 322.432C256.629 321.52 256.714 320.571 257.071 319.706C257.427 318.84 258.039 318.096 258.83 317.567C259.621 317.038 260.555 316.747 261.516 316.731C262.163 316.721 262.806 316.835 263.407 317.068C264.008 317.301 264.555 317.648 265.017 318.088C265.479 318.528 265.845 319.053 266.095 319.632C266.345 320.211 266.474 320.833 266.474 321.461Z" fill="#DBE1F2"/>
<path d="M261.598 331.834C261.025 328.399 261.025 324.896 261.598 321.461C262.17 324.896 262.17 328.399 261.598 331.834Z" fill="#DBE1F2"/>
<path d="M379.789 276.713C379.805 277.671 379.527 278.611 378.988 279.415C378.45 280.218 377.676 280.847 376.767 281.221C375.857 281.594 374.854 281.696 373.884 281.513C372.915 281.33 372.024 280.871 371.325 280.193C370.627 279.516 370.153 278.651 369.964 277.711C369.776 276.771 369.881 275.797 370.266 274.915C370.652 274.033 371.3 273.282 372.128 272.76C372.956 272.238 373.926 271.967 374.913 271.983C376.207 271.983 377.447 272.481 378.361 273.368C379.275 274.255 379.789 275.458 379.789 276.713Z" fill="#DBE1F2"/>
<path d="M374.914 287.086C374.341 283.651 374.341 280.148 374.914 276.713C375.487 280.148 375.487 283.651 374.914 287.086Z" fill="#DBE1F2"/>
<path d="M242.889 170.189C242.905 171.147 242.626 172.087 242.088 172.891C241.549 173.694 240.776 174.323 239.866 174.696C238.957 175.07 237.953 175.172 236.984 174.989C236.014 174.806 235.123 174.347 234.425 173.669C233.727 172.992 233.253 172.127 233.064 171.187C232.875 170.246 232.98 169.273 233.366 168.391C233.751 167.509 234.4 166.758 235.228 166.236C236.056 165.714 237.025 165.443 238.013 165.459C239.306 165.459 240.546 165.957 241.461 166.844C242.375 167.731 242.889 168.934 242.889 170.189Z" fill="#DBE1F2"/>
<path d="M238.08 180.546C237.657 178.852 237.512 177.105 237.65 175.367C237.512 173.63 237.657 171.882 238.08 170.189C238.512 171.881 238.658 173.63 238.51 175.367C238.658 177.105 238.512 178.854 238.08 180.546Z" fill="#DBE1F2"/>
<path d="M298.835 196.082C298.835 197.017 298.55 197.932 298.014 198.71C297.478 199.487 296.717 200.094 295.826 200.452C294.935 200.81 293.954 200.903 293.009 200.721C292.063 200.538 291.194 200.088 290.512 199.426C289.83 198.765 289.366 197.922 289.178 197.005C288.99 196.087 289.086 195.136 289.455 194.272C289.824 193.408 290.449 192.669 291.251 192.149C292.053 191.63 292.995 191.352 293.96 191.352C295.253 191.352 296.493 191.85 297.407 192.737C298.322 193.624 298.835 194.828 298.835 196.082Z" fill="#DBE1F2"/>
<path d="M293.96 206.455C293.539 204.762 293.394 203.014 293.53 201.277C293.393 199.534 293.538 197.781 293.96 196.082C294.382 197.781 294.527 199.534 294.39 201.277C294.526 203.014 294.381 204.762 293.96 206.455Z" fill="#DBE1F2"/>
<path d="M209.981 277.883C209.981 278.834 209.69 279.764 209.146 280.555C208.601 281.346 207.826 281.963 206.92 282.327C206.014 282.691 205.017 282.786 204.056 282.6C203.094 282.415 202.21 281.957 201.517 281.284C200.823 280.611 200.351 279.754 200.16 278.821C199.968 277.888 200.067 276.921 200.442 276.042C200.817 275.163 201.453 274.412 202.268 273.883C203.084 273.355 204.042 273.073 205.023 273.073C205.677 273.062 206.327 273.179 206.933 273.417C207.54 273.655 208.091 274.009 208.554 274.457C209.017 274.906 209.381 275.441 209.627 276.029C209.872 276.618 209.992 277.248 209.981 277.883Z" fill="#DBE1F2"/>
<path d="M205.023 288.321C204.451 284.885 204.451 281.383 205.023 277.947C205.596 281.383 205.596 284.885 205.023 288.321Z" fill="#DBE1F2"/>
<path d="M214.791 200.812C214.807 201.77 214.528 202.711 213.99 203.514C213.451 204.317 212.678 204.946 211.769 205.32C210.859 205.694 209.856 205.796 208.886 205.613C207.917 205.43 207.026 204.97 206.327 204.292C205.629 203.615 205.155 202.751 204.966 201.81C204.778 200.87 204.883 199.896 205.268 199.014C205.654 198.132 206.302 197.381 207.13 196.859C207.958 196.337 208.928 196.066 209.915 196.082C211.208 196.082 212.449 196.58 213.363 197.467C214.277 198.354 214.791 199.557 214.791 200.812Z" fill="#DBE1F2"/>
<path d="M209.981 211.185C209.55 209.493 209.405 207.744 209.552 206.006C209.405 204.264 209.55 202.509 209.981 200.812C210.403 202.511 210.548 204.264 210.411 206.006C210.547 207.744 210.402 209.491 209.981 211.185Z" fill="#DBE1F2"/>
<path d="M424.613 421.347L464.809 400.681L464.644 437.958L424.613 421.347Z" fill="#EDF0F8"/>
<path d="M257.665 553.524L169.604 597.615V515.349L179.355 511.133L257.665 553.524Z" fill="#EDF0F8"/>
<path d="M389.194 597.616C389.194 598.694 388.865 599.748 388.247 600.644C387.63 601.541 386.752 602.239 385.725 602.652C384.698 603.064 383.568 603.172 382.478 602.962C381.388 602.752 380.387 602.233 379.601 601.47C378.815 600.708 378.28 599.737 378.063 598.679C377.846 597.622 377.958 596.526 378.383 595.529C378.808 594.533 379.528 593.682 380.453 593.083C381.377 592.484 382.463 592.164 383.575 592.164C385.065 592.164 386.494 592.739 387.548 593.761C388.602 594.783 389.194 596.17 389.194 597.616Z" fill="#6366F1"/>
<path d="M440.613 208.508L468.661 216.781V259.653L440.613 208.508Z" fill="#EDF0F8"/>
<path d="M468.941 151.237L468.776 104.453C467.645 96.3929 463.553 88.9999 457.252 83.633C450.951 78.266 442.865 75.2858 434.48 75.2404L390.235 75.0801C388.791 75.1051 387.367 75.4058 386.043 75.9648C384.72 76.5239 383.523 77.3305 382.52 78.3384C381.518 79.3464 380.73 80.5361 380.202 81.8394C379.674 83.1428 379.416 84.5343 379.442 85.9345V93.7106C379.486 96.5329 378.375 99.2571 376.352 101.286C374.328 103.315 371.558 104.482 368.649 104.533L282.389 104.148C279.476 104.068 276.713 102.871 274.708 100.818C272.704 98.7648 271.62 96.0243 271.696 93.1975V85.4214C271.735 84.0211 271.49 82.627 270.974 81.3187C270.458 80.0104 269.681 78.8136 268.688 77.7966C267.695 76.7796 266.505 75.9625 265.186 75.3918C263.868 74.8212 262.446 74.5082 261.002 74.4708H245.433L206.675 74.2303C197.955 74.2108 189.546 77.3761 183.122 83.0966C179.238 90.3596 174.991 100.733 176.941 108.573L468.726 200.716L468.941 151.237Z" fill="#EDF0F8"/>
<path d="M434.481 75.2404H435.671C436.849 75.2614 438.025 75.3578 439.191 75.529C443.814 76.0842 448.26 77.593 452.232 79.9542C455.189 81.6659 457.859 83.8071 460.149 86.3033C462.954 89.2683 465.192 92.694 466.76 96.4202C468.545 100.778 469.411 105.44 469.305 110.129C469.305 115.109 469.305 120.416 469.305 126.049C469.14 171.054 468.908 236.165 468.611 316.619C468.313 397.073 467.9 492.871 467.47 599.251C467.47 612.537 467.415 625.994 467.305 639.622C467.305 643.021 467.305 646.436 467.305 649.868C467.355 653.34 466.887 656.802 465.917 660.145C464.942 663.515 463.43 666.718 461.438 669.636C459.417 672.553 456.967 675.168 454.165 677.396C448.438 681.87 441.409 684.488 434.067 684.884C432.233 684.996 430.415 684.964 428.597 684.964H423.142H412.184L367.84 684.772L276.721 684.339L230.178 684.13L206.675 683.954C198.647 684.353 190.706 682.19 184.065 677.797C177.444 673.321 172.593 666.789 170.314 659.279C169.23 655.569 168.756 651.717 168.909 647.863V636.48C168.975 621.334 169.041 606.279 169.107 591.315C169.239 561.386 169.366 531.955 169.487 503.02C169.752 445.125 170 389.281 170.248 336.083C170.495 282.885 170.727 232.349 170.942 185.035C171.052 161.381 171.162 138.566 171.272 116.59C171.272 113.832 171.272 111.107 171.272 108.397C171.272 107.034 171.404 105.655 171.487 104.292C171.57 102.93 171.851 101.599 172.214 100.284C173.488 95.0342 176.013 90.1469 179.586 86.0147C183.062 82.0369 187.428 78.8815 192.352 76.7892C197.275 74.697 202.627 73.7231 207.997 73.9418L238.343 74.0861H252.937H260.094C262.519 73.9694 264.918 74.6285 266.92 75.9619C268.942 77.3102 270.47 79.2473 271.283 81.4934C271.925 83.6583 272.154 85.9184 271.961 88.1631C271.961 89.2534 271.961 90.3597 271.961 91.3698C271.887 92.4374 271.887 93.5087 271.961 94.5764C272.229 96.6753 273.132 98.6502 274.556 100.252C275.937 101.838 277.8 102.96 279.878 103.459C280.905 103.702 281.961 103.81 283.018 103.779H286.224H298.802L344.701 104.02L364.947 104.132C366.6 104.132 368.17 104.132 369.691 104.132C371.211 103.969 372.674 103.476 373.972 102.689C375.224 101.934 376.307 100.943 377.159 99.776C378.01 98.6085 378.612 97.2877 378.93 95.8911C379.172 94.5363 379.266 93.1606 379.211 91.7866C379.211 90.4238 379.211 89.077 379.211 87.7463C379.152 86.4338 379.219 85.1188 379.409 83.8182C379.629 82.5499 380.077 81.3289 380.732 80.2107C381.947 78.0216 383.919 76.3184 386.301 75.4008C388.534 74.7252 390.883 74.4908 393.21 74.7113L415.787 74.8556L429.671 74.9518H434.414C434.414 74.9518 432.762 74.9518 429.671 74.9518H415.787H393.21C390.916 74.7256 388.598 74.9603 386.401 75.6413C384.096 76.5237 382.179 78.1561 380.979 80.2588C380.353 81.3566 379.923 82.5491 379.707 83.7861C379.529 85.0717 379.468 86.3701 379.525 87.6661C379.525 88.9969 379.525 90.3436 379.525 91.7065C379.59 93.1024 379.49 94.501 379.227 95.8751C378.912 97.3146 378.302 98.678 377.434 99.8844C376.565 101.091 375.455 102.115 374.17 102.898C372.834 103.715 371.326 104.23 369.757 104.405C368.104 104.533 366.584 104.405 364.964 104.405H344.717L298.819 104.228H286.241H283.035C281.923 104.267 280.811 104.159 279.729 103.908C277.607 103.41 275.689 102.304 274.225 100.733C272.736 99.0533 271.793 96.9836 271.515 94.7848C271.408 93.6925 271.375 92.5945 271.415 91.498V88.2914C271.608 86.1334 271.39 83.9594 270.771 81.8781C270.011 79.7932 268.602 77.989 266.738 76.7155C264.828 75.4458 262.538 74.8256 260.226 74.9518H253.069H238.475L208.113 74.8396C202.865 74.5963 197.629 75.5117 192.799 77.5169C187.969 79.5221 183.672 82.5648 180.23 86.4155C176.732 90.4778 174.259 95.276 173.008 100.428C172.661 101.711 172.545 103.058 172.297 104.373C172.049 105.687 172.115 107.034 172.099 108.397C172.099 111.107 172.099 113.848 172.099 116.59C171.999 138.534 171.906 161.349 171.818 185.035C171.636 232.349 171.421 282.837 171.206 336.083C170.991 389.329 170.743 445.109 170.495 503.02C170.374 531.976 170.225 561.418 170.049 591.347C170.049 606.311 169.989 621.366 169.867 636.512V647.911C169.712 651.699 170.175 655.487 171.239 659.135C173.456 666.445 178.165 672.81 184.594 677.188C191.09 681.45 198.845 683.533 206.675 683.12L230.178 683.216L276.737 683.425L367.724 683.842L412.069 684.05H423.027H428.481C430.299 684.05 432.117 684.05 433.902 683.97C441.074 683.585 447.941 681.028 453.537 676.659C456.274 674.48 458.669 671.925 460.644 669.075C462.587 666.229 464.064 663.108 465.024 659.824C465.972 656.549 466.423 653.157 466.363 649.755C466.363 646.324 466.363 642.909 466.363 639.51C466.429 625.882 466.49 612.419 466.545 599.123C467.057 492.759 467.503 396.961 467.867 316.507C468.231 236.053 468.611 170.942 468.842 125.937C468.842 120.315 468.87 115.008 468.925 110.016C469.052 105.363 468.209 100.733 466.446 96.4042C464.917 92.6953 462.711 89.2843 459.934 86.3354C457.662 83.8752 455.021 81.7618 452.099 80.0664C448.154 77.7018 443.738 76.172 439.141 75.5771C437.977 75.3913 436.801 75.2842 435.621 75.2565C434.877 75.2885 434.481 75.2404 434.481 75.2404Z" fill="#1C1F2C"/>
<path fill-rule="evenodd" clip-rule="evenodd" d="M345.202 244.343C351.54 244.343 372.208 215.772 372.208 201.304C372.208 186.835 360.117 175.106 345.202 175.106C330.286 175.106 318.195 186.835 318.195 201.304C318.195 215.772 338.863 244.343 345.202 244.343ZM345.202 216.274C353.725 216.274 360.634 209.572 360.634 201.304C360.634 193.036 353.725 186.334 345.202 186.334C336.679 186.334 329.77 193.036 329.77 201.304C329.77 209.572 336.679 216.274 345.202 216.274Z" fill="#6366F1"/>
</g>
</g>
<defs>
<linearGradient id="paint0_linear_5115_11610" x1="0" y1="319.522" x2="636" y2="319.522" gradientUnits="userSpaceOnUse">
<stop stop-color="#6366F1"/>
<stop offset="0.5" stop-color="#8B5CF6"/>
<stop offset="1" stop-color="#D946EF"/>
</linearGradient>
<clipPath id="clip0_5115_11610">
<rect width="636" height="636" rx="8" fill="white"/>
</clipPath>
<clipPath id="clip1_5115_11610">
<rect width="320" height="650" fill="white" transform="translate(158 56)"/>
</clipPath>
</defs>
</svg>
