<svg width="16" height="16" viewBox="0 0 16 16" fill="none" xmlns="http://www.w3.org/2000/svg">
<g clip-path="url(#clip0_5123_11187)">
<path d="M15.6462 3.95235L15.6662 4.08302C15.4729 3.39702 14.9509 2.86768 14.2875 2.67502L14.2735 2.67168C13.0262 2.33302 8.00686 2.33302 8.00686 2.33302C8.00686 2.33302 3.0002 2.32635 1.7402 2.67168C1.0642 2.86768 0.541529 3.39702 0.351529 4.06902L0.348196 4.08302C-0.117804 6.51702 -0.121137 9.44168 0.368863 12.0477L0.348196 11.9157C0.541529 12.6017 1.06353 13.131 1.72686 13.3237L1.74086 13.327C2.98686 13.6663 8.00753 13.6663 8.00753 13.6663C8.00753 13.6663 13.0135 13.6663 14.2742 13.327C14.9509 13.131 15.4735 12.6017 15.6635 11.9297L15.6669 11.9157C15.8789 10.7837 16.0002 9.48102 16.0002 8.15035C16.0002 8.10168 16.0002 8.05235 15.9995 8.00302C16.0002 7.95768 16.0002 7.90368 16.0002 7.84968C16.0002 6.51835 15.8789 5.21568 15.6462 3.95235ZM6.40553 10.4337V5.57168L10.5829 8.00635L6.40553 10.4337Z" fill="white"/>
</g>
<defs>
<clipPath id="clip0_5123_11187">
<rect width="16" height="16" fill="white"/>
</clipPath>
</defs>
</svg>
